**ABCDEFGHIJKLMNOPQRSTUVWXYZabcdefghijklmnopqrstuvwxyz**************************
**PARASOLID !"#$%&'()*+,-./:;<=>?@[\]^_`{|}~0123456789**************************
**PART1;
;
;
FRU=ASCON Modeller Kernel;
APPL=Kompas 3D;
FORMAT=text;
GUISE=transmit;
KEY=Spacer sleeve M3-12 mm;
FILE=Spacer sleeve M3-12 mm.x_t;
DATE=Wed Jul 21 23:59:58 2021;
**PART2;
SCH=SCH_2700008_26105;
USFLD_SIZE=0;
**PART3;
**END_OF_HEADER*****************************************************************
T51 : TRANSMIT FILE created by modeller version 130000017 SCH_2700008_261050 12
 1 273 2 3 0 0 0 0 1e3 1e-8 0 0 0 1 0 1 1 7 21 46 67 10 44 43 0 0 0 0 0 0 0 81 1
 2 1 5 1 0 0 0 0 6 70 3 0 4 T1 0 0 3 20 1 4 4 74 20 4 3 0 0 2 13 16 0 0 0 0 0 0
 0 0 0 0 0 0 0 0 0 0 0 80 1 5 0 8 8017 0 0 0 0 0 0 0 0 0 TTTTTTTTTTTTTF3 84 19 6
 Spacer sleeve 12 mm13 7 2 0 1 0 12 0 0 11 0 79 13 8 SDL/TYSA_NAME13 9 3 0 0 0 0
 0 0 10 12 19 10 4 0 1 11 0 9 V0 19 11 5 0 1 0 10 7 S0 14 12 6 13 ?19 0 20 7 21
 -0 0 19 0 9 81 1 13 7 14 12 16 0 24 0 15 80 1 14 0 22 8001 0 0 0 0 3 5 0 0 0 FF
FFTFTFFFFFFF2 83 3 15 .564705882352941 .564705882352941 .564705882352941 81 1 16
 8 17 12 0 13 26 0 18 80 1 17 0 23 8015 0 0 0 0 3 5 0 0 0 FFFFTFFFFFFFFF2 83 1 1
8 0 14 19 9 24 ?28 12 29 7 30 +0 0 28 12 9 15 20 12 0 31 12 32 50 21 13 0 12 30
 0 0 +0 -.006 -367394039744206e-33 0 1 612323399573677e-31 -1 749879891330929e-4
7 -122464679914735e-30 79 15 22 SDL/TYSA_COLOUR79 21 23 SDL/TYSA_TRANSLUCENCY81
 1 24 10 14 19 26 0 33 13 25 83 3 25 .564705882352941 .564705882352941 .56470588
2352941 81 1 26 11 17 19 0 24 35 16 27 83 1 27 0 14 28 14 33 ?37 19 38 7 39 -0 0
 37 19 9 15 29 17 0 40 19 41 50 30 18 0 19 45 21 0 +0 .006 367394039744206e-33 0
 1 612323399573677e-31 -1 749879891330929e-47 -122464679914735e-30 17 31 0 20 42
 158 43 107 44 0 78 -15 32 22 0 47 12 0 81 1 33 15 14 28 35 0 48 24 34 83 3 34 .
564705882352941 .564705882352941 .564705882352941 81 1 35 16 17 28 0 33 50 26 36
 83 1 36 0 14 37 23 48 ?52 28 53 7 45 -0 0 52 28 9 15 38 26 0 54 28 55 51 39 27
 0 28 59 45 0 +0 .006 367394039744206e-33 0 -1 -612323399573677e-31 .00122936706
125 1 0 0 17 40 0 29 56 191 57 291 58 0 266 +15 41 31 0 61 19 0 17 42 0 20 62 31
 63 140 64 0 106 -18 43 35 0 31 0 57 67 ?1 16 44 19 0 ?107 0 58 46 0 0 1 52 45 2
0 0 37 39 30 186 -0 -.00479289321881345 0 0 1 0 .00370710678118655 .707106781186
548 .707106781186547 183697019872103e-30 0 1 31 46 21 0 44 60 0 0 +0 -.006 0 136
84555315672e-61 1 612323399573677e-31 183697019872103e-30 -612323399573677e-31 1
 .0025 17 47 0 32 47 47 68 515 69 0 515 -81 1 48 24 14 37 50 0 72 33 49 83 3 49
 .564705882352941 .564705882352941 .564705882352941 81 1 50 25 17 37 0 48 74 35
 51 83 1 51 0 14 52 39 72 ?76 37 77 7 65 -0 0 76 37 9 15 53 42 0 78 37 0 17 54 0
 38 54 54 79 535 80 0 535 -15 55 46 0 83 28 0 17 56 0 29 84 40 85 316 86 0 290 +
18 57 50 0 40 43 63 89 ?1 16 58 28 0 ?40 44 64 60 0 0 1 52 59 29 0 205 65 39 354
 +0 .00479289321881345 586960133907495e-33 0 -1 -122464679914735e-30 .0037071067
8118655 .707106781186548 .707106781186547 183697019872103e-30 -122464679914735e-
30 1 31 60 30 0 58 66 46 0 +0 .006 734788079488412e-33 13684555315672e-61 1 6123
23399573677e-31 183697019872103e-30 -612323399573677e-31 1 .0025 17 61 0 41 61 6
1 90 524 91 0 524 +17 62 0 20 93 42 94 217 95 0 171 -18 63 56 0 42 57 68 98 ?1 1
6 64 32 0 ?140 58 69 66 0 0 1 52 65 33 0 52 70 59 231 -0 -.00479289321881345 0 0
 1 0 .00370710678118655 .707106781186548 .707106781186547 183697019872103e-30 0
 1 31 66 34 0 64 71 60 0 +0 -.006 0 13684555315672e-61 1 612323399573677e-31 -.8
66025403784439 -306161699786838e-31 .5 .0025 29 67 57 0 43 89 0 -181841538683115
e-32 -.006 .0025 18 68 58 0 47 63 79 99 ?1 16 69 36 0 ?515 64 80 71 0 0 1 52 70
 37 0 487 81 65 0 -0 -.006 -367394039744206e-33 0 -1 -612323399573677e-31 .00172
936706125 .707106781186548 .707106781186548 1 -876602986459415e-47 1431601318959
46e-30 31 71 38 0 69 82 66 0 +0 -.006 -367394039744206e-33 0 -1 -612323399573677
e-31 1 -149975978266186e-46 244929359829471e-30 .00172936706125 81 1 72 40 14 52
 74 0 100 48 73 83 3 73 .564705882352941 .564705882352941 .564705882352941 81 1
 74 41 17 52 0 72 102 50 75 83 1 75 0 14 76 59 100 ?104 52 105 7 96 -0 0 104 52
 9 15 77 62 0 106 52 0 17 78 0 53 107 149 43 495 108 0 140 -18 79 66 0 54 68 85
 116 ?1 16 80 43 0 ?535 69 86 82 0 0 1 52 81 44 0 500 87 70 0 +0 .006 3673940397
44206e-33 0 1 612323399573677e-31 .00172936706125 .707106781186548 .707106781186
548 1 -876602986459414e-47 143160131895946e-30 31 82 45 0 80 88 71 0 +0 .0055 33
6777869765522e-33 0 -1 -612323399573677e-31 1 0 0 .00122936706125 17 83 0 55 83
 83 117 526 118 0 526 +17 84 0 29 120 56 121 341 122 0 315 +18 85 72 0 56 79 90
 125 ?1 16 86 47 0 ?56 80 91 88 0 0 1 52 87 48 0 245 96 81 379 +0 .0047928932188
1345 586960133907495e-33 0 -1 -122464679914735e-30 .00370710678118655 .707106781
186548 .707106781186547 183697019872103e-30 -122464679914735e-30 1 31 88 49 0 86
 92 82 0 +0 .006 734788079488412e-33 13684555315672e-61 1 612323399573677e-31 .8
66025403784438 -306161699786839e-31 .500000000000001 .0025 29 89 73 0 57 98 67 .
0021650635094611 .006 .00125 18 90 74 0 61 85 94 126 ?1 16 91 51 0 ?61 86 95 92
 0 0 1 31 92 52 0 91 97 88 0 +0 .006 367394039744206e-33 0 -1 -612323399573677e-
31 1 -149975978266186e-46 244929359829471e-30 .00172936706125 17 93 0 20 127 62
 128 208 129 0 170 -18 94 78 0 62 90 117 132 ?1 16 95 53 0 ?217 91 108 97 0 0 1
 52 96 54 0 76 109 87 222 -0 -.00479289321881345 0 0 1 0 .00370710678118655 .707
106781186548 .707106781186547 183697019872103e-30 0 1 31 97 55 0 95 110 92 0 +0
 -.006 0 13684555315672e-61 1 612323399573677e-31 -.866025403784439 306161699786
838e-31 -.5 .0025 29 98 79 0 63 99 89 -.0021650635094611 -.006 .00125 29 99 80 0
 68 116 98 .00172936706125 -.006 -272938556557859e-33 81 1 100 60 14 76 102 0 13
3 72 101 83 3 101 .564705882352941 .564705882352941 .564705882352941 81 1 102 61
 17 76 0 100 135 74 103 83 1 103 0 14 104 81 133 ?137 76 138 7 130 -0 0 137 76 9
 15 105 84 0 139 76 0 17 106 0 77 140 180 63 522 141 0 217 -17 107 0 53 149 78 1
50 31 44 0 158 +16 108 63 0 ?495 95 118 110 0 0 1 50 109 64 0 363 123 96 420 +-.
00144337567297407 -.006 .0025 -61534805964274e-29 -370074341541719e-31 1 1 0 615
34805964274e-29 38 110 65 0 108 119 97 0 +45 109 113 114 115 141 111 110 230 420
 109 141 112 110 186 186 45 40 5 113 0 1 5 89912484781371e-19 .166989453599383 ?
?-765296219999849e-32 -.00600000000000002 .00249999999999998 .000427514976970978
 -.00596370958784303 .00249999999992395 .000844339973885424 -.00586126735129188
 .00249999999998476 .00126356461868271 -.00569882247166402 .00249999999996434 .0
0144337567297139 -.00561324865405432 .00250000000000013 41 1 114 L-7652962199998
49e-32 -.00600000000000002 .00249999999999998 41 1 115 L.00144337567297139 -.005
61324865405432 .00250000000000013 29 116 88 0 79 125 99 .00122936706125 .0055 27
4222001430363e-33 18 117 89 0 83 94 121 151 ?1 16 118 67 0 ?83 108 122 119 0 0 1
 31 119 68 0 118 124 110 0 +0 -.0055 -336777869765522e-33 0 -1 -612323399573677e
-31 1 0 0 .00122936706125 17 120 0 29 152 84 153 366 154 0 340 +18 121 93 0 84 1
17 128 157 ?1 16 122 69 0 ?84 118 129 124 0 0 1 52 123 70 0 264 130 109 405 +0 .
00479289321881345 586960133907495e-33 0 -1 -122464679914735e-30 .003707106781186
55 .707106781186548 .707106781186547 183697019872103e-30 -122464679914735e-30 1
 31 124 71 0 122 131 119 0 +0 .006 734788079488412e-33 13684555315672e-61 1 6123
23399573677e-31 .866025403784439 306161699786838e-31 -.5 .0025 29 125 94 0 85 12
6 116 .0021650635094611 .006 -.00125 29 126 95 0 90 132 125 .00172936706125 .006
 461849522930553e-33 17 127 0 20 158 93 159 248 160 0 207 -18 128 99 0 93 121 15
0 163 ?1 16 129 75 0 ?208 122 141 131 0 0 1 52 130 76 0 104 142 123 280 -0 -.004
79289321881345 0 0 1 0 .00370710678118655 .707106781186548 .707106781186547 1836
97019872103e-30 0 1 31 131 77 0 129 143 124 0 +0 -.006 0 13684555315672e-61 1 61
2323399573677e-31 -612323399573676e-31 612323399573677e-31 -1 .0025 29 132 100 0
 94 151 126 -.0021650635094611 -.006 -.00125 81 1 133 82 14 104 135 0 164 100 13
4 83 3 134 .564705882352941 .564705882352941 .564705882352941 81 1 135 83 17 104
 0 133 166 102 136 83 1 136 0 14 137 101 164 ?168 104 169 7 161 -0 0 168 104 9 1
5 138 104 0 170 104 0 17 139 0 105 171 217 172 505 173 0 491 -17 140 0 77 180 10
6 43 42 64 0 479 +16 141 85 0 ?522 129 154 143 0 0 1 50 142 86 0 414 155 130 465
 +-.00288675134594813 -.006 -13982472566244e-31 -.866025403784439 -3061616997868
38e-31 .5 .5 0 .866025403784439 38 143 87 0 141 156 131 0 +65 142 146 147 148 14
1 144 143 175 465 142 141 145 143 231 231 65 40 6 146 0 1 6 699622751646208e-20
 .139646897907182 ??-.0021650635094611 -.006 .00125 -.0019936372986892 -.0059765
9995610778 .00154691890654794 -.00179791641038693 -.00589439297490429 .001885917
42941822 -.00158488556540943 -.00574383857746789 .00225489767652808 -.0014778821
242764 -.00564712898602082 .00244023307284517 -.00144337567297461 -.005613248654
05263 .00249999999999925 41 1 147 L-.0021650635094611 -.006 .00125 41 1 148 L-.0
0144337567297461 -.00561324865405263 .00249999999999925 17 149 0 53 78 107 181 4
92 182 0 478 -18 150 110 0 107 128 153 190 ?1 29 151 111 0 117 157 132 .00122936
706125 -.0055 -535820899812233e-33 17 152 0 29 191 120 192 425 193 0 391 +18 153
 115 0 120 150 159 196 ?1 16 154 90 0 ?120 141 160 156 0 0 1 52 155 91 0 288 161
 142 438 +0 .00479289321881345 586960133907495e-33 0 -1 -122464679914735e-30 .00
370710678118655 .707106781186548 .707106781186547 183697019872103e-30 -122464679
914735e-30 1 31 156 92 0 154 162 143 0 +0 .006 734788079488412e-33 1368455531567
2e-61 1 612323399573677e-31 -612323399573676e-31 612323399573677e-31 -1 .0025 29
 157 116 0 121 163 151 159637078190612e-32 .006 -.0025 17 158 0 20 31 127 150 26
7 197 0 247 -18 159 120 0 127 153 172 200 ?1 16 160 96 0 ?248 154 173 162 0 0 1
 52 161 97 0 137 183 155 304 -0 -.00479289321881345 0 0 1 0 .00370710678118655 .
707106781186548 .707106781186547 183697019872103e-30 0 1 31 162 98 0 160 174 156
 0 +0 -.006 0 13684555315672e-61 1 612323399573677e-31 .866025403784439 30616169
9786838e-31 -.5 .0025 29 163 121 0 128 190 157 159637078190612e-32 -.006 -.0025
 81 1 164 102 14 137 166 0 201 133 165 83 3 165 .564705882352941 .56470588235294
1 .564705882352941 81 1 166 103 17 137 0 164 203 135 167 83 1 167 0 14 168 122 2
01 ?205 137 206 7 198 -0 0 205 137 9 15 169 125 0 207 137 0 17 170 0 138 208 257
 128 537 209 0 248 -17 171 0 105 217 139 94 531 218 0 208 -18 172 132 0 139 159
 181 226 ?1 16 173 105 0 ?505 160 182 174 0 0 1 38 174 106 0 173 184 162 0 +96 1
42 177 178 179 141 175 174 428 144 142 141 176 174 222 222 96 40 5 177 0 1 5 135
107314939949e-19 .161120466514554 ??-.00288675134594775 -.00561324865405263 8454
16299225182e-30 -.00257571087656743 -.00586855077185078 .000538737896144419 -.00
245608865345662 -.00593313760944798 .000745929662802508 -.00231718470594088 -.00
59815553591811 .00098651835333385 -.0021650635094611 -.006 .00125 41 1 178 L-.00
288675134594775 -.00561324865405263 845416299225182e-30 41 1 179 L-.002165063509
4611 -.006 .00125 17 180 0 77 106 140 227 479 228 0 461 -18 181 135 0 149 172 19
2 235 ?1 16 182 107 0 ?492 173 193 184 0 0 1 50 183 108 0 388 194 161 378 +.0014
4337567297406 -.006 .0025 .866025403784438 -185037170770859e-31 .5 .5 0 -.866025
403784438 38 184 109 0 182 195 174 0 +45 183 187 188 189 141 185 184 270 378 183
 141 186 184 112 112 45 40 5 187 0 1 5 135107314906513e-19 .161120466485679 ??.0
0144337567300863 -.00561324865408796 .00249999999993979 .00175441614232543 -.005
86855077185033 .00196126210384034 .00187403836415012 -.00593313760944729 .001754
07033644154 .00201294230623186 -.00598155536467622 .00151348164212716 .002165063
5094611 -.006 .00125 41 1 188 L.00144337567300863 -.00561324865408796 .002499999
99993979 41 1 189 L.0021650635094611 -.006 .00125 29 190 136 0 150 196 163 .0021
650635094611 -.006 .00125 17 191 0 29 40 152 236 417 237 0 291 +18 192 140 0 152
 181 227 240 ?1 16 193 112 0 ?152 182 197 195 0 0 1 52 194 113 0 313 198 183 429
 +0 .00479289321881345 586960133907495e-33 0 -1 -122464679914735e-30 .0037071067
8118655 .707106781186548 .707106781186547 183697019872103e-30 -122464679914735e-
30 1 31 195 114 0 193 199 184 0 +0 .006 734788079488412e-33 13684555315672e-61 1
 612323399573677e-31 -.866025403784439 306161699786838e-31 -.5 .0025 29 196 141
 0 153 200 190 -.0021650635094611 .006 -.00125 16 197 117 0 ?267 193 209 199 0 0
 1 52 198 118 0 168 210 194 329 -0 -.00479289321881345 0 0 1 0 .0037071067811865
5 .707106781186548 .707106781186547 183697019872103e-30 0 1 31 199 119 0 197 211
 195 0 +0 -.006 0 13684555315672e-61 1 612323399573677e-31 .866025403784438 -306
161699786839e-31 .500000000000001 .0025 29 200 142 0 159 226 196 .00216506350946
11 -.006 -.00125 81 1 201 123 14 168 203 0 241 164 202 83 3 202 .564705882352941
 .564705882352941 .564705882352941 81 1 203 124 17 168 0 201 243 166 204 83 1 20
4 0 14 205 143 241 ?245 168 246 7 59 +0 0 245 168 9 15 206 146 0 247 168 0 17 20
7 0 169 248 275 159 539 249 0 267 -17 208 0 138 257 170 94 93 129 0 519 +16 209
 126 0 ?537 197 218 211 0 0 1 50 210 127 0 457 219 198 437 +.00144337567297407 -
.006 -.0025 -153837014910685e-30 370074341541719e-31 -1 -1 0 153837014910685e-30
 38 211 128 0 209 220 199 0 +130 210 214 215 216 141 212 211 303 437 210 141 213
 211 280 280 130 40 6 214 0 1 6 8616977231444e-18 .163520646237736 ??13667495070
6599e-32 -.006 -.0025 -.000418216488982329 -.00596526036455946 -.002499999998800
1 -.000711975642427183 -.00590059443048738 -.0024999999999362 -.0010154857990914
8 -.00580162800785804 -.00249999999997942 -.00130436156927603 -.0056801845624506
6 -.0024999999998243 -.00144337567297314 -.00561324865405263 -.0025000000000001
 41 1 215 L136674950706599e-32 -.006 -.0025 41 1 216 L-.00144337567297314 -.0056
1324865405263 -.0025000000000001 17 217 0 105 139 171 63 62 95 0 505 +16 218 129
 0 ?531 209 228 220 0 0 1 50 219 130 0 447 238 210 395 +-.00144337567297407 -.00
6 -.0025 -.866025403784439 185037170770859e-31 -.5 -.5 0 .866025403784439 38 220
 131 0 218 229 211 0 +96 219 223 224 225 141 221 220 279 395 219 141 222 220 176
 176 96 40 6 223 0 1 6 69962275124404e-19 .139646897870872 ??-.0021650635094611
 -.006 -.00125 -.00233648971998185 -.00597659995611531 -.000953081093371067 -.00
253221060842168 -.00589439297495378 -.00061408257071899 -.00274524145356974 -.00
574383857741973 -.000245102323372719 -.0028522448948807 -.00564712898553558 -597
669261273953e-19 -.00288675134511762 -.00561324865488276 -142574032413949e-26 41
 1 224 L-.0021650635094611 -.006 -.00125 41 1 225 L-.00288675134511762 -.0056132
4865488276 -142574032413949e-26 29 226 150 0 172 235 200 -.00288675134594813 -.0
0561324865405263 -135162751376914e-32 18 227 151 0 180 192 236 258 ?1 16 228 133
 0 ?479 218 237 229 0 0 1 38 229 134 0 228 239 220 0 +65 109 232 233 234 141 230
 229 353 111 109 141 231 229 145 145 65 40 7 232 0 1 7 874057193415674e-20 .1595
78673532113 ??-.00144337567207569 -.00561324865451245 .00249999999998728 -.00137
5499384376 -.00564658125112724 .00249999999999998 -.00127276299992365 -.00569466
12229587 .00249999999999982 -.0011165135510975 -.00576200757674815 .002500000000
00006 -.000852227357174289 -.00585873298050199 .00249999999999702 -.000407682931
611913 -.00596697702893468 .00249999999991859 -973548073918557e-32 -.00600000000
000002 .00249999999999998 41 1 233 L-.00144337567207569 -.00561324865451245 .002
49999999998728 41 1 234 L-973548073918557e-32 -.00600000000000002 .0024999999999
9998 29 235 152 0 181 240 226 .00144337567297406 -.00561324865405432 .0025 18 23
6 153 0 191 227 276 259 ?1 16 237 137 0 ?191 228 249 239 0 0 1 52 238 138 0 338
 250 219 466 +0 .00479289321881345 586960133907495e-33 0 -1 -122464679914735e-30
 .00370710678118655 .707106781186548 .707106781186547 183697019872103e-30 -12246
4679914735e-30 1 31 239 139 0 237 251 229 0 +0 .006 734788079488412e-33 13684555
315672e-61 1 612323399573677e-31 -.866025403784439 -306161699786838e-31 .5 .0025
 29 240 154 0 192 258 235 -.0021650635094611 .006 .00125 81 1 241 144 14 205 243
 0 260 201 242 83 3 242 .564705882352941 .564705882352941 .564705882352941 81 1
 243 145 17 205 0 241 262 203 244 83 1 244 0 14 245 155 260 ?264 205 265 7 87 +0
 0 264 205 9 15 246 158 0 266 205 0 17 247 0 206 267 299 150 508 268 0 492 -17 2
48 0 169 275 207 128 127 160 0 528 +16 249 147 0 ?539 237 268 251 0 0 1 50 250 1
48 0 474 0 238 404 +.00288675134594813 -.006 680540971960021e-33 .86602540378443
9 306161699786838e-31 -.5 -.5 0 -.866025403784439 38 251 149 0 249 269 239 0 +16
1 250 254 255 256 141 252 251 319 404 250 141 253 251 304 304 161 40 6 254 0 1 6
 699622751646295e-20 .139646897907179 ??.0021650635094611 -.006 -.00125 .0019936
3729868921 -.00597659995610778 -.00154691890654793 .00179791641038695 -.00589439
29749043 -.00188591742941819 .00158488556540943 -.00574383857746789 -.0022548976
7652808 .0014778821242764 -.00564712898602082 -.00244023307284517 .0014433756729
7461 -.00561324865405263 -.00249999999999925 41 1 255 L.0021650635094611 -.006 -
.00125 41 1 256 L.00144337567297461 -.00561324865405263 -.00249999999999925 17 2
57 0 138 170 208 276 519 277 0 504 -29 258 163 0 227 259 240 -.00144337567297407
 -.00561324865405263 .0025 29 259 164 0 236 308 258 -319614303587193e-33 .006 .0
025 81 1 260 156 14 245 262 0 284 241 261 83 3 261 .564705882352941 .56470588235
2941 .564705882352941 81 1 262 157 17 245 0 260 286 243 263 83 1 263 0 14 264 16
5 284 ?288 245 289 7 123 +0 0 288 245 9 15 265 168 0 290 245 0 17 266 0 246 291
 324 57 460 292 0 316 -17 267 0 206 299 247 159 158 197 0 536 +16 268 159 0 ?508
 249 277 269 0 0 1 38 269 160 0 268 278 251 0 +198 183 272 273 274 141 270 269 2
94 185 183 141 271 269 329 329 198 40 6 272 0 1 6 699622751646201e-20 .139646897
907183 ??.0021650635094611 -.006 .00125 .00233648972000957 -.00597659995610778 .
000953081093323063 .00253221060850949 -.00589439297490429 .000614082570566902 .0
0274524145351254 -.00574383857746789 .000245102323471793 .00285224489437708 -.00
564712898602082 597669269996832e-19 .00288675134594775 -.00561324865405263 84787
6717492161e-30 41 1 273 L.0021650635094611 -.006 .00125 41 1 274 L.0028867513459
4775 -.00561324865405263 847876717492161e-30 17 275 0 169 207 248 300 528 301 0
 518 -18 276 173 0 257 236 300 308 ?1 16 277 161 0 ?519 268 292 278 0 0 1 38 278
 162 0 277 293 269 0 +130 219 281 282 283 141 279 278 369 221 219 141 280 278 21
3 213 130 40 5 281 0 1 5 135107314911617e-19 .161120466486528 ??-.00144337567300
863 -.00561324865408711 -.00249999999993979 -.00175441614232679 -.00586855077185
117 -.00196126210383799 -.0018740383641512 -.00593313760944778 -.001754070336439
66 -.00201294230623248 -.00598155536467637 -.00151348164212608 -.002165063509461
1 -.006 -.00125 41 1 282 L-.00144337567300863 -.00561324865408711 -.002499999999
93979 41 1 283 L-.0021650635094611 -.006 -.00125 81 1 284 166 14 264 286 0 309 2
60 285 83 3 285 .564705882352941 .564705882352941 .564705882352941 81 1 286 167
 17 264 0 284 311 262 287 83 1 287 0 14 288 174 309 ?313 264 314 7 155 +0 0 313
 264 9 15 289 177 0 315 264 0 17 290 0 265 316 349 85 517 317 0 341 -17 291 0 24
6 324 266 236 40 58 0 390 -16 292 169 0 ?460 277 301 293 0 0 1 38 293 170 0 292
 302 278 0 +183 59 296 297 298 141 294 293 378 270 183 141 295 293 354 354 59 40
 6 296 0 1 6 699622751646482e-20 .139646897907187 ??.0021650635094611 .006 .0012
5 .0019936372986892 .00597659995610777 .00154691890654795 .00179791641038692 .00
589439297490428 .00188591742941824 .00158488556540943 .00574383857746789 .002254
89767652808 .00147788212427639 .00564712898602082 .00244023307284517 .0014433756
7297461 .00561324865405263 .00249999999999925 41 1 297 L.0021650635094611 .006 .
00125 41 1 298 L.00144337567297461 .00561324865405263 .00249999999999925 17 299
 0 206 247 267 325 536 326 0 508 -18 300 182 0 275 276 325 333 ?1 16 301 171 0 ?
528 292 317 302 0 0 1 38 302 172 0 301 318 293 0 +161 210 305 306 307 141 303 30
2 344 212 210 141 304 302 253 253 161 40 6 305 0 1 6 668053740637307e-20 .125999
0239592 ??.00144337567290463 -.00561324865408711 -.00249999999999983 .0010283257
8442403 -.0057967697251419 -.0024999999999998 .000623730089313486 -.005923366688
88871 -.00249999999952545 .000401614217719464 -.00596794668767319 -.002499999999
6328 .000135809048737347 -.00599631389792591 -.0025 136674950706599e-32 -.006 -.
0025 41 1 306 L.00144337567290463 -.00561324865408711 -.00249999999999983 41 1 3
07 L136674950706599e-32 -.006 -.0025 29 308 183 0 276 333 259 -.0014433756729740
6 -.00561324865405263 -.0025 81 1 309 175 14 288 311 0 334 284 310 83 3 310 .564
705882352941 .564705882352941 .564705882352941 81 1 311 176 17 288 0 309 336 286
 312 83 1 312 0 14 313 184 334 ?338 288 339 7 194 +0 0 338 288 9 15 314 187 0 34
0 288 0 17 315 0 289 341 374 121 503 342 0 366 -17 316 0 265 349 290 57 56 86 0
 449 -16 317 178 0 ?517 301 326 318 0 0 1 38 318 179 0 317 327 302 0 +250 87 321
 322 323 141 319 318 328 252 250 141 320 318 379 379 87 40 6 321 0 1 6 699622751
646301e-20 .139646897907183 ??.0021650635094611 .006 -.00125 .00233648972000957
 .00597659995610778 -.000953081093323057 .00253221060850949 .00589439297490428 -
.000614082570566896 .00274524145351254 .00574383857746789 -.000245102323471791 .
00285224489437708 .00564712898602082 -597669269996815e-19 .00288675134594775 .00
561324865405263 -845240808517707e-30 41 1 322 L.0021650635094611 .006 -.00125 41
 1 323 L.00288675134594775 .00561324865405263 -845240808517707e-30 17 324 0 246
 266 291 350 416 351 0 460 -18 325 192 0 299 300 350 358 ?1 16 326 180 0 ?536 31
7 342 327 0 0 1 38 327 181 0 326 343 318 0 +198 250 330 331 332 141 328 327 404
 319 250 141 329 327 271 271 198 40 5 330 0 1 5 135107314911623e-19 .16112046648
6531 ??.00288675134591326 -.00561324865408711 -600417705818368e-28 .002575710876
5668 -.00586855077185118 -.000538737896145504 .00245608865345706 -.0059331376094
4778 -.000745929662801747 .00231718470594074 -.00598155535918113 -.0009865183533
34102 .0021650635094611 -.006 -.00125 41 1 331 L.00288675134591326 -.00561324865
408711 -600417705818368e-28 41 1 332 L.0021650635094611 -.006 -.00125 29 333 193
 0 300 358 308 .00144337567297407 -.00561324865405263 -.0025 81 1 334 185 14 313
 336 0 359 309 335 83 3 335 .564705882352941 .564705882352941 .564705882352941 8
1 1 336 186 17 313 0 334 361 311 337 83 1 337 0 14 338 194 359 ?363 313 364 7 23
8 +0 0 363 313 9 15 339 197 0 365 313 0 17 340 0 314 366 400 153 490 367 0 425 -
17 341 0 289 374 315 85 84 122 0 502 -16 342 188 0 ?503 326 351 343 0 0 1 38 343
 189 0 342 352 327 0 +210 123 346 347 348 141 344 343 437 303 210 141 345 343 40
5 405 123 40 6 346 0 1 6 861697723144391e-20 .163520646237734 ??136674950706599e
-32 .006 -.0025 .000418216488982327 .00596526036455946 -.0024999999988001 .00071
197564242718 .00590059443048738 -.0024999999999362 .00101548579909146 .005801628
00785804 -.00249999999997942 .00130436156927603 .00568018456245065 -.00249999999
98243 .00144337567297314 .00561324865405263 -.0025000000000001 41 1 347 L1366749
50706599e-32 .006 -.0025 41 1 348 L.00144337567297314 .00561324865405263 -.00250
00000000001 17 349 0 265 290 316 375 449 376 0 517 -18 350 202 0 324 325 375 383
 ?1 16 351 190 0 ?416 342 367 352 0 0 1 38 352 191 0 351 368 343 0 +109 59 355 3
56 357 141 353 352 420 230 109 141 354 352 295 295 59 40 7 355 0 1 7 87405719341
5684e-20 .159578673532073 ??.00144337567207569 .00561324865451245 .0024999999999
8728 .00137549938437599 .00564658125112725 .00249999999999999 .00127276299992363
 .00569466122295871 .00249999999999982 .00111651355109746 .00576200757674816 .00
250000000000006 .000852227357174218 .00585873298050201 .00249999999999702 .00040
7682931611807 .0059669770289347 .00249999999991859 378233495364063e-32 .00600000
000000002 .00249999999999998 41 1 356 L.00144337567207569 .00561324865451245 .00
249999999998728 41 1 357 L378233495364063e-32 .00600000000000002 .00249999999999
998 29 358 203 0 325 383 333 .00288675134594813 -.00561324865405263 102003423007
326e-32 81 1 359 195 14 338 361 0 384 334 360 83 3 360 .564705882352941 .5647058
82352941 .564705882352941 81 1 361 196 17 338 0 359 386 336 362 83 1 362 0 14 36
3 204 384 ?388 338 389 7 109 +0 0 388 338 9 15 364 207 0 390 338 0 17 365 0 339
 391 425 392 476 393 0 477 -17 366 0 314 400 340 121 120 154 0 489 -16 367 198 0
 ?490 351 376 368 0 0 1 38 368 199 0 367 377 352 0 +219 155 371 372 373 141 369
 368 395 279 219 141 370 368 438 438 155 40 6 371 0 1 6 699622751646295e-20 .139
646897907185 ??-.0021650635094611 .006 -.00125 -.0019936372986892 .0059765999561
0777 -.00154691890654794 -.00179791641038693 .00589439297490428 -.00188591742941
822 -.00158488556540943 .00574383857746789 -.00225489767652808 -.001477882124276
39 .00564712898602082 -.00244023307284517 -.00144337567297461 .00561324865405263
 -.00249999999999925 41 1 372 L-.0021650635094611 .006 -.00125 41 1 373 L-.00144
337567297461 .00561324865405263 -.00249999999999925 17 374 0 289 315 341 401 502
 402 0 503 -18 375 212 0 349 350 392 409 ?1 16 376 200 0 ?449 367 393 377 0 0 1
 38 377 201 0 376 394 368 0 +183 87 380 381 382 141 378 377 185 294 183 141 379
 377 320 320 87 40 5 380 0 1 5 135107314911626e-19 .161120466486533 ??.002886751
34591326 .00561324865408711 600446572498299e-28 .0025757108765668 .0058685507718
5118 .000538737896145511 .00245608865345705 .00593313760944778 .0007459296628017
55 .00231718470594073 .00598155535918113 .000986518353334109 .0021650635094611 .
006 .00125 41 1 381 L.00288675134591326 .00561324865408711 600446572498299e-28 4
1 1 382 L.0021650635094611 .006 .00125 29 383 213 0 350 409 358 .001443375672974
06 .00561324865405262 .0025 81 1 384 205 14 363 386 0 410 359 385 83 3 385 .5647
05882352941 .564705882352941 .564705882352941 81 1 386 206 17 363 0 384 412 361
 387 83 1 387 0 14 388 214 410 ?414 363 415 7 183 +0 0 414 363 9 15 389 217 0 41
6 363 0 17 390 0 364 417 451 236 450 418 0 416 -17 391 0 339 425 365 192 477 426
 0 417 -18 392 222 0 365 375 401 433 ?1 16 393 208 0 ?476 376 402 394 0 0 1 38 3
94 209 0 393 403 377 0 +219 194 397 398 399 141 395 394 221 369 219 141 396 394
 429 429 194 40 5 397 0 1 5 13510731493994e-18 .161120466514554 ??-.002886751345
94775 .00561324865405263 -847654256530867e-30 -.00257571087656743 .0058685507718
5078 -.00053873789614442 -.00245608865345662 .00593313760944798 -.00074592966280
251 -.00231718470594088 .0059815553591811 -.000986518353333852 -.002165063509461
1 .006 -.00125 41 1 398 L-.00288675134594775 .00561324865405263 -847654256530867
e-30 41 1 399 L-.0021650635094611 .006 -.00125 17 400 0 314 340 366 434 489 435
 0 490 -18 401 225 0 374 392 434 442 ?1 16 402 210 0 ?502 393 418 403 0 0 1 38 4
03 211 0 402 419 394 0 +250 123 406 407 408 141 404 403 252 328 250 141 405 403
 345 345 123 40 5 406 0 1 5 13510731491162e-18 .161120466486531 ??.0014433756730
0863 .00561324865408711 -.00249999999993978 .00175441614232679 .0058685507718511
8 -.00196126210383798 .00187403836415121 .00593313760944778 -.00175407033643965
 .00201294230623249 .00598155536467637 -.00151348164212608 .0021650635094611 .00
6 -.00125 41 1 407 L.00144337567300863 .00561324865408711 -.00249999999993978 41
 1 408 L.0021650635094611 .006 -.00125 29 409 226 0 375 433 383 .002886751345948
13 .00561324865405263 163772416733744e-32 81 1 410 215 14 388 412 0 443 384 411
 83 3 411 .564705882352941 .564705882352941 .564705882352941 81 1 412 216 17 388
 0 410 445 386 413 83 1 413 0 14 414 227 443 ?447 388 448 7 142 +0 0 447 388 9 1
5 415 230 0 449 388 0 17 416 0 389 450 509 236 324 351 0 0 +17 417 0 364 451 390
 192 191 237 0 459 -16 418 218 0 ?450 402 426 419 0 0 1 38 419 219 0 418 427 403
 0 +109 238 422 423 424 141 420 419 111 353 109 141 421 419 466 466 238 40 5 422
 0 1 5 899124847813799e-20 .166989453599376 ??702888693265429e-32 .0060000000000
0002 .00249999999999998 -.000427514976970958 .00596370958784303 .002499999999923
95 -.000844339973885386 .00586126735129189 .00249999999998476 -.0012635646186826
6 .00569882247166404 .00249999999996434 -.00144337567297139 .00561324865405432 .
00250000000000013 41 1 423 L702888693265429e-32 .00600000000000002 .002499999999
99998 41 1 424 L-.00144337567297139 .00561324865405432 .00250000000000013 17 425
 0 339 365 391 153 152 193 0 476 -16 426 220 0 ?477 418 435 427 0 0 1 38 427 221
 0 426 436 419 0 +142 194 430 431 432 141 428 427 465 175 142 141 429 427 396 39
6 194 40 6 430 0 1 6 699622751243866e-20 .139646897870871 ??-.0021650635094611 .
006 .00125 -.00233648971998185 .00597659995611531 .000953081093371067 -.00253221
060842168 .00589439297495378 .000614082570718994 -.00274524145356974 .0057438385
7741973 .000245102323372715 -.0028522448948807 .00564712898553558 59766926127395
1e-19 -.00288675134511762 .00561324865488276 142573709598643e-26 41 1 431 L-.002
1650635094611 .006 .00125 41 1 432 L-.00288675134511762 .00561324865488276 14257
3709598643e-26 29 433 231 0 392 442 409 -.00288675134594813 .00561324865405263 -
955982181429987e-33 18 434 232 0 400 401 462 452 ?1 16 435 223 0 ?489 426 463 43
6 0 0 1 38 436 224 0 435 464 427 0 +210 155 439 440 441 141 437 436 212 344 210
 141 438 436 370 370 155 40 6 439 0 1 6 668053740637138e-20 .1259990239592 ??-.0
0144337567290463 .00561324865408711 -.00249999999999983 -.00102832578442404 .005
7967697251419 -.0024999999999998 -.000623730089313491 .00592336668888871 -.00249
999999952545 -.000401614217719463 .00596794668767319 -.0024999999996328 -.000135
80904873734 .00599631389792591 -.0025 136674950706599e-32 .006 -.0025 41 1 440 L
-.00144337567290463 .00561324865408711 -.00249999999999983 41 1 441 L13667495070
6599e-32 .006 -.0025 29 442 233 0 401 452 433 .00144337567297407 .00561324865405
263 -.0025 81 1 443 228 14 414 445 0 453 410 444 83 3 444 .564705882352941 .5647
05882352941 .564705882352941 81 1 445 229 17 414 0 443 455 412 446 83 1 446 0 14
 447 234 453 ?457 414 458 7 219 +0 0 457 414 9 15 448 237 0 459 414 0 17 449 0 4
15 460 523 57 349 376 0 0 +17 450 0 389 461 416 462 390 418 0 451 +17 451 0 364
 390 417 462 459 463 0 532 -29 452 240 0 434 482 442 -.00144337567297406 .005613
24865405263 -.0025 81 1 453 235 14 447 455 0 470 443 454 83 3 454 .5647058823529
41 .564705882352941 .564705882352941 81 1 455 236 17 447 0 453 472 445 456 83 1
 456 0 14 457 241 470 ?474 447 475 7 210 +0 0 474 447 9 15 458 244 0 476 447 0 1
7 459 0 448 477 532 192 451 463 0 0 +17 460 0 415 478 449 350 266 292 0 509 +17
 461 0 389 479 450 227 532 480 0 522 -18 462 247 0 450 434 0 482 ?1 16 463 238 0
 ?459 435 480 464 0 0 1 38 464 239 0 463 481 436 0 +142 238 467 468 469 141 465
 464 144 428 142 141 466 464 421 421 238 40 5 467 0 1 5 135107314906528e-19 .161
120466485678 ??-.00144337567300863 .00561324865408796 .00249999999993979 -.00175
441614232543 .00586855077185032 .00196126210384034 -.00187403836415011 .00593313
760944729 .00175407033644154 -.00201294230623186 .00598155536467622 .00151348164
212717 -.0021650635094611 .006 .00125 41 1 468 L-.00144337567300863 .00561324865
408796 .00249999999993979 41 1 469 L-.0021650635094611 .006 .00125 81 1 470 242
 14 457 472 0 483 453 471 83 3 471 .564705882352941 .564705882352941 .5647058823
52941 81 1 472 243 17 457 0 470 485 455 473 83 1 473 0 14 474 248 483 ?487 457 4
88 7 250 +0 0 487 457 9 15 475 251 0 489 457 0 17 476 0 458 490 538 153 365 393
 0 0 +17 477 0 448 491 459 392 391 426 0 538 +17 478 0 415 492 460 181 509 493 0
 495 -17 479 0 389 495 461 43 180 228 0 0 +16 480 245 0 ?532 463 493 481 0 0 1 3
0 481 246 0 480 494 464 0 +-.00144337567297407 -.00561324865405263 .0025 0 1 395
572365682905e-31 29 482 254 0 462 0 452 -.00144337567297407 .00561324865405432 .
0025 81 1 483 249 14 474 485 0 496 470 484 83 3 484 .564705882352941 .5647058823
52941 .564705882352941 81 1 485 250 17 474 0 483 498 472 486 83 1 486 0 14 487 2
55 496 ?500 474 501 7 70 +0 0 500 474 9 15 488 258 0 502 474 0 17 489 0 475 503
 540 121 400 435 0 0 +17 490 0 458 504 476 434 340 367 0 540 +17 491 0 448 505 4
77 172 538 506 0 531 -17 492 0 415 508 478 150 149 182 0 0 +16 493 252 0 ?509 48
0 506 494 0 0 1 30 494 253 0 493 507 481 0 +.00144337567297406 -.005613248654054
32 .0025 0 1 395572365682905e-31 17 495 0 389 509 479 181 78 108 0 0 +81 1 496 2
56 14 487 498 0 510 483 497 83 3 497 .564705882352941 .564705882352941 .56470588
2352941 81 1 498 257 17 487 0 496 512 485 499 83 1 499 0 14 500 261 510 ?0 487 5
14 7 81 -0 0 0 487 9 15 501 264 0 515 487 516 17 502 0 488 517 541 85 374 402 0
 0 +17 503 0 475 518 489 401 315 342 0 541 +17 504 0 458 519 490 276 540 520 0 5
37 -17 505 0 448 522 491 63 139 173 0 0 +16 506 259 0 ?538 493 520 507 0 0 1 30
 507 260 0 506 521 494 0 +-.00288675134594813 -.00561324865405263 -1328689460807
89e-32 0 1 925185853854297e-32 17 508 0 415 523 492 325 247 268 0 527 +17 509 0
 389 416 495 350 478 493 0 0 +81 1 510 262 14 500 512 0 0 496 511 83 3 511 .5647
05882352941 .564705882352941 .564705882352941 81 1 512 263 17 500 0 510 0 498 51
3 83 1 513 0 15 514 267 0 524 500 525 17 515 0 501 515 515 68 47 69 0 0 +15 516
 268 0 526 487 0 17 517 0 488 527 502 375 290 317 0 523 +17 518 0 475 528 503 30
0 541 529 0 539 -17 519 0 458 531 504 94 257 277 0 0 +16 520 265 0 ?540 506 529
 521 0 0 1 30 521 266 0 520 530 507 0 +-.00144337567297406 -.00561324865405263 -
.0025 0 1 395572365682964e-31 17 522 0 448 532 505 227 106 141 0 0 +17 523 0 415
 449 508 375 527 533 0 0 +17 524 0 514 524 524 90 61 91 0 0 -15 525 273 0 535 50
0 0 17 526 0 516 526 526 117 83 118 0 0 -17 527 0 488 536 517 325 523 533 0 0 -1
7 528 0 475 537 518 128 275 301 0 0 +16 529 269 0 ?541 520 533 530 0 0 1 30 530
 270 0 529 534 521 0 +.00144337567297407 -.00561324865405263 -.0025 0 1 39557236
5682964e-31 17 531 0 458 538 519 172 171 218 0 0 +17 532 0 448 459 522 462 461 4
80 0 0 +16 533 271 0 ?523 529 0 534 0 0 1 30 534 272 0 533 0 530 0 +.00288675134
594813 -.00561324865405263 133584579829248e-32 0 1 488090951068394e-31 17 535 0
 525 535 535 79 54 80 0 0 +17 536 0 488 539 527 159 299 326 0 0 +17 537 0 475 54
0 528 276 170 209 0 0 +17 538 0 458 476 531 392 491 506 0 0 +17 539 0 488 541 53
6 300 207 249 0 0 +17 540 0 475 489 537 434 504 520 0 0 +17 541 0 488 502 539 40
1 518 529 0 0 +1 0 