M48
;Layer_Color=9474304
;FILE_FORMAT=2:4
INCH,TZ
;TYPE=PLATED
T1F00S00C0.0118
T2F00S00C0.0350
T3F00S00C0.0354
T4F00S00C0.0500
T5F00S00C0.0790
T6F00S00C0.1220
;TYPE=NON_PLATED
T7F00S00C0.0354
T8F00S00C0.0472
T9F00S00C0.0669
%
T01
X33425Y33425
X34055Y33071
X34007Y34362
X34971Y34360
X35464Y34260
X35986Y34262
X35925Y33465
X35888Y32895
X36601Y33425
X37362
X38150
X38821Y33339
X39370Y34252
X39746Y34263
X40181Y35029
X40393Y35887
X40693Y36187
X40988Y37285
X41685Y37404
X41949Y37668
X42247Y38381
X42275Y38807
X42480Y39213
X42874Y39724
X43928Y39696
X44193Y39961
X44457Y40225
X44254Y38778
X43990Y38514
X44310Y37751
X44046Y37487
X43781Y37222
X43517Y36958
X43253Y36693
X42667Y37191
X42403Y36927
X42932Y37456
X43196Y37720
X42743Y38462
X43007Y38726
X40817Y38766
X40657Y39104
X40574Y39411
X40551Y39764
Y40157
X40453Y41043
X40159Y41910
X40176Y42739
Y43113
Y43487
Y43861
X40791Y43869
X40729Y43500
X39436Y43179
X38386Y43307
X37909Y43295
X37474Y43344
X37402Y43012
X37125Y43211
X36849Y43037
X36592Y43036
X36218Y43035
X36969Y43661
X37756
X36575Y44449
X35787
X35138Y43406
X34154
X32776Y43307
X32800Y44092
X32898Y41437
X34132Y41532
X34960Y41602
X35266Y41461
X36417Y41831
X36903Y41908
X37199Y41357
X37573
X37947
X38321
X38695
X39069
X38958Y40767
X38584
X38210
X37836
X37402Y40748
X37021Y40790
X36714Y40972
X36969Y38937
X37756
X38543
X39173Y39272
Y40256
X38937Y38150
X38150
X37362
X36969Y37362
X36181
X35925Y36319
X35405Y36593
X35091Y36794
X35039Y36417
X34615Y36596
X34299Y36795
X34252Y36417
X33953Y36653
X33819Y37362
X34606
Y38937
X34213Y39724
X33819Y40512
X34606
X32776Y38386
Y37402
Y36417
X33169
X32899Y34365
X37188Y35029
X37562
X38189Y34252
X39134Y35057
X41401Y34842
X41137Y34578
X42370Y34650
X42635Y35286
X43276Y35555
X43916Y35286
X44181Y34650
X43916Y34005
X43276Y33744
X42635Y34005
X44843Y34213
X43661Y41299
X42874
X42085Y41198
Y41572
Y40823
X42390Y42440
X42764
X43138
X43512
X43811Y42215
X44076Y41951
X44232Y42577
X43967Y42841
X43625Y42981
X43251
X42877
X42503
X42616Y43523
X42990
X43364
X43738
X44112
X43825Y44076
X43451
X43077
X42703
X42742Y44647
X43116
X43490
X43864
X43268Y42087
X38937Y44449
X38543Y37362
X37756
X38091Y36755
X37894Y36439
X37402
X36909Y36319
X40512Y38150
X45138Y38474
X44960Y39589
X45424Y40034
X47044Y40245
X46992Y39479
X46555Y39075
X46575Y37656
X45630Y37362
X46654Y36332
Y35884
X45236Y35000
X48228Y34941
Y34055
X49606Y33760
X50000Y33071
X49213
X50787
X51575
X52362
X53051
X53110Y33425
X53898
X56260
X58622
X59409
X59047Y35917
X59016Y38937
X58960Y39479
X59334
X59708
X60082
X60456
X60134Y40245
X59760
X59386
X59012
X58638
X58264
X57890
X57516
X57142
X56768
X56394
X56020
X55646
X55272
X54898
X54524
X54150
X53776
X53402
X53028
X52654
X52280
X52228Y39479
X52602
X52976
X53350
X53724
X54098
X54472
X54846
X55220
X55594
X55968
X56342
X56716
X57090
X57464
X57838
X58212
X58586
X58228Y38937
X57441
X56654
X55866
X55079
X54291
X53504
X52717
X51929
X51854Y39479
X50689Y39272
X50197
X49705
X49094Y39173
X49705Y38091
X50197
X50689
X51535Y38150
X52323
X53110
X53898
X53504Y37362
X52717
X51929
X50748Y36575
X49961
X49173
X48386
X49173Y35000
X54726Y35804
X54553Y36103
X54424Y41033
X54050
X53676
X53302
X53898Y41299
X54685
X54798Y41033
X55172
X55546
X55920
X56294
X56668
X57042
X57416
X57790
X58164
X58538
X58622Y41299
X58912Y41033
X59286
X59660
X60034
X60408
X60197Y41299
X59409
X59464Y42411
X59838
X59803Y42087
X60212Y42411
X60311Y42964
X59937
X59563
X59189
X58815
X58441
X58067
X57693
X57319
X56945
X56571
X56197
X55823
X55449
X55075
X54976Y42411
X55350
X55724
X56098
X56472
X56846
X57220
X57594
X57968
X58342
X58716
X59090
X59016Y42087
X58228
X57441
X56654
X55866
X55079
X54291
X54602Y42411
X53479
X53105
X52731
X52717Y42087
X52357Y42411
X51983
X51609
X51235
X50861
X50499Y42418
X50587Y42964
X50213
X49857Y42986
X49465
X49091
X49722Y43523
X50096
X50470
X50844
X51218
X51592
X51967
X52341
X52715
X53089
X53463
X53837
X54211
X54585
X54671Y44076
X54297
X53923
X53549
X53175
X52801
X52427
X52053
X51679
X51305
X50931
X50557
X50183
X50571Y44685
X51398
X52224
X52841Y44647
X53215
X53589
X53963
X54337
X54711
X55085
X55045Y44076
X56168
X56542
X56916
X57290
X57664
X58038
X58412
X58786
X59160
X59534
X59908
X60282
X60321Y44647
X59947
X59573
X59199
X58825
X58451
X58077
X57703
X57329
X56955
X56581
X56207
X56081Y43523
X56455
X56829
X57203
X57577
X57951
X58325
X58699
X59073
X59447
X59821
X60195
X55707
X53953Y42964
X53579
X53205
X52831
X52457
X52083
X51709
X51335
X50961
X51142Y42087
X51929
X51806Y41033
X51432
X51535Y41299
X51058Y41033
X50684
X51158Y40245
X52323Y41299
X49803Y41417
X49134
X48712Y41025
X47300Y41379
X46850Y41339
X46357Y42453
X46010
X46356Y43523
X46730
X47104
X47478
X47852
X48226
X48313Y44076
X47939
X47565
X47191
X46817
X46443
X46069
X45695
X46482Y44647
X46856
X47230
X47604
X47978
X48687Y44076
X47072Y43133
X59803Y38937
X60591
X60830Y39479
X61204
X61578
X61952
X62326
X62700
X63074
X63448
X63822
X64196
X63911Y39141
X63741Y38807
Y38433
X64663Y38415
X64776Y38771
X65040Y39036
X65315Y38937
X65304Y39300
X65453Y39862
X65800Y40057
X66064Y39792
X66329Y39528
X67011Y40056
X66746Y40321
X66482Y40585
X66217Y40850
X65889Y41028
X65644Y41033
X65270
X64896
X64522
X64148
X63774
X63400
X63026
X62652
X62559Y41299
X62278Y41033
X61904
X61530
X61156
X60782
X60984Y41299
X61772
X61708Y42411
X62082
X62456
X62830
X63204
X63578
X63952
X64326
X64700
X65074
X65448
X65822
X66196
X66570
X66944
X67318
X67692
X67677Y42087
X68066Y42411
X68440
X68465Y42087
X68814Y42411
X69188
X69562
X69936
X70310
X70684
X71058
X71432
X71806
X72180
X72554
X72402Y42087
X72732Y41974
X72748Y41601
X73009Y41332
X73104Y41033
X72730
X72356
X71982
X71608
X71234
X70860
X70486
X70112
X69738
X69646Y41299
X69365Y41008
X69072Y40775
X68808Y40511
X68544Y40247
X68279Y39982
X68015Y39718
X68012Y39173
X68002Y38524
X68066Y37625
X68440
X68778
X67692Y37698
X67318
X67540Y39528
X67275Y39792
X67677Y40512
X67283Y41299
X68071
X68858
X69252Y42087
X70039
X70827
X71614
X71532Y42964
X71158
X70784
X70410
X70036
X69661
X69287
X68913
X68539
X68165
X67791
X67417
X67043
X66669
X66295
X65921
X65547
X65173
X64799
X64425
X64051
X63677
X63303
X62929
X62555
X62181
X61807
X61433
X61059
X60685
X60586Y42411
X60591Y42087
X60960Y42411
X61334
X61378Y42087
X62165
X62953
X63740
X64528
X65315
X66102
X66890
X66496Y41299
X65867Y40654
X64996Y40245
X64622
X64248
X63874
X63500
X63126
X62752
X62378
X62004
X61630
X61256
X60882
X60508
X61378Y38937
X62165
X62953
X63696Y37241
X63696Y36940
X64034Y36921
X64370Y36909
X64709Y36921
X64713Y37252
X65012Y36026
X66102Y35787
X66890
X67677
X67283Y35000
X68071
X67677Y34213
X66900Y34132
X66633Y34416
X66373Y34646
X66496Y35000
X66124Y34880
X66084Y33404
X65709Y33425
X64921
X64134
X63346
X62559
X61772
Y35000
X62559
X63346
X62953Y35787
X63676Y35964
X64761Y34726
X65026Y34462
X65290Y34197
X64528Y34213
X66348Y33139
X66831Y33071
X67520
X67942Y33061
X68071Y33425
X67786Y33401
X67446Y33558
X68858Y33425
X69646
X70433
X71220
X72008
X72588Y34009
X73228Y33748
X73869Y34009
X74134Y34654
X73869Y35290
X73228Y35559
X72588Y35290
X72323Y34654
X71220Y35000
X70433
X70039Y34213
X69252
X70310Y37698
X70684
X71058
X71431Y37732
X71773Y37883
X72147
X72521
X72879Y37992
X73144Y38256
X73408Y38520
X73673Y38785
X72808Y39003
X72544Y38738
X73072Y39267
X72881Y40149
X73243Y40245
X73617
X73991
X74365
X74739
X75113
X75487
X75861
X75945Y41299
X75186Y41517
Y41891
Y42265
X75551Y42087
X74420Y41931
X74384Y41559
X74119Y41295
X73852Y41033
X73478
X73382Y41307
X73676Y41539
X73755Y41905
X73964Y42215
X73977Y42588
Y42962
X73674Y43443
X73750Y43770
X73641Y44127
X73751Y44543
X74420Y44549
Y44175
Y43801
X75186Y44135
Y44509
X72663Y44647
X72289
X71915
X71541
X71167
X70793
X70419
X70045
X69671
X69297
X68923
X68549
X68175
X67801
X67427
X67053
X66679
X66305
X65931
X65557
X65183
X64809
X64435
X64061
X63687
X63313
X62939
X62565
X62191
X61817
X61443
X61069
X60695
X60656Y44076
X61030
X61404
X61778
X62152
X62526
X62900
X63274
X63648
X64022
X64396
X64770
X65144
X65518
X65892
X66266
X66640
X67014
X67388
X67762
X68136
X68510
X68884
X69258
X69632
X70006
X70380
X70754
X71128
X71502
X71876
X72250
X72624
X72537Y43523
X72163
X71789
X71415
X71041
X70667
X70293
X69919
X69545
X69171
X68797
X68423
X68049
X67675
X67301
X66927
X66553
X66179
X65805
X65431
X65057
X64683
X64309
X63935
X63561
X63187
X62813
X62439
X62065
X61691
X61317
X60943
X60569
X60984Y35000
X69988Y38469
X69989Y38799
X69646Y39724
X69206Y39826
X69471Y40091
X69801Y40267
X70175
X70549
X70923
X71297
X71671
X72045
X72419
X72614Y39887
X72349Y39623
X72008Y39724
X72085Y39359
X71820Y39094
X71448Y39062
X71470Y38266
X71220Y39724
X70433
X68942Y39562
X71906Y42964
X72280
X72654
X72972Y42261
X75070Y41162
X74805Y40897
X74541Y40633
X74460Y38110
X74086Y38112
X74831Y38066
X75028Y38316
X76015Y38170
X75750Y37905
X75705Y38974
X74644Y37123
X74277Y37195
X73754Y37552
X75565Y35154
X75939Y35160
X75551Y34213
X74764
X74803Y33071
X75492
X75157Y33425
X74370
X75945
X76732
X77520
X77126Y34213
X76339
X76310Y35108
X76684Y35109
X76900Y35413
X77126Y35787
X76763Y36135
X77520Y36575
Y38150
X77841Y38422
X78106Y38686
X78387Y38932
X78701Y38937
X80276
X81063
X80669Y38150
X79882
X80276Y37362
X81063
X80669Y36575
X79882
X79488Y35787
X80276
X81063
X80669Y35000
X79882
X79095
X79488Y34213
X80276
X81063
X80669Y33425
X79882
X78701Y35787
X79882Y39724
X80276Y40512
X77913
X77799Y40157
X77425
X77051Y40144
X77126Y40512
X76729Y40333
X76220Y40350
X76732Y41299
X76339Y42087
Y43661
X77913
X78701
X78307Y42874
X77520
X77913Y42087
X78701
X79424Y42620
X80669Y42874
X81063Y43661
X80315Y43996
X78307Y44449
X77520
X76732Y46024
Y47598
X77520
X78307
X79095
X79488Y46811
X79882Y46024
X80669
X81063Y46811
X80669Y47598
X80276Y48386
X79488
X79882Y49173
X80669
X80276Y49961
X79488
X78701
X77913
X77126
X76339
X76310Y50462
X76684Y50463
X76900Y50768
Y51142
X76763Y51490
X76382Y51507
X77126Y51535
X77913
X78701
X79488
X80276
X81063
X80669Y50748
X79882
X79095
Y52323
X79882
X80669
X80276Y53110
X79488
X81063
Y49961
Y48386
X77126
X76339
X77520Y50748
Y52323
X76339Y53110
X79488Y45236
X75186Y45257
Y44883
X74420Y44923
Y45298
X73976Y45236
X73661Y45280
X73291Y45329
X72917Y45327
X72706Y45018
X72402Y45236
X71614
X70827
X70039
X69252
X68465
X67677
X66890
X66102
X65315
X64528
X63740
X62953
X62165
X61378
X60984Y46024
X62559
X63346
X64134
X64921
X65709
X66496
X67283
X68071Y47598
X69252Y46811
X70039
X70827
X71614
X72402
X73189
X73521Y47198
X73754Y46964
X73256Y47462
X73327Y47884
X72985Y47720
X72944Y48091
X72918Y48653
X72917Y48989
X73120Y49303
X73494Y49307
X73867Y49343
X74239Y49376
X74607Y49309
X74620Y49683
Y50057
X74817Y50511
X75191Y50506
X75565Y50509
X75939Y50515
X75774Y49956
X75773Y49582
X75640Y49232
X75945Y49173
X75655Y48859
X75181Y48459
X74812Y48518
X74443Y48459
X74069
X73736Y48430
X73745Y48056
X74538Y47331
X75551Y46811
X75186Y46379
X73583Y46024
X73751Y44917
X72008Y47598
X71220
X70433
X70827Y48386
X71614
X72402
X72008Y49173
X71220
X70433
X70827Y49961
X71614
X72402
X73189
X73976
X73869Y51328
X74620Y51203
Y50829
X74889Y51463
X75263
X75637Y51445
X76008Y51493
X75157Y52323
X74764Y53110
X75551
X73869Y52609
X74134Y51972
X73228Y51067
X72588Y51328
X72323Y51972
X72588Y52609
X72402Y53110
X71614
X70827
X70433Y52323
X71220
X70827Y51535
X71614
X72008Y50748
X71220
X70433
X69646
X69252Y49961
X68071Y50748
Y52323
X67677Y53110
X68465
X66890Y51535
X66102
X65315
X64528
X63740
X63346Y50748
X62559
X61772
Y52323
X62559
X63346
X64134
X64921
X65709
X65315Y53110
X64528
X63740
X62953
X62165
X61378
X60591
X60984Y52323
X64134Y50748
X64921
X65709
X66496
X66102Y49961
X65315
X64528
X63740
X63346Y49173
X62953Y48386
X62165
X60984Y47598
X64921Y49173
X65709
X66890Y49961
X73228Y52878
X75945Y47598
X60197Y46024
X59409
X58622
X57835
X57047
X56260
X56004Y45571
X56201Y45276
X54291Y45236
X53504
X53110Y46024
X53898
X52717Y46811
X52224Y46457
X51398
X50610
Y45591
X51398
X52224
X49961Y46024
X49409Y46968
Y49213
X49567Y49961
X48780
X47992
X46518Y50191
Y50591
Y50991
X46018
Y50591
Y50197
X45518Y50191
Y50591
Y50991
X45768Y49016
X46268Y49022
X47205Y46811
X46811Y46024
X47598
X47441Y51772
X47598Y52323
X48386
X49796Y51484
X50163Y51738
X50897Y52261
X50895Y52648
X52100Y52557
X52500
X52900
Y52057
X52500
X52106
X52100Y51557
X52500
X52900
X54111Y51681
X54482Y52131
X54128Y52651
X55118Y53543
X55906
X56693
X57480
X57441Y53110
X58228
X59016
X59803
X59409Y52323
X58622
X57835
X57047
X56260
X55866Y51535
X56654
X57441
X58228
X59016
X59803
X59409Y50748
X58622
X60197
Y49173
X59637Y49422
X58957Y49409
X57835Y49173
X55472Y50748
X54685
X53381Y50641
X53325Y50020
X53898Y49173
X51181Y48819
X51142Y49961
X51535Y50748
X55079Y46811
X60197Y52323
X44843Y51535
X44181Y51972
X43916Y52609
X43276Y52878
X42635Y52609
X42370Y51972
X42635Y51328
X43276Y51067
X43916Y51328
X44449Y50748
X44843Y49961
X43014Y49451
X42635Y49454
X42705Y48917
X42474Y48685
X42556Y47715
X42913Y47736
X43225Y47780
X43543Y47717
X43268Y46811
X43543Y46220
X44094
X42874Y46024
X43268Y45236
X43858Y44996
X39331Y45236
X39081Y46857
X38681Y46850
X38287
X37992Y47119
X36533Y46495
X36543Y46039
X36181Y45236
X35630Y46654
Y47047
X35787Y47598
Y49173
X34213
X33819Y48386
X34154Y48032
Y47343
X33661Y46457
X32776Y46260
Y47244
X33031Y48386
X31850Y49173
Y50748
X31063
X30276
X30669Y49961
Y51535
X31850Y52323
X33819Y53110
X34606
X34843Y53543
X35394Y53110
X36575Y52323
X36181Y51535
X36575Y50748
X36969Y49961
X41299Y52323
X34154Y45079
X32776Y45276
T02
X41339Y36807
Y37807
Y38807
Y39807
Y40807
Y41807
Y42807
Y43807
Y44807
X73228
Y43807
Y42807
Y41807
X76378Y36630
Y35630
Y50984
Y51984
X41339Y49807
Y48807
Y47807
Y46807
Y45807
T03
X43858Y45556
T04
X45472Y43110
Y45110
T05
X78378Y33630
Y37630
Y48984
Y52984
T06
X43276Y34646
X73228
Y51968
X43276
T07
X31752Y49921
Y51654
T08
X58071Y33740
X60039
T09
X76968Y43307
X79724
X68110Y49016
Y51772
M30
