G04*
G04 #@! TF.GenerationSoftware,Altium Limited,Altium Designer,21.1.1 (26)*
G04*
G04 Layer_Color=8388736*
%FSLAX25Y25*%
%MOIN*%
G70*
G04*
G04 #@! TF.SameCoordinates,699B9FA1-69CE-4F8E-812B-AA759A78C5B1*
G04*
G04*
G04 #@! TF.FilePolarity,Negative*
G04*
G01*
G75*
%ADD82R,0.04540X0.04147*%
%ADD83R,0.04934X0.04934*%
%ADD84R,0.04343X0.08674*%
%ADD85R,0.04343X0.08674*%
%ADD86R,0.08674X0.04343*%
%ADD87R,0.08674X0.04343*%
G04:AMPARAMS|DCode=88|XSize=86.74mil|YSize=106.42mil|CornerRadius=23.68mil|HoleSize=0mil|Usage=FLASHONLY|Rotation=90.000|XOffset=0mil|YOffset=0mil|HoleType=Round|Shape=RoundedRectangle|*
%AMROUNDEDRECTD88*
21,1,0.08674,0.05906,0,0,90.0*
21,1,0.03937,0.10642,0,0,90.0*
1,1,0.04737,0.02953,0.01968*
1,1,0.04737,0.02953,-0.01968*
1,1,0.04737,-0.02953,-0.01968*
1,1,0.04737,-0.02953,0.01968*
%
%ADD88ROUNDEDRECTD88*%
%ADD89R,0.09658X0.02769*%
G04:AMPARAMS|DCode=90|XSize=31.62mil|YSize=55.24mil|CornerRadius=9.91mil|HoleSize=0mil|Usage=FLASHONLY|Rotation=90.000|XOffset=0mil|YOffset=0mil|HoleType=Round|Shape=RoundedRectangle|*
%AMROUNDEDRECTD90*
21,1,0.03162,0.03543,0,0,90.0*
21,1,0.01181,0.05524,0,0,90.0*
1,1,0.01981,0.01772,0.00591*
1,1,0.01981,0.01772,-0.00591*
1,1,0.01981,-0.01772,-0.00591*
1,1,0.01981,-0.01772,0.00591*
%
%ADD90ROUNDEDRECTD90*%
%ADD91R,0.05524X0.03162*%
%ADD92C,0.07874*%
%ADD93R,0.14580X0.08674*%
%ADD94O,0.02400X0.06312*%
G04:AMPARAMS|DCode=95|XSize=236.35mil|YSize=252.1mil|CornerRadius=21.13mil|HoleSize=0mil|Usage=FLASHONLY|Rotation=180.000|XOffset=0mil|YOffset=0mil|HoleType=Round|Shape=RoundedRectangle|*
%AMROUNDEDRECTD95*
21,1,0.23635,0.20984,0,0,180.0*
21,1,0.19410,0.25210,0,0,180.0*
1,1,0.04225,-0.09705,0.10492*
1,1,0.04225,0.09705,0.10492*
1,1,0.04225,0.09705,-0.10492*
1,1,0.04225,-0.09705,-0.10492*
%
%ADD95ROUNDEDRECTD95*%
%ADD96R,0.07099X0.12611*%
%ADD97R,0.03162X0.03556*%
%ADD98R,0.07099X0.07099*%
%ADD99R,0.08280X0.07887*%
G04:AMPARAMS|DCode=100|XSize=90.68mil|YSize=63.12mil|CornerRadius=17.78mil|HoleSize=0mil|Usage=FLASHONLY|Rotation=0.000|XOffset=0mil|YOffset=0mil|HoleType=Round|Shape=RoundedRectangle|*
%AMROUNDEDRECTD100*
21,1,0.09068,0.02756,0,0,0.0*
21,1,0.05512,0.06312,0,0,0.0*
1,1,0.03556,0.02756,-0.01378*
1,1,0.03556,-0.02756,-0.01378*
1,1,0.03556,-0.02756,0.01378*
1,1,0.03556,0.02756,0.01378*
%
%ADD100ROUNDEDRECTD100*%
G04:AMPARAMS|DCode=101|XSize=34mil|YSize=48mil|CornerRadius=10.5mil|HoleSize=0mil|Usage=FLASHONLY|Rotation=180.000|XOffset=0mil|YOffset=0mil|HoleType=Round|Shape=RoundedRectangle|*
%AMROUNDEDRECTD101*
21,1,0.03400,0.02700,0,0,180.0*
21,1,0.01300,0.04800,0,0,180.0*
1,1,0.02100,-0.00650,0.01350*
1,1,0.02100,0.00650,0.01350*
1,1,0.02100,0.00650,-0.01350*
1,1,0.02100,-0.00650,-0.01350*
%
%ADD101ROUNDEDRECTD101*%
%ADD102R,0.03400X0.04800*%
%ADD103R,0.04343X0.03556*%
G04:AMPARAMS|DCode=104|XSize=35.56mil|YSize=43.43mil|CornerRadius=10.89mil|HoleSize=0mil|Usage=FLASHONLY|Rotation=90.000|XOffset=0mil|YOffset=0mil|HoleType=Round|Shape=RoundedRectangle|*
%AMROUNDEDRECTD104*
21,1,0.03556,0.02165,0,0,90.0*
21,1,0.01378,0.04343,0,0,90.0*
1,1,0.02178,0.01083,0.00689*
1,1,0.02178,0.01083,-0.00689*
1,1,0.02178,-0.01083,-0.00689*
1,1,0.02178,-0.01083,0.00689*
%
%ADD104ROUNDEDRECTD104*%
G04:AMPARAMS|DCode=105|XSize=31.62mil|YSize=47.37mil|CornerRadius=9.91mil|HoleSize=0mil|Usage=FLASHONLY|Rotation=270.000|XOffset=0mil|YOffset=0mil|HoleType=Round|Shape=RoundedRectangle|*
%AMROUNDEDRECTD105*
21,1,0.03162,0.02756,0,0,270.0*
21,1,0.01181,0.04737,0,0,270.0*
1,1,0.01981,-0.01378,-0.00591*
1,1,0.01981,-0.01378,0.00591*
1,1,0.01981,0.01378,0.00591*
1,1,0.01981,0.01378,-0.00591*
%
%ADD105ROUNDEDRECTD105*%
%ADD106R,0.04737X0.03162*%
%ADD107R,0.14816X0.10800*%
%ADD108O,0.03162X0.06902*%
G04:AMPARAMS|DCode=109|XSize=24.14mil|YSize=57.21mil|CornerRadius=8.04mil|HoleSize=0mil|Usage=FLASHONLY|Rotation=270.000|XOffset=0mil|YOffset=0mil|HoleType=Round|Shape=RoundedRectangle|*
%AMROUNDEDRECTD109*
21,1,0.02414,0.04114,0,0,270.0*
21,1,0.00807,0.05721,0,0,270.0*
1,1,0.01607,-0.02057,-0.00404*
1,1,0.01607,-0.02057,0.00404*
1,1,0.01607,0.02057,0.00404*
1,1,0.01607,0.02057,-0.00404*
%
%ADD109ROUNDEDRECTD109*%
%ADD110R,0.12375X0.14895*%
%ADD111O,0.02965X0.08477*%
%ADD112O,0.06509X0.03162*%
%ADD113R,0.05524X0.05524*%
%ADD114R,0.05524X0.05524*%
%ADD115R,0.06115X0.05328*%
%ADD116R,0.05918X0.06312*%
%ADD117O,0.03162X0.06509*%
%ADD118R,0.07887X0.05918*%
%ADD119R,0.04737X0.04343*%
%ADD120R,0.07296X0.05524*%
%ADD121R,0.06312X0.05918*%
G04:AMPARAMS|DCode=122|XSize=31.62mil|YSize=51.31mil|CornerRadius=4.12mil|HoleSize=0mil|Usage=FLASHONLY|Rotation=0.000|XOffset=0mil|YOffset=0mil|HoleType=Round|Shape=RoundedRectangle|*
%AMROUNDEDRECTD122*
21,1,0.03162,0.04307,0,0,0.0*
21,1,0.02339,0.05131,0,0,0.0*
1,1,0.00824,0.01169,-0.02153*
1,1,0.00824,-0.01169,-0.02153*
1,1,0.00824,-0.01169,0.02153*
1,1,0.00824,0.01169,0.02153*
%
%ADD122ROUNDEDRECTD122*%
%ADD123O,0.06115X0.02276*%
%ADD124R,0.11824X0.09461*%
G04:AMPARAMS|DCode=125|XSize=94.61mil|YSize=118.24mil|CornerRadius=25.65mil|HoleSize=0mil|Usage=FLASHONLY|Rotation=270.000|XOffset=0mil|YOffset=0mil|HoleType=Round|Shape=RoundedRectangle|*
%AMROUNDEDRECTD125*
21,1,0.09461,0.06693,0,0,270.0*
21,1,0.04331,0.11824,0,0,270.0*
1,1,0.05131,-0.03347,-0.02165*
1,1,0.05131,-0.03347,0.02165*
1,1,0.05131,0.03347,0.02165*
1,1,0.05131,0.03347,-0.02165*
%
%ADD125ROUNDEDRECTD125*%
G04:AMPARAMS|DCode=126|XSize=118.24mil|YSize=118.24mil|CornerRadius=31.56mil|HoleSize=0mil|Usage=FLASHONLY|Rotation=270.000|XOffset=0mil|YOffset=0mil|HoleType=Round|Shape=RoundedRectangle|*
%AMROUNDEDRECTD126*
21,1,0.11824,0.05512,0,0,270.0*
21,1,0.05512,0.11824,0,0,270.0*
1,1,0.06312,-0.02756,-0.02756*
1,1,0.06312,-0.02756,0.02756*
1,1,0.06312,0.02756,0.02756*
1,1,0.06312,0.02756,-0.02756*
%
%ADD126ROUNDEDRECTD126*%
G04:AMPARAMS|DCode=127|XSize=110.36mil|YSize=118.24mil|CornerRadius=29.59mil|HoleSize=0mil|Usage=FLASHONLY|Rotation=270.000|XOffset=0mil|YOffset=0mil|HoleType=Round|Shape=RoundedRectangle|*
%AMROUNDEDRECTD127*
21,1,0.11036,0.05906,0,0,270.0*
21,1,0.05118,0.11824,0,0,270.0*
1,1,0.05918,-0.02953,-0.02559*
1,1,0.05918,-0.02953,0.02559*
1,1,0.05918,0.02953,0.02559*
1,1,0.05918,0.02953,-0.02559*
%
%ADD127ROUNDEDRECTD127*%
%ADD128R,0.04147X0.04540*%
G04:AMPARAMS|DCode=129|XSize=94.61mil|YSize=118.24mil|CornerRadius=25.65mil|HoleSize=0mil|Usage=FLASHONLY|Rotation=180.000|XOffset=0mil|YOffset=0mil|HoleType=Round|Shape=RoundedRectangle|*
%AMROUNDEDRECTD129*
21,1,0.09461,0.06693,0,0,180.0*
21,1,0.04331,0.11824,0,0,180.0*
1,1,0.05131,-0.02165,0.03347*
1,1,0.05131,0.02165,0.03347*
1,1,0.05131,0.02165,-0.03347*
1,1,0.05131,-0.02165,-0.03347*
%
%ADD129ROUNDEDRECTD129*%
G04:AMPARAMS|DCode=130|XSize=110.36mil|YSize=118.24mil|CornerRadius=29.59mil|HoleSize=0mil|Usage=FLASHONLY|Rotation=180.000|XOffset=0mil|YOffset=0mil|HoleType=Round|Shape=RoundedRectangle|*
%AMROUNDEDRECTD130*
21,1,0.11036,0.05906,0,0,180.0*
21,1,0.05118,0.11824,0,0,180.0*
1,1,0.05918,-0.02559,0.02953*
1,1,0.05918,0.02559,0.02953*
1,1,0.05918,0.02559,-0.02953*
1,1,0.05918,-0.02559,-0.02953*
%
%ADD130ROUNDEDRECTD130*%
G04:AMPARAMS|DCode=131|XSize=118.24mil|YSize=118.24mil|CornerRadius=31.56mil|HoleSize=0mil|Usage=FLASHONLY|Rotation=180.000|XOffset=0mil|YOffset=0mil|HoleType=Round|Shape=RoundedRectangle|*
%AMROUNDEDRECTD131*
21,1,0.11824,0.05512,0,0,180.0*
21,1,0.05512,0.11824,0,0,180.0*
1,1,0.06312,-0.02756,0.02756*
1,1,0.06312,0.02756,0.02756*
1,1,0.06312,0.02756,-0.02756*
1,1,0.06312,-0.02756,-0.02756*
%
%ADD131ROUNDEDRECTD131*%
%ADD132R,0.09461X0.11824*%
%ADD133R,0.05328X0.06115*%
%ADD134R,0.04343X0.04737*%
%ADD135C,0.23622*%
%ADD136R,0.06800X0.06800*%
%ADD137C,0.06800*%
%ADD138R,0.05724X0.05724*%
%ADD139O,0.05724X0.04543*%
G04:AMPARAMS|DCode=140|XSize=128mil|YSize=128mil|CornerRadius=34mil|HoleSize=0mil|Usage=FLASHONLY|Rotation=270.000|XOffset=0mil|YOffset=0mil|HoleType=Round|Shape=RoundedRectangle|*
%AMROUNDEDRECTD140*
21,1,0.12800,0.06000,0,0,270.0*
21,1,0.06000,0.12800,0,0,270.0*
1,1,0.06800,-0.03000,-0.03000*
1,1,0.06800,-0.03000,0.03000*
1,1,0.06800,0.03000,0.03000*
1,1,0.06800,0.03000,-0.03000*
%
%ADD140ROUNDEDRECTD140*%
%ADD141C,0.11000*%
%ADD142R,0.10000X0.10000*%
%ADD143C,0.04343*%
%ADD144C,0.05524*%
%ADD145C,0.04800*%
%ADD146C,0.07493*%
D82*
X725394Y365945D02*
D03*
Y371063D02*
D03*
X698819Y479134D02*
D03*
Y484252D02*
D03*
X733218Y371162D02*
D03*
Y366044D02*
D03*
X733268Y484055D02*
D03*
Y489173D02*
D03*
X780512Y397736D02*
D03*
Y392618D02*
D03*
X616142Y493898D02*
D03*
Y499016D02*
D03*
Y472441D02*
D03*
Y467323D02*
D03*
X475394Y491142D02*
D03*
Y496260D02*
D03*
X485827Y453543D02*
D03*
Y448425D02*
D03*
X498032Y506693D02*
D03*
Y511811D02*
D03*
X504921Y524409D02*
D03*
Y529528D02*
D03*
X504724Y506693D02*
D03*
Y511811D02*
D03*
X413386Y507874D02*
D03*
Y512992D02*
D03*
X447835Y463386D02*
D03*
Y468504D02*
D03*
X400591Y486024D02*
D03*
Y491142D02*
D03*
X393701Y486024D02*
D03*
Y491142D02*
D03*
X379921Y486024D02*
D03*
Y491142D02*
D03*
X386811Y486024D02*
D03*
Y491142D02*
D03*
D83*
X358048Y393643D02*
D03*
X352068D02*
D03*
X363998D02*
D03*
X352068Y387644D02*
D03*
X358048D02*
D03*
X363998D02*
D03*
Y381593D02*
D03*
X358048D02*
D03*
X352068D02*
D03*
D84*
X329051Y357283D02*
D03*
Y424213D02*
D03*
D85*
X334051Y357283D02*
D03*
X339052D02*
D03*
X344052D02*
D03*
X349051D02*
D03*
X354051D02*
D03*
X359071D02*
D03*
X364091D02*
D03*
X369091D02*
D03*
X374091D02*
D03*
X384091D02*
D03*
X379091D02*
D03*
X389071D02*
D03*
X394052D02*
D03*
X374091Y424213D02*
D03*
X334051D02*
D03*
X339052D02*
D03*
X344052D02*
D03*
X349051D02*
D03*
X354051D02*
D03*
X359071D02*
D03*
X364091D02*
D03*
X369091D02*
D03*
X379091D02*
D03*
X384091D02*
D03*
X389071D02*
D03*
X394052D02*
D03*
D86*
X398268Y413134D02*
D03*
Y408134D02*
D03*
Y403134D02*
D03*
Y398114D02*
D03*
Y393114D02*
D03*
Y388134D02*
D03*
Y383134D02*
D03*
Y378134D02*
D03*
Y373134D02*
D03*
D87*
Y368134D02*
D03*
D88*
X327681Y490354D02*
D03*
X306224D02*
D03*
Y525394D02*
D03*
X327681D02*
D03*
D89*
X328055Y501575D02*
D03*
Y504724D02*
D03*
Y514173D02*
D03*
Y511024D02*
D03*
Y507874D02*
D03*
D90*
X354672Y504921D02*
D03*
Y501181D02*
D03*
Y497441D02*
D03*
X345472D02*
D03*
Y501181D02*
D03*
D91*
Y504921D02*
D03*
D92*
X549213Y332677D02*
D03*
X316929Y533465D02*
D03*
X812992Y474409D02*
D03*
D93*
X501575Y399606D02*
D03*
Y386120D02*
D03*
D94*
X489370Y490158D02*
D03*
X486811D02*
D03*
X484252D02*
D03*
X481693D02*
D03*
X489370Y466929D02*
D03*
X486811D02*
D03*
X484252D02*
D03*
X481693D02*
D03*
D95*
X513976Y455905D02*
D03*
D96*
X504921Y484252D02*
D03*
X523032D02*
D03*
D97*
X465748Y372047D02*
D03*
X473228D02*
D03*
X469488Y379921D02*
D03*
X563779Y473425D02*
D03*
X556299D02*
D03*
X560039Y465551D02*
D03*
X337598Y468504D02*
D03*
X341339Y460630D02*
D03*
X333858D02*
D03*
X337598Y446850D02*
D03*
X333858Y454724D02*
D03*
X341339D02*
D03*
D98*
X611811Y333465D02*
D03*
X569291D02*
D03*
D99*
X600394Y352362D02*
D03*
X590551D02*
D03*
X580709D02*
D03*
D100*
X404948Y342520D02*
D03*
X375148D02*
D03*
X630633D02*
D03*
X660433D02*
D03*
X683783D02*
D03*
X713583D02*
D03*
D101*
X494291Y419488D02*
D03*
X501772D02*
D03*
Y409252D02*
D03*
X498032D02*
D03*
D102*
X494291D02*
D03*
D103*
X684055Y369488D02*
D03*
D104*
Y364370D02*
D03*
X691534Y369488D02*
D03*
Y364370D02*
D03*
D105*
X458661Y478740D02*
D03*
Y482480D02*
D03*
Y486221D02*
D03*
X469488D02*
D03*
Y482480D02*
D03*
D106*
Y478740D02*
D03*
D107*
X460177Y505905D02*
D03*
D108*
X467677Y494291D02*
D03*
X462677D02*
D03*
X457677D02*
D03*
X452677D02*
D03*
Y517520D02*
D03*
X457677D02*
D03*
X462677D02*
D03*
X467677D02*
D03*
D109*
X513779Y511614D02*
D03*
X536221D02*
D03*
Y514173D02*
D03*
Y516732D02*
D03*
Y519291D02*
D03*
Y521850D02*
D03*
Y524409D02*
D03*
Y526968D02*
D03*
Y529528D02*
D03*
X513779Y514173D02*
D03*
Y516732D02*
D03*
Y519291D02*
D03*
Y521850D02*
D03*
Y524409D02*
D03*
Y526968D02*
D03*
Y529528D02*
D03*
D110*
X525000Y520571D02*
D03*
D111*
X451693Y400394D02*
D03*
X456693D02*
D03*
X461693D02*
D03*
X466693D02*
D03*
Y419291D02*
D03*
X461693D02*
D03*
X456693D02*
D03*
X451693D02*
D03*
D112*
X370965Y454941D02*
D03*
Y459941D02*
D03*
Y464941D02*
D03*
Y469941D02*
D03*
Y474941D02*
D03*
Y479941D02*
D03*
Y484941D02*
D03*
Y489941D02*
D03*
X349508Y454941D02*
D03*
Y459941D02*
D03*
Y464941D02*
D03*
Y469941D02*
D03*
Y474941D02*
D03*
Y479941D02*
D03*
Y484941D02*
D03*
Y489941D02*
D03*
D113*
X396654Y511417D02*
D03*
Y519685D02*
D03*
X388779D02*
D03*
Y511417D02*
D03*
X751968Y477913D02*
D03*
X404528Y519685D02*
D03*
Y511417D02*
D03*
X380906Y519685D02*
D03*
Y511417D02*
D03*
X373031D02*
D03*
Y519685D02*
D03*
X465118Y349410D02*
D03*
X476378Y340551D02*
D03*
X490158Y515551D02*
D03*
Y507283D02*
D03*
X742126Y489173D02*
D03*
X751968Y387795D02*
D03*
X742126Y376535D02*
D03*
X482283Y507283D02*
D03*
Y515551D02*
D03*
D114*
X751968Y489173D02*
D03*
X476378Y349410D02*
D03*
X465118Y340551D02*
D03*
X742126Y477913D02*
D03*
X751968Y376535D02*
D03*
X742126Y387795D02*
D03*
D115*
X684055Y384842D02*
D03*
Y391732D02*
D03*
X763779Y392126D02*
D03*
Y399016D02*
D03*
X482283Y369783D02*
D03*
Y376673D02*
D03*
D116*
X606890Y512795D02*
D03*
X613189D02*
D03*
X329528Y347441D02*
D03*
X335827D02*
D03*
X349803Y513779D02*
D03*
X343504D02*
D03*
X349803Y522638D02*
D03*
X343504D02*
D03*
X329528Y339567D02*
D03*
X335827D02*
D03*
X741425Y459382D02*
D03*
X747724D02*
D03*
X789567Y467520D02*
D03*
X783268D02*
D03*
X654921Y354331D02*
D03*
X648622D02*
D03*
X694291D02*
D03*
X687992D02*
D03*
X608661Y468504D02*
D03*
X602362D02*
D03*
X462008Y471457D02*
D03*
X455709D02*
D03*
X462008Y463583D02*
D03*
X455709D02*
D03*
X482283Y384646D02*
D03*
X488583D02*
D03*
X458268Y526378D02*
D03*
X451968D02*
D03*
X477165Y428346D02*
D03*
X483465D02*
D03*
X552953Y359252D02*
D03*
X559252D02*
D03*
X350590Y339567D02*
D03*
X344291D02*
D03*
X350590Y347441D02*
D03*
X344291D02*
D03*
X365354D02*
D03*
X359055D02*
D03*
X365354Y339567D02*
D03*
X359055D02*
D03*
D117*
X606260Y500197D02*
D03*
X601260D02*
D03*
X596260D02*
D03*
X591260D02*
D03*
X586260D02*
D03*
X581260D02*
D03*
X576260D02*
D03*
X571260D02*
D03*
X606260Y478740D02*
D03*
X601260D02*
D03*
X596260D02*
D03*
X591260D02*
D03*
X586260D02*
D03*
X581260D02*
D03*
X576260D02*
D03*
X571260D02*
D03*
D118*
X751968Y509842D02*
D03*
Y498425D02*
D03*
Y367717D02*
D03*
Y356299D02*
D03*
D119*
X676181Y385433D02*
D03*
Y390748D02*
D03*
X771654Y392126D02*
D03*
Y397441D02*
D03*
D120*
X475394Y419291D02*
D03*
Y408268D02*
D03*
D121*
X775591Y450787D02*
D03*
Y457087D02*
D03*
X668307Y383465D02*
D03*
Y389764D02*
D03*
X659449D02*
D03*
Y383465D02*
D03*
X676181Y365158D02*
D03*
Y371457D02*
D03*
X668307Y365158D02*
D03*
Y371457D02*
D03*
X700787Y365158D02*
D03*
Y371457D02*
D03*
X708661Y365158D02*
D03*
Y371457D02*
D03*
X716535Y365158D02*
D03*
Y371457D02*
D03*
X698819Y498425D02*
D03*
Y492126D02*
D03*
X548032Y493898D02*
D03*
Y500197D02*
D03*
X555905Y493898D02*
D03*
Y500197D02*
D03*
X563779Y493898D02*
D03*
Y500197D02*
D03*
X622047Y519095D02*
D03*
Y512795D02*
D03*
X629921Y519095D02*
D03*
Y512795D02*
D03*
X616142Y479921D02*
D03*
Y486221D02*
D03*
X437992Y498032D02*
D03*
Y491732D02*
D03*
X498032Y376378D02*
D03*
Y370079D02*
D03*
X490158Y376378D02*
D03*
Y370079D02*
D03*
X505905Y376378D02*
D03*
Y370079D02*
D03*
X381890Y455315D02*
D03*
Y461614D02*
D03*
D122*
X790158Y449409D02*
D03*
X786417D02*
D03*
X782677D02*
D03*
Y460039D02*
D03*
X786417D02*
D03*
X790158D02*
D03*
D123*
X709744Y383957D02*
D03*
Y386516D02*
D03*
Y389075D02*
D03*
Y391634D02*
D03*
X692224Y383957D02*
D03*
Y386516D02*
D03*
Y389075D02*
D03*
Y391634D02*
D03*
D124*
X666339Y533071D02*
D03*
D125*
Y522047D02*
D03*
X695472Y525591D02*
D03*
Y514567D02*
D03*
D126*
X666339Y485039D02*
D03*
D127*
X683858Y468110D02*
D03*
D128*
X354331Y332283D02*
D03*
X349213D02*
D03*
X748511Y467256D02*
D03*
X743393D02*
D03*
X465354Y526378D02*
D03*
X470472D02*
D03*
X576772Y508071D02*
D03*
X581890D02*
D03*
X565354Y507874D02*
D03*
X570472D02*
D03*
X578150Y469488D02*
D03*
X583268D02*
D03*
X589961D02*
D03*
X595079D02*
D03*
X641339Y354331D02*
D03*
X636221D02*
D03*
X463386Y385433D02*
D03*
X468504D02*
D03*
X451378Y391732D02*
D03*
X456496D02*
D03*
X451378Y385433D02*
D03*
X456496D02*
D03*
X529921Y506299D02*
D03*
X524803D02*
D03*
X567323Y358268D02*
D03*
X572441D02*
D03*
X613386D02*
D03*
X608268D02*
D03*
X624606D02*
D03*
X619488D02*
D03*
X457835Y339567D02*
D03*
X452716D02*
D03*
X457835Y346457D02*
D03*
X452716D02*
D03*
D129*
X794095Y418701D02*
D03*
X805118D02*
D03*
X801575Y447835D02*
D03*
D130*
X747638Y430315D02*
D03*
D131*
X764567Y447835D02*
D03*
D132*
X812598D02*
D03*
D133*
X481988Y398819D02*
D03*
X488878D02*
D03*
D134*
X524213Y499606D02*
D03*
X529528D02*
D03*
D135*
X432756Y519685D02*
D03*
Y346457D02*
D03*
X732283D02*
D03*
Y519685D02*
D03*
D136*
Y448071D02*
D03*
X413386Y498071D02*
D03*
X763779Y356299D02*
D03*
Y509842D02*
D03*
D137*
X732283Y438071D02*
D03*
Y428071D02*
D03*
Y418071D02*
D03*
X413386Y368071D02*
D03*
Y378071D02*
D03*
Y388071D02*
D03*
Y398071D02*
D03*
Y408071D02*
D03*
Y418071D02*
D03*
Y428071D02*
D03*
Y438071D02*
D03*
Y448071D02*
D03*
Y458071D02*
D03*
Y468071D02*
D03*
Y478071D02*
D03*
Y488071D02*
D03*
X763779Y366299D02*
D03*
Y519842D02*
D03*
D138*
X438583Y455556D02*
D03*
D139*
Y449956D02*
D03*
D140*
X783779Y336299D02*
D03*
Y376299D02*
D03*
Y529843D02*
D03*
Y489843D02*
D03*
D141*
X454724Y431102D02*
D03*
D142*
Y451102D02*
D03*
D143*
X317524Y499213D02*
D03*
Y516535D02*
D03*
D144*
X600394Y337402D02*
D03*
X580709D02*
D03*
D145*
X566929Y535433D02*
D03*
X668307Y330709D02*
D03*
X675197D02*
D03*
X530512D02*
D03*
X340551D02*
D03*
X559055Y535433D02*
D03*
X551181D02*
D03*
X754921Y330709D02*
D03*
X748032D02*
D03*
X574803Y535433D02*
D03*
X341535Y434055D02*
D03*
Y480315D02*
D03*
Y473425D02*
D03*
X348425Y535433D02*
D03*
X507874Y330709D02*
D03*
X515748D02*
D03*
X523622D02*
D03*
X492126D02*
D03*
X500000D02*
D03*
X328004Y440917D02*
D03*
X351378Y434055D02*
D03*
D146*
X681102Y490158D02*
D03*
Y517717D02*
D03*
X797244Y433071D02*
D03*
X769685D02*
D03*
M02*
