G04*
G04 #@! TF.GenerationSoftware,Altium Limited,Altium Designer,21.1.1 (26)*
G04*
G04 Layer_Color=65535*
%FSLAX25Y25*%
%MOIN*%
G70*
G04*
G04 #@! TF.SameCoordinates,699B9FA1-69CE-4F8E-812B-AA759A78C5B1*
G04*
G04*
G04 #@! TF.FilePolarity,Positive*
G04*
G01*
G75*
%ADD10C,0.00600*%
%ADD11C,0.00984*%
%ADD12C,0.00787*%
%ADD13C,0.01181*%
%ADD14C,0.00394*%
%ADD15C,0.01000*%
%ADD16C,0.00591*%
%ADD17R,0.01700X0.10200*%
%ADD18R,0.10200X0.01700*%
%ADD19R,0.10200X0.01500*%
%ADD20R,0.05000X0.58000*%
%ADD21R,0.01600X0.10000*%
%ADD22R,0.10000X0.01600*%
%ADD23R,0.02700X0.15200*%
%ADD24R,0.15600X0.05000*%
%ADD25R,0.15400X0.02700*%
%ADD26R,0.02750X0.39000*%
%ADD27R,0.24606X0.02461*%
%ADD28R,0.02461X0.24606*%
G36*
X469626Y510236D02*
X468839D01*
X467658Y511417D01*
Y512205D01*
X469626D01*
Y510236D01*
D02*
G37*
G36*
X532679Y530774D02*
Y530610D01*
Y510532D01*
Y510453D01*
X532619Y510308D01*
X532507Y510196D01*
X532362Y510136D01*
X517638D01*
X517493Y510196D01*
X517381Y510308D01*
X517321Y510453D01*
Y510532D01*
Y510610D01*
X517381Y510755D01*
X517493Y510866D01*
X517638Y510927D01*
X529403D01*
X529468Y511398D01*
X529891Y512251D01*
X530564Y512924D01*
X531417Y513347D01*
X531888Y513412D01*
Y513412D01*
Y530610D01*
Y530774D01*
X532120Y531005D01*
X532447D01*
X532679Y530774D01*
D02*
G37*
G36*
X350241Y506576D02*
X349272Y505890D01*
X348964D01*
Y507167D01*
X350241D01*
Y506576D01*
D02*
G37*
G36*
X491634Y484449D02*
Y483268D01*
X491203D01*
X490407Y483597D01*
X489798Y484206D01*
X489468Y485002D01*
Y485433D01*
Y485827D01*
X490256D01*
X491634Y484449D01*
D02*
G37*
G36*
X571831Y487106D02*
X573012Y485925D01*
X573012Y483169D01*
X569075D01*
Y487106D01*
X571831Y487106D01*
D02*
G37*
G36*
X466043Y476575D02*
X464075D01*
Y477165D01*
X465256Y478346D01*
X466043D01*
Y476575D01*
D02*
G37*
G36*
X792126Y454331D02*
X791535D01*
X790354Y455512D01*
Y456299D01*
X792126D01*
Y454331D01*
D02*
G37*
G36*
X366535Y452756D02*
X362598D01*
X362598Y455512D01*
X363779Y456693D01*
X366535Y456693D01*
Y452756D01*
D02*
G37*
G36*
X493307Y413583D02*
X493701Y413189D01*
Y412598D01*
X493504Y412795D01*
X492323D01*
Y413976D01*
X493307Y413583D01*
D02*
G37*
G36*
X451713Y406693D02*
Y405905D01*
X449744D01*
Y407874D01*
X450531D01*
X451713Y406693D01*
D02*
G37*
G36*
X704921Y382283D02*
X703346Y381890D01*
Y382480D01*
X704528Y383661D01*
X705315D01*
X704921Y382283D01*
D02*
G37*
G36*
X312459Y377727D02*
Y377502D01*
Y377276D01*
X311557D01*
Y377502D01*
Y377727D01*
Y377953D01*
X312459D01*
Y377727D01*
D02*
G37*
G36*
X308625D02*
Y377502D01*
Y377276D01*
X307046D01*
Y377502D01*
Y377727D01*
Y377953D01*
X308625D01*
Y377727D01*
D02*
G37*
G36*
X316970Y376148D02*
Y375923D01*
Y375697D01*
X316068D01*
Y375923D01*
Y376148D01*
Y376374D01*
X316970D01*
Y376148D01*
D02*
G37*
G36*
Y377727D02*
Y377502D01*
Y377276D01*
X315391D01*
Y377050D01*
Y376825D01*
Y376599D01*
Y376374D01*
Y376148D01*
Y375923D01*
Y375697D01*
X316068D01*
Y375472D01*
Y375246D01*
Y375021D01*
Y374795D01*
Y374569D01*
Y374344D01*
Y374118D01*
X316970D01*
Y373893D01*
Y373667D01*
Y373442D01*
Y373216D01*
Y372990D01*
Y372765D01*
Y372539D01*
Y372314D01*
Y372088D01*
X317647D01*
Y371863D01*
Y371637D01*
Y371412D01*
Y371186D01*
X319000D01*
Y371412D01*
Y371637D01*
Y371863D01*
Y372088D01*
X321256D01*
Y371863D01*
Y371637D01*
Y371412D01*
Y371186D01*
X319902D01*
Y370960D01*
Y370735D01*
Y370509D01*
Y370284D01*
Y370058D01*
Y369833D01*
Y369607D01*
Y369382D01*
Y369156D01*
Y368931D01*
X321256D01*
Y368705D01*
Y368479D01*
Y368254D01*
X322835D01*
Y368028D01*
Y367803D01*
Y367577D01*
Y367352D01*
Y367126D01*
Y366900D01*
Y366675D01*
X322158D01*
Y366449D01*
Y366224D01*
Y365998D01*
Y365773D01*
Y365547D01*
Y365321D01*
Y365096D01*
Y364870D01*
Y364645D01*
Y364419D01*
X321256D01*
Y364194D01*
Y363968D01*
Y363743D01*
Y363517D01*
Y363292D01*
Y363066D01*
Y362840D01*
Y362615D01*
Y362389D01*
Y362164D01*
X322835D01*
Y361938D01*
Y361713D01*
Y361487D01*
X322158D01*
Y361262D01*
Y361036D01*
Y360810D01*
Y360585D01*
Y360359D01*
Y360134D01*
X322835D01*
Y359908D01*
Y359683D01*
Y359457D01*
Y359231D01*
Y359006D01*
Y358780D01*
Y358555D01*
Y358329D01*
Y358104D01*
Y357878D01*
X322158D01*
Y358104D01*
Y358329D01*
Y358555D01*
Y358780D01*
Y359006D01*
Y359231D01*
X320579D01*
Y359457D01*
Y359683D01*
Y359908D01*
Y360134D01*
X319902D01*
Y359908D01*
Y359683D01*
Y359457D01*
Y359231D01*
X320579D01*
Y359006D01*
Y358780D01*
Y358555D01*
X321256D01*
Y358329D01*
Y358104D01*
Y357878D01*
X322158D01*
Y357653D01*
Y357427D01*
Y357201D01*
Y356976D01*
Y356750D01*
Y356525D01*
Y356299D01*
X321256D01*
Y356525D01*
Y356750D01*
Y356976D01*
Y357201D01*
Y357427D01*
Y357653D01*
Y357878D01*
X320579D01*
Y358104D01*
Y358329D01*
Y358555D01*
X319000D01*
Y358780D01*
Y359006D01*
Y359231D01*
X317647D01*
Y359006D01*
Y358780D01*
Y358555D01*
Y358329D01*
Y358104D01*
Y357878D01*
X316970D01*
Y358104D01*
Y358329D01*
Y358555D01*
X315391D01*
Y358780D01*
Y359006D01*
Y359231D01*
X316068D01*
Y359457D01*
Y359683D01*
Y359908D01*
Y360134D01*
Y360359D01*
Y360585D01*
Y360810D01*
X315391D01*
Y361036D01*
Y361262D01*
Y361487D01*
X314715D01*
Y361713D01*
Y361938D01*
Y362164D01*
X313812D01*
Y362389D01*
Y362615D01*
Y362840D01*
Y363066D01*
X313136D01*
Y363292D01*
Y363517D01*
Y363743D01*
X312459D01*
Y363968D01*
Y364194D01*
Y364419D01*
X311557D01*
Y364645D01*
Y364870D01*
Y365096D01*
Y365321D01*
X313136D01*
Y365096D01*
Y364870D01*
Y364645D01*
Y364419D01*
X313812D01*
Y364194D01*
Y363968D01*
Y363743D01*
X314715D01*
Y363517D01*
Y363292D01*
Y363066D01*
X315391D01*
Y363292D01*
Y363517D01*
Y363743D01*
X317647D01*
Y363517D01*
Y363292D01*
Y363066D01*
X320579D01*
Y363292D01*
Y363517D01*
Y363743D01*
Y363968D01*
Y364194D01*
Y364419D01*
X319902D01*
Y364645D01*
Y364870D01*
Y365096D01*
Y365321D01*
X319000D01*
Y365547D01*
Y365773D01*
Y365998D01*
X317647D01*
Y366224D01*
Y366449D01*
Y366675D01*
X316970D01*
Y366449D01*
Y366224D01*
Y365998D01*
X317647D01*
Y365773D01*
Y365547D01*
Y365321D01*
Y365096D01*
Y364870D01*
Y364645D01*
Y364419D01*
X316068D01*
Y364645D01*
Y364870D01*
Y365096D01*
Y365321D01*
Y365547D01*
Y365773D01*
Y365998D01*
Y366224D01*
Y366449D01*
Y366675D01*
X315391D01*
Y366900D01*
Y367126D01*
Y367352D01*
Y367577D01*
Y367803D01*
Y368028D01*
Y368254D01*
Y368479D01*
Y368705D01*
Y368931D01*
X314715D01*
Y369156D01*
Y369382D01*
Y369607D01*
Y369833D01*
Y370058D01*
Y370284D01*
Y370509D01*
X315391D01*
Y370284D01*
Y370058D01*
Y369833D01*
Y369607D01*
Y369382D01*
Y369156D01*
Y368931D01*
X316068D01*
Y368705D01*
Y368479D01*
Y368254D01*
X316970D01*
Y368028D01*
Y367803D01*
Y367577D01*
X317647D01*
Y367352D01*
Y367126D01*
Y366900D01*
Y366675D01*
X318323D01*
Y366900D01*
Y367126D01*
Y367352D01*
Y367577D01*
X317647D01*
Y367803D01*
Y368028D01*
Y368254D01*
X319000D01*
Y368028D01*
Y367803D01*
Y367577D01*
X319902D01*
Y367352D01*
Y367126D01*
Y366900D01*
Y366675D01*
Y366449D01*
Y366224D01*
Y365998D01*
X320579D01*
Y365773D01*
Y365547D01*
Y365321D01*
X321256D01*
Y365547D01*
Y365773D01*
Y365998D01*
Y366224D01*
Y366449D01*
Y366675D01*
X320579D01*
Y366900D01*
Y367126D01*
Y367352D01*
Y367577D01*
Y367803D01*
Y368028D01*
Y368254D01*
X319902D01*
Y368479D01*
Y368705D01*
Y368931D01*
X316068D01*
Y369156D01*
Y369382D01*
Y369607D01*
Y369833D01*
Y370058D01*
Y370284D01*
Y370509D01*
X315391D01*
Y370735D01*
Y370960D01*
Y371186D01*
X313812D01*
Y371412D01*
Y371637D01*
Y371863D01*
Y372088D01*
X312459D01*
Y372314D01*
Y372539D01*
Y372765D01*
X311557D01*
Y372990D01*
Y373216D01*
Y373442D01*
X310880D01*
Y373216D01*
Y372990D01*
Y372765D01*
X310203D01*
Y372990D01*
Y373216D01*
Y373442D01*
Y373667D01*
Y373893D01*
Y374118D01*
X308625D01*
Y373893D01*
Y373667D01*
Y373442D01*
X309301D01*
Y373216D01*
Y372990D01*
Y372765D01*
X310203D01*
Y372539D01*
Y372314D01*
Y372088D01*
X309301D01*
Y372314D01*
Y372539D01*
Y372765D01*
X308625D01*
Y372990D01*
Y373216D01*
Y373442D01*
X307948D01*
Y373667D01*
Y373893D01*
Y374118D01*
X307046D01*
Y374344D01*
Y374569D01*
Y374795D01*
Y375021D01*
Y375246D01*
Y375472D01*
Y375697D01*
Y375923D01*
Y376148D01*
Y376374D01*
X307948D01*
Y376148D01*
Y375923D01*
Y375697D01*
X308625D01*
Y375472D01*
Y375246D01*
Y375021D01*
X309301D01*
Y375246D01*
Y375472D01*
Y375697D01*
Y375923D01*
Y376148D01*
Y376374D01*
X310880D01*
Y376599D01*
Y376825D01*
Y377050D01*
Y377276D01*
X311557D01*
Y377050D01*
Y376825D01*
Y376599D01*
Y376374D01*
X312459D01*
Y376148D01*
Y375923D01*
Y375697D01*
X314715D01*
Y375923D01*
Y376148D01*
Y376374D01*
X313812D01*
Y376599D01*
Y376825D01*
Y377050D01*
Y377276D01*
X313136D01*
Y377502D01*
Y377727D01*
Y377953D01*
X316970D01*
Y377727D01*
D02*
G37*
G36*
X322835D02*
Y377502D01*
Y377276D01*
Y377050D01*
Y376825D01*
Y376599D01*
Y376374D01*
Y376148D01*
Y375923D01*
Y375697D01*
Y375472D01*
Y375246D01*
Y375021D01*
Y374795D01*
Y374569D01*
Y374344D01*
Y374118D01*
Y373893D01*
Y373667D01*
Y373442D01*
Y373216D01*
Y372990D01*
Y372765D01*
X317647D01*
Y372990D01*
Y373216D01*
Y373442D01*
Y373667D01*
Y373893D01*
Y374118D01*
Y374344D01*
Y374569D01*
Y374795D01*
Y375021D01*
Y375246D01*
Y375472D01*
Y375697D01*
Y375923D01*
Y376148D01*
Y376374D01*
Y376599D01*
Y376825D01*
Y377050D01*
Y377276D01*
Y377502D01*
Y377727D01*
Y377953D01*
X322835D01*
Y377727D01*
D02*
G37*
G36*
X306369D02*
Y377502D01*
Y377276D01*
Y377050D01*
Y376825D01*
Y376599D01*
Y376374D01*
Y376148D01*
Y375923D01*
Y375697D01*
Y375472D01*
Y375246D01*
Y375021D01*
Y374795D01*
Y374569D01*
Y374344D01*
Y374118D01*
Y373893D01*
Y373667D01*
Y373442D01*
Y373216D01*
Y372990D01*
Y372765D01*
X301181D01*
Y372990D01*
Y373216D01*
Y373442D01*
Y373667D01*
Y373893D01*
Y374118D01*
Y374344D01*
Y374569D01*
Y374795D01*
Y375021D01*
Y375246D01*
Y375472D01*
Y375697D01*
Y375923D01*
Y376148D01*
Y376374D01*
Y376599D01*
Y376825D01*
Y377050D01*
Y377276D01*
Y377502D01*
Y377727D01*
Y377953D01*
X306369D01*
Y377727D01*
D02*
G37*
G36*
X307948Y373216D02*
Y372990D01*
Y372765D01*
X308625D01*
Y372539D01*
Y372314D01*
Y372088D01*
X307948D01*
Y372314D01*
Y372539D01*
Y372765D01*
X307046D01*
Y372990D01*
Y373216D01*
Y373442D01*
X307948D01*
Y373216D01*
D02*
G37*
G36*
X322835Y371863D02*
Y371637D01*
Y371412D01*
Y371186D01*
Y370960D01*
Y370735D01*
Y370509D01*
X322158D01*
Y370735D01*
Y370960D01*
Y371186D01*
Y371412D01*
Y371637D01*
Y371863D01*
Y372088D01*
X322835D01*
Y371863D01*
D02*
G37*
G36*
X312459D02*
Y371637D01*
Y371412D01*
Y371186D01*
Y370960D01*
Y370735D01*
Y370509D01*
X311557D01*
Y370735D01*
Y370960D01*
Y371186D01*
X310880D01*
Y371412D01*
Y371637D01*
Y371863D01*
Y372088D01*
X312459D01*
Y371863D01*
D02*
G37*
G36*
X307948D02*
Y371637D01*
Y371412D01*
Y371186D01*
X308625D01*
Y370960D01*
Y370735D01*
Y370509D01*
X307948D01*
Y370735D01*
Y370960D01*
Y371186D01*
X307046D01*
Y371412D01*
Y371637D01*
Y371863D01*
Y372088D01*
X307948D01*
Y371863D01*
D02*
G37*
G36*
X687834Y370965D02*
Y370808D01*
X687714Y370519D01*
X687493Y370297D01*
X687203Y370177D01*
X687046D01*
X687046Y370965D01*
X687834Y370965D01*
X687834Y370965D01*
D02*
G37*
G36*
X306369Y371863D02*
Y371637D01*
Y371412D01*
Y371186D01*
X307046D01*
Y370960D01*
Y370735D01*
Y370509D01*
X307948D01*
Y370284D01*
Y370058D01*
Y369833D01*
X307046D01*
Y370058D01*
Y370284D01*
Y370509D01*
X306369D01*
Y370735D01*
Y370960D01*
Y371186D01*
X305692D01*
Y371412D01*
Y371637D01*
Y371863D01*
Y372088D01*
X306369D01*
Y371863D01*
D02*
G37*
G36*
X322158Y370284D02*
Y370058D01*
Y369833D01*
X322835D01*
Y369607D01*
Y369382D01*
Y369156D01*
Y368931D01*
X322158D01*
Y369156D01*
Y369382D01*
Y369607D01*
Y369833D01*
X320579D01*
Y370058D01*
Y370284D01*
Y370509D01*
X322158D01*
Y370284D01*
D02*
G37*
G36*
X313812Y370960D02*
Y370735D01*
Y370509D01*
Y370284D01*
Y370058D01*
Y369833D01*
Y369607D01*
Y369382D01*
Y369156D01*
Y368931D01*
X314715D01*
Y368705D01*
Y368479D01*
Y368254D01*
Y368028D01*
Y367803D01*
Y367577D01*
X313812D01*
Y367352D01*
Y367126D01*
Y366900D01*
Y366675D01*
Y366449D01*
Y366224D01*
Y365998D01*
X311557D01*
Y366224D01*
Y366449D01*
Y366675D01*
Y366900D01*
Y367126D01*
Y367352D01*
Y367577D01*
Y367803D01*
Y368028D01*
Y368254D01*
X310880D01*
Y368479D01*
Y368705D01*
Y368931D01*
X310203D01*
Y368705D01*
Y368479D01*
Y368254D01*
Y368028D01*
Y367803D01*
Y367577D01*
X310880D01*
Y367352D01*
Y367126D01*
Y366900D01*
Y366675D01*
Y366449D01*
Y366224D01*
Y365998D01*
X310203D01*
Y366224D01*
Y366449D01*
Y366675D01*
Y366900D01*
Y367126D01*
Y367352D01*
Y367577D01*
X309301D01*
Y367352D01*
Y367126D01*
Y366900D01*
Y366675D01*
X307948D01*
Y366900D01*
Y367126D01*
Y367352D01*
Y367577D01*
X307046D01*
Y367803D01*
Y368028D01*
Y368254D01*
X307948D01*
Y368028D01*
Y367803D01*
Y367577D01*
X308625D01*
Y367803D01*
Y368028D01*
Y368254D01*
X307948D01*
Y368479D01*
Y368705D01*
Y368931D01*
X308625D01*
Y368705D01*
Y368479D01*
Y368254D01*
X309301D01*
Y368479D01*
Y368705D01*
Y368931D01*
Y369156D01*
Y369382D01*
Y369607D01*
Y369833D01*
X310880D01*
Y370058D01*
Y370284D01*
Y370509D01*
X311557D01*
Y370284D01*
Y370058D01*
Y369833D01*
X312459D01*
Y369607D01*
Y369382D01*
Y369156D01*
Y368931D01*
X313136D01*
Y369156D01*
Y369382D01*
Y369607D01*
Y369833D01*
Y370058D01*
Y370284D01*
Y370509D01*
Y370735D01*
Y370960D01*
Y371186D01*
X313812D01*
Y370960D01*
D02*
G37*
G36*
X304113Y371863D02*
Y371637D01*
Y371412D01*
Y371186D01*
X305692D01*
Y370960D01*
Y370735D01*
Y370509D01*
X306369D01*
Y370284D01*
Y370058D01*
Y369833D01*
X307046D01*
Y369607D01*
Y369382D01*
Y369156D01*
Y368931D01*
X306369D01*
Y369156D01*
Y369382D01*
Y369607D01*
Y369833D01*
X305692D01*
Y370058D01*
Y370284D01*
Y370509D01*
X305016D01*
Y370284D01*
Y370058D01*
Y369833D01*
Y369607D01*
Y369382D01*
Y369156D01*
Y368931D01*
X306369D01*
Y368705D01*
Y368479D01*
Y368254D01*
X305692D01*
Y368028D01*
Y367803D01*
Y367577D01*
X306369D01*
Y367352D01*
Y367126D01*
Y366900D01*
Y366675D01*
X305016D01*
Y366449D01*
Y366224D01*
Y365998D01*
Y365773D01*
Y365547D01*
Y365321D01*
Y365096D01*
Y364870D01*
Y364645D01*
Y364419D01*
X304113D01*
Y364645D01*
Y364870D01*
Y365096D01*
Y365321D01*
X303437D01*
Y365096D01*
Y364870D01*
Y364645D01*
Y364419D01*
X304113D01*
Y364194D01*
Y363968D01*
Y363743D01*
X305692D01*
Y363517D01*
Y363292D01*
Y363066D01*
X310203D01*
Y363292D01*
Y363517D01*
Y363743D01*
X307046D01*
Y363968D01*
Y364194D01*
Y364419D01*
X306369D01*
Y364645D01*
Y364870D01*
Y365096D01*
Y365321D01*
X305692D01*
Y365547D01*
Y365773D01*
Y365998D01*
X306369D01*
Y365773D01*
Y365547D01*
Y365321D01*
X308625D01*
Y365096D01*
Y364870D01*
Y364645D01*
Y364419D01*
X310203D01*
Y364645D01*
Y364870D01*
Y365096D01*
Y365321D01*
X308625D01*
Y365547D01*
Y365773D01*
Y365998D01*
X310203D01*
Y365773D01*
Y365547D01*
Y365321D01*
X310880D01*
Y365096D01*
Y364870D01*
Y364645D01*
Y364419D01*
Y364194D01*
Y363968D01*
Y363743D01*
Y363517D01*
Y363292D01*
Y363066D01*
Y362840D01*
Y362615D01*
Y362389D01*
Y362164D01*
Y361938D01*
Y361713D01*
Y361487D01*
X312459D01*
Y361262D01*
Y361036D01*
Y360810D01*
X313136D01*
Y360585D01*
Y360359D01*
Y360134D01*
X314715D01*
Y359908D01*
Y359683D01*
Y359457D01*
Y359231D01*
X313812D01*
Y359006D01*
Y358780D01*
Y358555D01*
X312459D01*
Y358780D01*
Y359006D01*
Y359231D01*
X311557D01*
Y359457D01*
Y359683D01*
Y359908D01*
Y360134D01*
X310880D01*
Y360359D01*
Y360585D01*
Y360810D01*
X308625D01*
Y360585D01*
Y360359D01*
Y360134D01*
X309301D01*
Y359908D01*
Y359683D01*
Y359457D01*
Y359231D01*
X310203D01*
Y359457D01*
Y359683D01*
Y359908D01*
Y360134D01*
X310880D01*
Y359908D01*
Y359683D01*
Y359457D01*
Y359231D01*
Y359006D01*
Y358780D01*
Y358555D01*
X311557D01*
Y358329D01*
Y358104D01*
Y357878D01*
X312459D01*
Y357653D01*
Y357427D01*
Y357201D01*
Y356976D01*
X313136D01*
Y357201D01*
Y357427D01*
Y357653D01*
Y357878D01*
X313812D01*
Y357653D01*
Y357427D01*
Y357201D01*
Y356976D01*
Y356750D01*
Y356525D01*
Y356299D01*
X311557D01*
Y356525D01*
Y356750D01*
Y356976D01*
Y357201D01*
Y357427D01*
Y357653D01*
Y357878D01*
X310880D01*
Y358104D01*
Y358329D01*
Y358555D01*
X310203D01*
Y358329D01*
Y358104D01*
Y357878D01*
Y357653D01*
Y357427D01*
Y357201D01*
Y356976D01*
X309301D01*
Y357201D01*
Y357427D01*
Y357653D01*
Y357878D01*
X308625D01*
Y358104D01*
Y358329D01*
Y358555D01*
X309301D01*
Y358780D01*
Y359006D01*
Y359231D01*
X308625D01*
Y359457D01*
Y359683D01*
Y359908D01*
Y360134D01*
X307948D01*
Y360359D01*
Y360585D01*
Y360810D01*
Y361036D01*
Y361262D01*
Y361487D01*
X307046D01*
Y361713D01*
Y361938D01*
Y362164D01*
X305692D01*
Y362389D01*
Y362615D01*
Y362840D01*
Y363066D01*
X304113D01*
Y362840D01*
Y362615D01*
Y362389D01*
Y362164D01*
X303437D01*
Y362389D01*
Y362615D01*
Y362840D01*
Y363066D01*
X302760D01*
Y363292D01*
Y363517D01*
Y363743D01*
X303437D01*
Y363968D01*
Y364194D01*
Y364419D01*
X301858D01*
Y364645D01*
Y364870D01*
Y365096D01*
Y365321D01*
X301181D01*
Y365547D01*
Y365773D01*
Y365998D01*
Y366224D01*
Y366449D01*
Y366675D01*
Y366900D01*
Y367126D01*
Y367352D01*
Y367577D01*
Y367803D01*
Y368028D01*
Y368254D01*
X301858D01*
Y368479D01*
Y368705D01*
Y368931D01*
Y369156D01*
Y369382D01*
Y369607D01*
Y369833D01*
X301181D01*
Y370058D01*
Y370284D01*
Y370509D01*
X302760D01*
Y370735D01*
Y370960D01*
Y371186D01*
X301181D01*
Y371412D01*
Y371637D01*
Y371863D01*
Y372088D01*
X304113D01*
Y371863D01*
D02*
G37*
G36*
X307948Y366449D02*
Y366224D01*
Y365998D01*
X307046D01*
Y366224D01*
Y366449D01*
Y366675D01*
X307948D01*
Y366449D01*
D02*
G37*
G36*
X315391Y365773D02*
Y365547D01*
Y365321D01*
Y365096D01*
Y364870D01*
Y364645D01*
Y364419D01*
X314715D01*
Y364645D01*
Y364870D01*
Y365096D01*
Y365321D01*
Y365547D01*
Y365773D01*
Y365998D01*
X315391D01*
Y365773D01*
D02*
G37*
G36*
X319000Y365096D02*
Y364870D01*
Y364645D01*
Y364419D01*
Y364194D01*
Y363968D01*
Y363743D01*
X318323D01*
Y363968D01*
Y364194D01*
Y364419D01*
Y364645D01*
Y364870D01*
Y365096D01*
Y365321D01*
X319000D01*
Y365096D01*
D02*
G37*
G36*
X306369Y364194D02*
Y363968D01*
Y363743D01*
X305692D01*
Y363968D01*
Y364194D01*
Y364419D01*
X306369D01*
Y364194D01*
D02*
G37*
G36*
X301858D02*
Y363968D01*
Y363743D01*
X301181D01*
Y363968D01*
Y364194D01*
Y364419D01*
X301858D01*
Y364194D01*
D02*
G37*
G36*
X312459Y363517D02*
Y363292D01*
Y363066D01*
X313136D01*
Y362840D01*
Y362615D01*
Y362389D01*
Y362164D01*
X311557D01*
Y362389D01*
Y362615D01*
Y362840D01*
Y363066D01*
Y363292D01*
Y363517D01*
Y363743D01*
X312459D01*
Y363517D01*
D02*
G37*
G36*
X302760Y362840D02*
Y362615D01*
Y362389D01*
Y362164D01*
X301858D01*
Y362389D01*
Y362615D01*
Y362840D01*
Y363066D01*
X302760D01*
Y362840D01*
D02*
G37*
G36*
X315391Y360585D02*
Y360359D01*
Y360134D01*
X314715D01*
Y360359D01*
Y360585D01*
Y360810D01*
X315391D01*
Y360585D01*
D02*
G37*
G36*
X319000Y358329D02*
Y358104D01*
Y357878D01*
Y357653D01*
Y357427D01*
Y357201D01*
Y356976D01*
X318323D01*
Y357201D01*
Y357427D01*
Y357653D01*
Y357878D01*
Y358104D01*
Y358329D01*
Y358555D01*
X319000D01*
Y358329D01*
D02*
G37*
G36*
X320579Y357653D02*
Y357427D01*
Y357201D01*
Y356976D01*
Y356750D01*
Y356525D01*
Y356299D01*
X319902D01*
Y356525D01*
Y356750D01*
Y356976D01*
Y357201D01*
Y357427D01*
Y357653D01*
Y357878D01*
X320579D01*
Y357653D01*
D02*
G37*
G36*
X316970D02*
Y357427D01*
Y357201D01*
Y356976D01*
Y356750D01*
Y356525D01*
Y356299D01*
X315391D01*
Y356525D01*
Y356750D01*
Y356976D01*
X314715D01*
Y357201D01*
Y357427D01*
Y357653D01*
Y357878D01*
X316970D01*
Y357653D01*
D02*
G37*
G36*
X307948Y359006D02*
Y358780D01*
Y358555D01*
Y358329D01*
Y358104D01*
Y357878D01*
Y357653D01*
Y357427D01*
Y357201D01*
Y356976D01*
Y356750D01*
Y356525D01*
Y356299D01*
X307046D01*
Y356525D01*
Y356750D01*
Y356976D01*
Y357201D01*
Y357427D01*
Y357653D01*
Y357878D01*
Y358104D01*
Y358329D01*
Y358555D01*
Y358780D01*
Y359006D01*
Y359231D01*
X307948D01*
Y359006D01*
D02*
G37*
G36*
X306369Y361262D02*
Y361036D01*
Y360810D01*
Y360585D01*
Y360359D01*
Y360134D01*
Y359908D01*
Y359683D01*
Y359457D01*
Y359231D01*
Y359006D01*
Y358780D01*
Y358555D01*
Y358329D01*
Y358104D01*
Y357878D01*
Y357653D01*
Y357427D01*
Y357201D01*
Y356976D01*
Y356750D01*
Y356525D01*
Y356299D01*
X301181D01*
Y356525D01*
Y356750D01*
Y356976D01*
Y357201D01*
Y357427D01*
Y357653D01*
Y357878D01*
Y358104D01*
Y358329D01*
Y358555D01*
Y358780D01*
Y359006D01*
Y359231D01*
Y359457D01*
Y359683D01*
Y359908D01*
Y360134D01*
Y360359D01*
Y360585D01*
Y360810D01*
Y361036D01*
Y361262D01*
Y361487D01*
X306369D01*
Y361262D01*
D02*
G37*
%LPC*%
G36*
X310880Y375697D02*
X310203D01*
Y375472D01*
Y375246D01*
Y375021D01*
Y374795D01*
Y374569D01*
Y374344D01*
Y374118D01*
X310880D01*
Y374344D01*
Y374569D01*
Y374795D01*
Y375021D01*
Y375246D01*
Y375472D01*
Y375697D01*
D02*
G37*
G36*
X316068Y373442D02*
X315391D01*
Y373216D01*
Y372990D01*
Y372765D01*
X316068D01*
Y372990D01*
Y373216D01*
Y373442D01*
D02*
G37*
G36*
X312459Y375697D02*
X311557D01*
Y375472D01*
Y375246D01*
Y375021D01*
Y374795D01*
Y374569D01*
Y374344D01*
Y374118D01*
Y373893D01*
Y373667D01*
Y373442D01*
X312459D01*
Y373216D01*
Y372990D01*
Y372765D01*
X313136D01*
Y372990D01*
Y373216D01*
Y373442D01*
X313812D01*
Y373216D01*
Y372990D01*
Y372765D01*
X314715D01*
Y372990D01*
Y373216D01*
Y373442D01*
X313812D01*
Y373667D01*
Y373893D01*
Y374118D01*
X315391D01*
Y374344D01*
Y374569D01*
Y374795D01*
Y375021D01*
X313136D01*
Y374795D01*
Y374569D01*
Y374344D01*
Y374118D01*
X312459D01*
Y374344D01*
Y374569D01*
Y374795D01*
Y375021D01*
Y375246D01*
Y375472D01*
Y375697D01*
D02*
G37*
G36*
X316970Y372088D02*
X316068D01*
Y371863D01*
Y371637D01*
Y371412D01*
Y371186D01*
X316970D01*
Y370960D01*
Y370735D01*
Y370509D01*
Y370284D01*
Y370058D01*
Y369833D01*
X317647D01*
Y370058D01*
Y370284D01*
Y370509D01*
Y370735D01*
Y370960D01*
Y371186D01*
X316970D01*
Y371412D01*
Y371637D01*
Y371863D01*
Y372088D01*
D02*
G37*
G36*
X316068Y362164D02*
X315391D01*
Y361938D01*
Y361713D01*
Y361487D01*
X316068D01*
Y361713D01*
Y361938D01*
Y362164D01*
D02*
G37*
G36*
X321256Y361487D02*
X320579D01*
Y361262D01*
Y361036D01*
Y360810D01*
Y360585D01*
Y360359D01*
Y360134D01*
X321256D01*
Y360359D01*
Y360585D01*
Y360810D01*
Y361036D01*
Y361262D01*
Y361487D01*
D02*
G37*
G36*
X319000Y362164D02*
X316970D01*
Y361938D01*
Y361713D01*
Y361487D01*
Y361262D01*
Y361036D01*
Y360810D01*
Y360585D01*
Y360359D01*
Y360134D01*
X319000D01*
Y360359D01*
Y360585D01*
Y360810D01*
Y361036D01*
Y361262D01*
Y361487D01*
Y361713D01*
Y361938D01*
Y362164D01*
D02*
G37*
%LPD*%
G36*
X318323Y361262D02*
Y361036D01*
Y360810D01*
X317647D01*
Y361036D01*
Y361262D01*
Y361487D01*
X318323D01*
Y361262D01*
D02*
G37*
%LPC*%
G36*
X322158Y377276D02*
X318323D01*
Y377050D01*
Y376825D01*
Y376599D01*
Y376374D01*
Y376148D01*
Y375923D01*
Y375697D01*
Y375472D01*
Y375246D01*
Y375021D01*
Y374795D01*
Y374569D01*
Y374344D01*
Y374118D01*
Y373893D01*
Y373667D01*
Y373442D01*
X322158D01*
Y373667D01*
Y373893D01*
Y374118D01*
Y374344D01*
Y374569D01*
Y374795D01*
Y375021D01*
Y375246D01*
Y375472D01*
Y375697D01*
Y375923D01*
Y376148D01*
Y376374D01*
Y376599D01*
Y376825D01*
Y377050D01*
Y377276D01*
D02*
G37*
%LPD*%
G36*
X321256Y376148D02*
Y375923D01*
Y375697D01*
Y375472D01*
Y375246D01*
Y375021D01*
Y374795D01*
Y374569D01*
Y374344D01*
Y374118D01*
X319000D01*
Y374344D01*
Y374569D01*
Y374795D01*
Y375021D01*
Y375246D01*
Y375472D01*
Y375697D01*
Y375923D01*
Y376148D01*
Y376374D01*
X321256D01*
Y376148D01*
D02*
G37*
%LPC*%
G36*
X305692Y377276D02*
X301858D01*
Y377050D01*
Y376825D01*
Y376599D01*
Y376374D01*
Y376148D01*
Y375923D01*
Y375697D01*
Y375472D01*
Y375246D01*
Y375021D01*
Y374795D01*
Y374569D01*
Y374344D01*
Y374118D01*
Y373893D01*
Y373667D01*
Y373442D01*
X305692D01*
Y373667D01*
Y373893D01*
Y374118D01*
Y374344D01*
Y374569D01*
Y374795D01*
Y375021D01*
Y375246D01*
Y375472D01*
Y375697D01*
Y375923D01*
Y376148D01*
Y376374D01*
Y376599D01*
Y376825D01*
Y377050D01*
Y377276D01*
D02*
G37*
%LPD*%
G36*
X305016Y376148D02*
Y375923D01*
Y375697D01*
Y375472D01*
Y375246D01*
Y375021D01*
Y374795D01*
Y374569D01*
Y374344D01*
Y374118D01*
X302760D01*
Y374344D01*
Y374569D01*
Y374795D01*
Y375021D01*
Y375246D01*
Y375472D01*
Y375697D01*
Y375923D01*
Y376148D01*
Y376374D01*
X305016D01*
Y376148D01*
D02*
G37*
%LPC*%
G36*
X313136Y368254D02*
X312459D01*
Y368028D01*
Y367803D01*
Y367577D01*
Y367352D01*
Y367126D01*
Y366900D01*
Y366675D01*
X313136D01*
Y366900D01*
Y367126D01*
Y367352D01*
Y367577D01*
Y367803D01*
Y368028D01*
Y368254D01*
D02*
G37*
G36*
X304113Y371186D02*
X303437D01*
Y370960D01*
Y370735D01*
Y370509D01*
X304113D01*
Y370735D01*
Y370960D01*
Y371186D01*
D02*
G37*
G36*
X303437Y369833D02*
X302760D01*
Y369607D01*
Y369382D01*
Y369156D01*
Y368931D01*
X303437D01*
Y369156D01*
Y369382D01*
Y369607D01*
Y369833D01*
D02*
G37*
G36*
X305016Y368931D02*
X304113D01*
Y368705D01*
Y368479D01*
Y368254D01*
X305016D01*
Y368479D01*
Y368705D01*
Y368931D01*
D02*
G37*
G36*
X303437Y368254D02*
X302760D01*
Y368028D01*
Y367803D01*
Y367577D01*
X303437D01*
Y367352D01*
Y367126D01*
Y366900D01*
Y366675D01*
X304113D01*
Y366900D01*
Y367126D01*
Y367352D01*
Y367577D01*
X303437D01*
Y367803D01*
Y368028D01*
Y368254D01*
D02*
G37*
G36*
X302760Y367577D02*
X301858D01*
Y367352D01*
Y367126D01*
Y366900D01*
Y366675D01*
X302760D01*
Y366449D01*
Y366224D01*
Y365998D01*
X303437D01*
Y366224D01*
Y366449D01*
Y366675D01*
X302760D01*
Y366900D01*
Y367126D01*
Y367352D01*
Y367577D01*
D02*
G37*
G36*
Y365998D02*
X301858D01*
Y365773D01*
Y365547D01*
Y365321D01*
X302760D01*
Y365547D01*
Y365773D01*
Y365998D01*
D02*
G37*
G36*
X310203Y362164D02*
X309301D01*
Y361938D01*
Y361713D01*
Y361487D01*
X310203D01*
Y361713D01*
Y361938D01*
Y362164D01*
D02*
G37*
G36*
X305692Y360810D02*
X301858D01*
Y360585D01*
Y360359D01*
Y360134D01*
Y359908D01*
Y359683D01*
Y359457D01*
Y359231D01*
Y359006D01*
Y358780D01*
Y358555D01*
Y358329D01*
Y358104D01*
Y357878D01*
Y357653D01*
Y357427D01*
Y357201D01*
Y356976D01*
X305692D01*
Y357201D01*
Y357427D01*
Y357653D01*
Y357878D01*
Y358104D01*
Y358329D01*
Y358555D01*
Y358780D01*
Y359006D01*
Y359231D01*
Y359457D01*
Y359683D01*
Y359908D01*
Y360134D01*
Y360359D01*
Y360585D01*
Y360810D01*
D02*
G37*
%LPD*%
G36*
X305016Y359908D02*
Y359683D01*
Y359457D01*
Y359231D01*
Y359006D01*
Y358780D01*
Y358555D01*
Y358329D01*
Y358104D01*
Y357878D01*
X302760D01*
Y358104D01*
Y358329D01*
Y358555D01*
Y358780D01*
Y359006D01*
Y359231D01*
Y359457D01*
Y359683D01*
Y359908D01*
Y360134D01*
X305016D01*
Y359908D01*
D02*
G37*
D10*
X444921Y346457D02*
X444880Y347461D01*
X444756Y348459D01*
X444549Y349443D01*
X444262Y350407D01*
X443897Y351344D01*
X443455Y352247D01*
X442941Y353111D01*
X442356Y353929D01*
X441706Y354696D01*
X440995Y355407D01*
X440228Y356057D01*
X439410Y356641D01*
X438546Y357156D01*
X437643Y357598D01*
X436706Y357963D01*
X435742Y358250D01*
X434758Y358456D01*
X433760Y358581D01*
X432756Y358622D01*
X431751Y358581D01*
X430754Y358456D01*
X429769Y358250D01*
X428806Y357963D01*
X427869Y357598D01*
X426966Y357156D01*
X426102Y356641D01*
X425284Y356057D01*
X424516Y355407D01*
X423805Y354696D01*
X423155Y353929D01*
X422571Y353111D01*
X422057Y352247D01*
X421615Y351344D01*
X421249Y350407D01*
X420963Y349443D01*
X420756Y348459D01*
X420632Y347461D01*
X420590Y346457D01*
X420632Y345452D01*
X420756Y344454D01*
X420963Y343470D01*
X421249Y342507D01*
X421615Y341570D01*
X422057Y340667D01*
X422571Y339803D01*
X423155Y338984D01*
X423805Y338217D01*
X424516Y337506D01*
X425284Y336856D01*
X426102Y336272D01*
X426966Y335757D01*
X427869Y335316D01*
X428806Y334950D01*
X429769Y334663D01*
X430754Y334457D01*
X431751Y334333D01*
X432756Y334291D01*
X433760Y334333D01*
X434758Y334457D01*
X435742Y334663D01*
X436706Y334950D01*
X437643Y335316D01*
X438546Y335757D01*
X439410Y336272D01*
X440228Y336856D01*
X440996Y337506D01*
X441706Y338217D01*
X442356Y338984D01*
X442941Y339803D01*
X443455Y340667D01*
X443897Y341570D01*
X444262Y342507D01*
X444549Y343470D01*
X444756Y344454D01*
X444880Y345452D01*
X444921Y346457D01*
X744449D02*
X744408Y347461D01*
X744283Y348459D01*
X744077Y349443D01*
X743790Y350407D01*
X743424Y351344D01*
X742983Y352247D01*
X742468Y353111D01*
X741884Y353929D01*
X741234Y354696D01*
X740523Y355407D01*
X739756Y356057D01*
X738937Y356641D01*
X738074Y357156D01*
X737170Y357598D01*
X736234Y357963D01*
X735270Y358250D01*
X734286Y358456D01*
X733288Y358581D01*
X732283Y358622D01*
X731279Y358581D01*
X730281Y358456D01*
X729297Y358250D01*
X728333Y357963D01*
X727397Y357598D01*
X726493Y357156D01*
X725630Y356641D01*
X724811Y356057D01*
X724044Y355407D01*
X723333Y354696D01*
X722683Y353929D01*
X722099Y353111D01*
X721584Y352247D01*
X721142Y351344D01*
X720777Y350407D01*
X720490Y349443D01*
X720284Y348459D01*
X720159Y347461D01*
X720118Y346457D01*
X720159Y345452D01*
X720284Y344454D01*
X720490Y343470D01*
X720777Y342507D01*
X721142Y341570D01*
X721584Y340667D01*
X722099Y339803D01*
X722683Y338984D01*
X723333Y338217D01*
X724044Y337506D01*
X724811Y336856D01*
X725630Y336272D01*
X726493Y335757D01*
X727397Y335316D01*
X728333Y334950D01*
X729297Y334663D01*
X730281Y334457D01*
X731279Y334333D01*
X732283Y334291D01*
X733288Y334333D01*
X734286Y334457D01*
X735270Y334663D01*
X736234Y334950D01*
X737170Y335316D01*
X738074Y335757D01*
X738937Y336272D01*
X739756Y336856D01*
X740523Y337506D01*
X741234Y338217D01*
X741884Y338984D01*
X742468Y339803D01*
X742983Y340667D01*
X743424Y341570D01*
X743790Y342507D01*
X744077Y343470D01*
X744283Y344454D01*
X744408Y345452D01*
X744449Y346457D01*
Y519685D02*
X744408Y520690D01*
X744283Y521687D01*
X744077Y522672D01*
X743790Y523635D01*
X743424Y524572D01*
X742983Y525475D01*
X742468Y526339D01*
X741884Y527157D01*
X741234Y527925D01*
X740523Y528636D01*
X739756Y529285D01*
X738937Y529870D01*
X738074Y530384D01*
X737170Y530826D01*
X736234Y531191D01*
X735270Y531478D01*
X734286Y531685D01*
X733288Y531809D01*
X732283Y531851D01*
X731279Y531809D01*
X730281Y531685D01*
X729297Y531478D01*
X728333Y531191D01*
X727397Y530826D01*
X726493Y530384D01*
X725630Y529870D01*
X724811Y529285D01*
X724044Y528636D01*
X723333Y527925D01*
X722683Y527157D01*
X722099Y526339D01*
X721584Y525475D01*
X721142Y524572D01*
X720777Y523635D01*
X720490Y522672D01*
X720284Y521687D01*
X720159Y520690D01*
X720118Y519685D01*
X720159Y518680D01*
X720284Y517683D01*
X720490Y516699D01*
X720777Y515735D01*
X721142Y514798D01*
X721584Y513895D01*
X722099Y513031D01*
X722683Y512213D01*
X723333Y511446D01*
X724044Y510735D01*
X724811Y510085D01*
X725630Y509500D01*
X726493Y508986D01*
X727397Y508544D01*
X728333Y508179D01*
X729297Y507892D01*
X730281Y507685D01*
X731279Y507561D01*
X732283Y507519D01*
X733288Y507561D01*
X734286Y507685D01*
X735270Y507892D01*
X736234Y508179D01*
X737170Y508544D01*
X738074Y508986D01*
X738937Y509500D01*
X739756Y510085D01*
X740523Y510735D01*
X741234Y511446D01*
X741884Y512213D01*
X742468Y513031D01*
X742983Y513895D01*
X743424Y514798D01*
X743790Y515735D01*
X744077Y516699D01*
X744283Y517683D01*
X744408Y518680D01*
X744449Y519685D01*
X444921D02*
X444880Y520690D01*
X444756Y521687D01*
X444549Y522672D01*
X444262Y523635D01*
X443897Y524572D01*
X443455Y525475D01*
X442941Y526339D01*
X442356Y527157D01*
X441706Y527925D01*
X440995Y528636D01*
X440228Y529285D01*
X439410Y529870D01*
X438546Y530384D01*
X437643Y530826D01*
X436706Y531191D01*
X435742Y531478D01*
X434758Y531685D01*
X433760Y531809D01*
X432756Y531851D01*
X431751Y531809D01*
X430754Y531685D01*
X429769Y531478D01*
X428806Y531191D01*
X427869Y530826D01*
X426966Y530384D01*
X426102Y529870D01*
X425284Y529285D01*
X424516Y528636D01*
X423805Y527925D01*
X423155Y527157D01*
X422571Y526339D01*
X422057Y525475D01*
X421615Y524572D01*
X421249Y523635D01*
X420963Y522672D01*
X420756Y521687D01*
X420632Y520690D01*
X420590Y519685D01*
X420632Y518680D01*
X420756Y517683D01*
X420963Y516699D01*
X421249Y515735D01*
X421615Y514798D01*
X422057Y513895D01*
X422571Y513031D01*
X423155Y512213D01*
X423805Y511446D01*
X424516Y510735D01*
X425284Y510085D01*
X426102Y509500D01*
X426966Y508986D01*
X427869Y508544D01*
X428806Y508179D01*
X429769Y507892D01*
X430754Y507685D01*
X431751Y507561D01*
X432756Y507519D01*
X433760Y507561D01*
X434758Y507685D01*
X435742Y507892D01*
X436706Y508179D01*
X437643Y508544D01*
X438546Y508986D01*
X439410Y509500D01*
X440228Y510085D01*
X440996Y510735D01*
X441706Y511446D01*
X442356Y512213D01*
X442941Y513031D01*
X443455Y513895D01*
X443897Y514798D01*
X444262Y515735D01*
X444549Y516699D01*
X444756Y517683D01*
X444880Y518680D01*
X444921Y519685D01*
X329534Y350984D02*
X328934Y351331D01*
Y350638D01*
X329534Y350984D01*
Y363189D02*
X328934Y363535D01*
Y362843D01*
X329534Y363189D01*
X349084Y506053D02*
X349801Y506340D01*
X350099Y507053D01*
X508880Y394382D02*
X508280Y394728D01*
Y394035D01*
X508880Y394382D01*
X576563Y321078D02*
X577313Y320434D01*
X578092Y319827D01*
X578900Y319256D01*
X579734Y318725D01*
X580591Y318234D01*
X581471Y317783D01*
X582372Y317375D01*
X583291Y317010D01*
X584226Y316689D01*
X585175Y316412D01*
X586136Y316180D01*
X587107Y315994D01*
X588085Y315855D01*
X589069Y315761D01*
X590057Y315715D01*
X591046D01*
X592033Y315761D01*
X593017Y315855D01*
X593996Y315994D01*
X594967Y316180D01*
X595928Y316412D01*
X596877Y316689D01*
X597812Y317010D01*
X598731Y317375D01*
X599631Y317783D01*
X600511Y318234D01*
X601369Y318725D01*
X602202Y319256D01*
X603010Y319827D01*
X603790Y320434D01*
X604540Y321078D01*
X562790Y329176D02*
X563067Y328211D01*
X563377Y327257D01*
X563720Y326315D01*
X564096Y325384D01*
X564504Y324468D01*
X564944Y323566D01*
X565414Y322681D01*
X565916Y321812D01*
X566448Y320961D01*
X567009Y320129D01*
X567598Y319318D01*
X568216Y318527D01*
X568861Y317759D01*
X569532Y317013D01*
X570229Y316292D01*
X570950Y315595D01*
X571696Y314924D01*
X572464Y314279D01*
X573255Y313661D01*
X574066Y313072D01*
X574898Y312511D01*
X575749Y311979D01*
X576618Y311477D01*
X577503Y311006D01*
X578405Y310567D01*
X579321Y310159D01*
X580252Y309783D01*
X581194Y309440D01*
X582148Y309130D01*
X583113Y308853D01*
X584086Y308611D01*
X585067Y308402D01*
X586055Y308228D01*
X587049Y308088D01*
X588046Y307983D01*
X589047Y307913D01*
X590050Y307878D01*
X591053D01*
X592055Y307913D01*
X593056Y307983D01*
X594054Y308088D01*
X595047Y308228D01*
X596035Y308402D01*
X597016Y308611D01*
X597990Y308853D01*
X598954Y309130D01*
X599908Y309440D01*
X600851Y309783D01*
X601781Y310159D01*
X602697Y310567D01*
X603599Y311006D01*
X604485Y311477D01*
X605353Y311979D01*
X606204Y312511D01*
X607036Y313072D01*
X607847Y313661D01*
X608638Y314279D01*
X609406Y314924D01*
X610152Y315595D01*
X610874Y316292D01*
X611570Y317013D01*
X612242Y317759D01*
X612886Y318527D01*
X613504Y319318D01*
X614094Y320129D01*
X614655Y320961D01*
X615186Y321812D01*
X615688Y322681D01*
X616159Y323566D01*
X616599Y324468D01*
X617007Y325384D01*
X617382Y326315D01*
X617726Y327257D01*
X618036Y328211D01*
X618312Y329176D01*
X493701Y412598D02*
X493297Y413573D01*
X492323Y413976D01*
X687105Y370079D02*
X687892Y370866D01*
X465846Y478346D02*
X464961Y478109D01*
X464312Y477461D01*
X464075Y476575D01*
X467658Y512205D02*
X467921Y511221D01*
X468642Y510500D01*
X469626Y510236D01*
X451713Y405905D02*
X451449Y406890D01*
X450728Y407610D01*
X449744Y407874D01*
X364567Y456693D02*
X363583Y456429D01*
X362862Y455709D01*
X362598Y454724D01*
X573012Y485138D02*
X572748Y486122D01*
X572028Y486843D01*
X571043Y487106D01*
X727362Y443071D02*
X737205D01*
X737284Y413071D02*
Y453071D01*
X727283Y413071D02*
Y453071D01*
X737284D01*
X727283Y413071D02*
X737284D01*
X418386Y363071D02*
Y503071D01*
X408386Y363071D02*
Y503071D01*
X418386D01*
X408386Y363071D02*
X418386D01*
X420886Y413071D02*
X440886D01*
X408386Y493071D02*
X418386D01*
X420886Y483071D02*
X440886D01*
X481496Y433071D02*
Y459055D01*
X470079D02*
X480315D01*
X470079Y433071D02*
Y459055D01*
Y433071D02*
X490158D01*
Y459055D01*
X480315D02*
X490158D01*
X435039D02*
X442126D01*
X435039Y446850D02*
Y459055D01*
Y446850D02*
X442126D01*
Y459055D01*
X694488Y413150D02*
X694567Y413071D01*
X694488Y413150D02*
Y453071D01*
X727283D01*
X694567Y413071D02*
X727283D01*
X418504Y483071D02*
X420886D01*
X418386Y363071D02*
X420787D01*
X418583Y413071D02*
X420886D01*
X442067Y363071D02*
Y413071D01*
X420787Y363071D02*
X442067D01*
X440886Y413071D02*
X442067D01*
X440886Y483071D02*
X442067D01*
Y413071D02*
Y483071D01*
X721654Y384252D02*
X737008D01*
X721654Y361811D02*
Y410630D01*
X737008D01*
Y361811D02*
Y410630D01*
X721654Y361811D02*
X737008D01*
X813780Y385299D02*
X813780Y327299D01*
X758779Y351299D02*
Y361299D01*
Y385299D02*
X818779D01*
X758779Y327299D02*
X818779D01*
Y385299D01*
X758779Y327299D02*
Y385299D01*
X776780Y343299D02*
X790779D01*
X776780Y329299D02*
X790779D01*
Y343299D01*
X776780Y329299D02*
Y343299D01*
Y383299D02*
X790779D01*
X776780Y369299D02*
X790779D01*
Y383299D01*
X776780Y369299D02*
Y383299D01*
X758779Y371299D02*
X768780D01*
X758779Y361299D02*
X768780D01*
Y371299D01*
X758779Y361299D02*
Y371299D01*
Y361299D02*
X768780D01*
X758779Y351299D02*
X768780D01*
Y361299D01*
X758779Y351299D02*
Y361299D01*
Y504843D02*
Y514843D01*
X813780Y538842D02*
X813780Y480842D01*
X758779Y538842D02*
X818779D01*
X758779Y480842D02*
X818779D01*
Y538842D01*
X758779Y480842D02*
Y538842D01*
X776780Y496842D02*
X790779D01*
X776780Y482842D02*
X790779D01*
Y496842D01*
X776780Y482842D02*
Y496842D01*
Y536842D02*
X790779D01*
X776780Y522843D02*
X790779D01*
Y536842D01*
X776780Y522843D02*
Y536842D01*
X758779Y524843D02*
X768780D01*
X758779Y514843D02*
X768780D01*
Y524843D01*
X758779Y514843D02*
Y524843D01*
Y514843D02*
X768780D01*
X758779Y504843D02*
X768780D01*
Y514843D01*
X758779Y504843D02*
Y514843D01*
X396850Y354921D02*
X400394D01*
Y365551D01*
Y415945D02*
Y426575D01*
X396850D02*
X400394D01*
X299213D02*
X326378D01*
X299213Y354921D02*
Y426575D01*
Y354921D02*
X326378D01*
X447024Y458802D02*
X462424D01*
X447024Y423402D02*
X462424D01*
Y458802D01*
X447024Y423402D02*
Y458802D01*
X351072Y495276D02*
Y507087D01*
X349072Y495276D02*
Y507087D01*
Y495276D02*
X351072D01*
X349072Y507087D02*
X351072D01*
X493504Y382185D02*
X510138D01*
X493504D02*
Y403543D01*
X510138D01*
Y382185D02*
Y403543D01*
X527362Y446850D02*
Y482283D01*
X500591Y446850D02*
Y481890D01*
Y475197D02*
X527362D01*
X606791Y323327D02*
X612205Y328740D01*
X614173Y338583D02*
Y354331D01*
X606299D02*
X614173D01*
X566929Y338583D02*
Y354331D01*
X574803D01*
X566929Y328740D02*
X568898D01*
X571358Y326279D01*
X612205Y328740D02*
X614173D01*
X604541Y321077D02*
X606791Y323327D01*
X571358Y326279D02*
X571361D01*
X576559Y321078D02*
X576563D01*
X571361Y326276D02*
X576559Y321078D01*
X378098Y335343D02*
Y338492D01*
X402507Y346563D02*
Y349909D01*
X378098Y335343D02*
X402507D01*
Y338492D01*
X378098Y346563D02*
Y349909D01*
X402507D01*
X492323Y416142D02*
X503543D01*
X492323Y412598D02*
X503543D01*
Y416142D01*
X492323Y412598D02*
Y416142D01*
X688483Y362992D02*
Y370866D01*
X687105Y362992D02*
Y370866D01*
Y362992D02*
X688483D01*
X687105Y370866D02*
X688483D01*
X462106Y476575D02*
Y488386D01*
X466043Y476575D02*
Y488386D01*
X462106D02*
X466043D01*
X462106Y476575D02*
X466043D01*
X469626Y499606D02*
Y512205D01*
X450728Y499606D02*
X469626D01*
X450728D02*
Y512205D01*
X469626D01*
X449744Y405905D02*
X468642D01*
Y413779D01*
X449744D02*
X468642D01*
X449744Y405905D02*
Y413779D01*
X366535Y452756D02*
Y492126D01*
X353937Y452756D02*
Y492126D01*
Y452756D02*
X366535D01*
X353937Y492126D02*
X366535D01*
X364567Y456693D02*
X366535D01*
X362598Y452756D02*
Y454724D01*
X755969Y474543D02*
Y493043D01*
X747968Y474543D02*
Y493043D01*
X754626D02*
X755969D01*
X747968D02*
X749311D01*
X750000Y481968D02*
X753937D01*
X751968D02*
X753543Y484724D01*
X750000D02*
X751968Y481968D01*
X750000Y484724D02*
X753543D01*
X751968Y481181D02*
Y481968D01*
Y484724D02*
Y485906D01*
X569075Y487106D02*
X571043D01*
X573012Y483169D02*
Y485138D01*
X608445Y483169D02*
Y495768D01*
X569075Y483169D02*
Y495768D01*
X608445D01*
X569075Y483169D02*
X608445D01*
X324803Y326772D02*
Y485236D01*
X299213D02*
X324803D01*
X305118Y343504D02*
X324803D01*
X314961Y335630D02*
Y351378D01*
X324803Y350394D02*
Y351378D01*
Y335630D02*
Y350394D01*
X305118Y335630D02*
X324803D01*
X305118D02*
Y351378D01*
X324803D01*
X633583Y349909D02*
X657992D01*
X633583Y346563D02*
Y349909D01*
X657992Y335343D02*
Y338492D01*
X633583Y335343D02*
X657992D01*
Y346563D02*
Y349909D01*
X633583Y335343D02*
Y338492D01*
X686732Y349909D02*
X711142D01*
X686732Y346563D02*
Y349909D01*
X711142Y335343D02*
Y338492D01*
X686732Y335343D02*
X711142D01*
Y346563D02*
Y349909D01*
X686732Y335343D02*
Y338492D01*
X468386Y349410D02*
X469567D01*
X472323D02*
X473110D01*
X469567Y347441D02*
Y350984D01*
Y347441D02*
X472323Y349410D01*
X469567Y350984D02*
X472323Y349410D01*
Y347441D02*
Y351378D01*
X461248Y345409D02*
Y346752D01*
Y352067D02*
Y353410D01*
Y345409D02*
X479748D01*
X461248Y353410D02*
X479748D01*
X471929Y340551D02*
X473110D01*
X468386D02*
X469173D01*
X471929Y338976D02*
Y342520D01*
X469173Y340551D02*
X471929Y342520D01*
X469173Y340551D02*
X471929Y338976D01*
X469173Y338583D02*
Y342520D01*
X480248Y343209D02*
Y344551D01*
Y336551D02*
Y337894D01*
X461748Y344551D02*
X480248D01*
X461748Y336551D02*
X480248D01*
X742126Y481181D02*
Y482362D01*
Y485118D02*
Y485906D01*
X740551Y482362D02*
X744095D01*
X742126Y485118D02*
X744095Y482362D01*
X740551D02*
X742126Y485118D01*
X740158D02*
X744095D01*
X744783Y474043D02*
X746126D01*
X738126D02*
X739468D01*
X746126D02*
Y492543D01*
X738126Y474043D02*
Y492543D01*
X751968Y379803D02*
Y380984D01*
Y383740D02*
Y384528D01*
X750394Y380984D02*
X753937D01*
X751968Y383740D02*
X753937Y380984D01*
X750394D02*
X751968Y383740D01*
X750000D02*
X753937D01*
X754626Y372665D02*
X755969D01*
X747968D02*
X749311D01*
X755969D02*
Y391165D01*
X747968Y372665D02*
Y391165D01*
X742126Y383347D02*
Y384528D01*
Y379803D02*
Y380591D01*
X740158Y383347D02*
X743701D01*
X740158D02*
X742126Y380591D01*
X743701Y383347D01*
X740158Y380591D02*
X744095D01*
X738126Y391665D02*
X739468D01*
X744783D02*
X746126D01*
X738126Y373165D02*
Y391665D01*
X746126Y373165D02*
Y391665D01*
X557087Y354331D02*
X566929D01*
X555118Y326772D02*
Y352362D01*
X557087Y354331D01*
X625984Y326772D02*
Y352362D01*
X624016Y354331D02*
X625984Y352362D01*
X614173Y354331D02*
X624016D01*
X776496Y474379D02*
Y478377D01*
X778496D01*
X779162Y477711D01*
Y476378D01*
X778496Y475711D01*
X776496D01*
X777829D02*
X779162Y474379D01*
X783161Y478377D02*
X780495D01*
Y474379D01*
X783161D01*
X780495Y476378D02*
X781828D01*
X787159Y477711D02*
X786493Y478377D01*
X785160D01*
X784494Y477711D01*
Y475045D01*
X785160Y474379D01*
X786493D01*
X787159Y475045D01*
X791158Y478377D02*
X788492D01*
Y474379D01*
X791158D01*
X788492Y476378D02*
X789825D01*
X792491Y478377D02*
X793824D01*
X793158D01*
Y474379D01*
X792491D01*
X793824D01*
X795823Y478377D02*
Y475711D01*
X797156Y474379D01*
X798489Y475711D01*
Y478377D01*
X802488D02*
X799822D01*
Y474379D01*
X802488D01*
X799822Y476378D02*
X801155D01*
X803821Y474379D02*
Y478377D01*
X805820D01*
X806487Y477711D01*
Y476378D01*
X805820Y475711D01*
X803821D01*
X805154D02*
X806487Y474379D01*
X440538Y463704D02*
Y460705D01*
X438538Y463704D01*
Y460705D01*
X437538D02*
X435539D01*
X436539D01*
Y463704D01*
X432540Y461205D02*
X433040Y460705D01*
X434040D01*
X434540Y461205D01*
Y463204D01*
X434040Y463704D01*
X433040D01*
X432540Y463204D01*
X431540Y462205D02*
X429541D01*
X430541Y461205D02*
Y463204D01*
X663355Y513739D02*
X667354D01*
X665354Y515738D01*
Y513072D01*
X820857Y450818D02*
X819524D01*
X820190D01*
Y446819D01*
X820857Y447486D01*
X790051Y391763D02*
X787385D01*
Y387764D01*
X790051D01*
X787385Y389764D02*
X788718D01*
X791384Y387764D02*
Y391763D01*
X792716Y390430D01*
X794049Y391763D01*
Y387764D01*
X795382Y391763D02*
X796715D01*
X796049D01*
Y387764D01*
X795382D01*
X796715D01*
X798714Y391763D02*
X801380D01*
X800047D01*
Y387764D01*
X802713Y391763D02*
X805379D01*
X804046D01*
Y387764D01*
X809378Y391763D02*
X806712D01*
Y387764D01*
X809378D01*
X806712Y389764D02*
X808045D01*
X810711Y387764D02*
Y391763D01*
X812710D01*
X813376Y391097D01*
Y389764D01*
X812710Y389097D01*
X810711D01*
X812043D02*
X813376Y387764D01*
X306308Y480306D02*
Y481487D01*
Y480897D01*
X303356D01*
X302765Y481487D01*
Y482077D01*
X303356Y482668D01*
X302765Y479126D02*
X303356D01*
Y478535D01*
X302765D01*
Y479126D01*
X663355Y541329D02*
Y539996D01*
Y540662D01*
X667354D01*
X666687Y541329D01*
X479217Y455146D02*
X479717Y455646D01*
Y456645D01*
X479217Y457145D01*
X478717D01*
X478217Y456645D01*
Y455646D01*
X477717Y455146D01*
X477218D01*
X476718Y455646D01*
Y456645D01*
X477218Y457145D01*
X479717Y454146D02*
X476718D01*
X478217D01*
Y452147D01*
X479717D01*
X476718D01*
X479717Y449648D02*
Y450647D01*
X479217Y451147D01*
X477218D01*
X476718Y450647D01*
Y449648D01*
X477218Y449148D01*
X479217D01*
X479717Y449648D01*
X476718Y448148D02*
X479717D01*
Y446649D01*
X479217Y446149D01*
X478217D01*
X477717Y446649D01*
Y448148D01*
Y447148D02*
X476718Y446149D01*
X479717Y445149D02*
Y443150D01*
Y444149D01*
X476718D01*
X479717Y439151D02*
Y438151D01*
Y438651D01*
X476718D01*
Y439151D01*
Y438151D01*
X479717Y434652D02*
Y436652D01*
X478217D01*
Y435652D01*
Y436652D01*
X476718D01*
X471679Y457145D02*
X474678D01*
X471679Y455146D01*
X474678D01*
Y454146D02*
Y453146D01*
Y453646D01*
X471679D01*
Y454146D01*
Y453146D01*
Y451647D02*
X474678D01*
X473678Y450647D01*
X474678Y449648D01*
X471679D01*
X474678Y448648D02*
X471679D01*
X473178D01*
Y446649D01*
X474678D01*
X471679D01*
X474678Y442650D02*
X471679D01*
Y441150D01*
X472179Y440651D01*
X472679D01*
X473178Y441150D01*
Y442650D01*
Y441150D01*
X473678Y440651D01*
X474178D01*
X474678Y441150D01*
Y442650D01*
X471679Y439651D02*
X473678D01*
X474678Y438651D01*
X473678Y437651D01*
X471679D01*
X473178D01*
Y439651D01*
X474678Y436652D02*
Y434652D01*
Y435652D01*
X471679D01*
X306308Y473809D02*
X302765D01*
Y472038D01*
X303356Y471448D01*
X305717D01*
X306308Y472038D01*
Y473809D01*
Y467906D02*
Y470267D01*
X302765D01*
Y467906D01*
X304536Y470267D02*
Y469087D01*
X306308Y466725D02*
X302765D01*
Y464364D01*
Y459641D02*
X306308D01*
Y457870D01*
X305717Y457279D01*
X304536D01*
X303946Y457870D01*
Y459641D01*
X306308Y456099D02*
Y454918D01*
Y455508D01*
X302765D01*
Y456099D01*
Y454918D01*
Y453147D02*
X306308D01*
X302765Y450785D01*
X306308D01*
Y447834D02*
Y449014D01*
X305717Y449605D01*
X303356D01*
X302765Y449014D01*
Y447834D01*
X303356Y447243D01*
X305717D01*
X306308Y447834D01*
X302765Y442520D02*
X306308D01*
X305127Y441340D01*
X306308Y440159D01*
X302765D01*
X306308Y436617D02*
Y438978D01*
X302765D01*
Y436617D01*
X304536Y438978D02*
Y437797D01*
X302765Y435436D02*
X306308D01*
X302765Y433075D01*
X306308D01*
X302765Y431894D02*
X305127D01*
X306308Y430713D01*
X305127Y429532D01*
X302765D01*
X304536D01*
Y431894D01*
X676494Y469125D02*
X673828D01*
Y467126D01*
X675161Y467792D01*
X675828D01*
X676494Y467126D01*
Y465793D01*
X675828Y465127D01*
X674495D01*
X673828Y465793D01*
X754214Y450818D02*
X756880D01*
X754214Y448152D01*
Y447486D01*
X754881Y446819D01*
X756214D01*
X756880Y447486D01*
X699168Y507864D02*
X699834Y507198D01*
Y505865D01*
X699168Y505198D01*
X698501D01*
X697835Y505865D01*
Y506531D01*
Y505865D01*
X697168Y505198D01*
X696502D01*
X695835Y505865D01*
Y507198D01*
X696502Y507864D01*
X724409Y390461D02*
X727075D01*
X728408Y391794D01*
X727075Y393127D01*
X724409D01*
Y394460D02*
X728408D01*
Y396459D01*
X727741Y397126D01*
X727075D01*
X726408Y396459D01*
Y394460D01*
Y396459D01*
X725742Y397126D01*
X725075D01*
X724409Y396459D01*
Y394460D01*
Y398458D02*
Y399791D01*
Y399125D01*
X728408D01*
Y398458D01*
Y399791D01*
Y401791D02*
X725742D01*
X724409Y403124D01*
X725742Y404457D01*
X728408D01*
X726408D01*
Y401791D01*
X725075Y408455D02*
X724409Y407789D01*
Y406456D01*
X725075Y405789D01*
X725742D01*
X726408Y406456D01*
Y407789D01*
X727075Y408455D01*
X727741D01*
X728408Y407789D01*
Y406456D01*
X727741Y405789D01*
X730647Y385796D02*
X734646D01*
Y387795D01*
X733980Y388462D01*
X733313D01*
X732647Y387795D01*
Y385796D01*
Y387795D01*
X731980Y388462D01*
X731314D01*
X730647Y387795D01*
Y385796D01*
Y389795D02*
X731314D01*
X732647Y391127D01*
X731314Y392460D01*
X730647D01*
X732647Y391127D02*
X734646D01*
Y393793D02*
X730647D01*
Y395793D01*
X731314Y396459D01*
X732647D01*
X733313Y395793D01*
Y393793D01*
X734646Y397792D02*
X731980D01*
X730647Y399125D01*
X731980Y400458D01*
X734646D01*
X732647D01*
Y397792D01*
X731314Y404457D02*
X730647Y403790D01*
Y402457D01*
X731314Y401791D01*
X731980D01*
X732647Y402457D01*
Y403790D01*
X733313Y404457D01*
X733980D01*
X734646Y403790D01*
Y402457D01*
X733980Y401791D01*
X731314Y408455D02*
X730647Y407789D01*
Y406456D01*
X731314Y405789D01*
X731980D01*
X732647Y406456D01*
Y407789D01*
X733313Y408455D01*
X733980D01*
X734646Y407789D01*
Y406456D01*
X733980Y405789D01*
X787392Y415006D02*
X786726Y414339D01*
X785393D01*
X784726Y415006D01*
Y415672D01*
X785393Y416339D01*
X786059D01*
X785393D01*
X784726Y417005D01*
Y417671D01*
X785393Y418338D01*
X786726D01*
X787392Y417671D01*
X699834Y531773D02*
X699168Y533106D01*
X697835Y534439D01*
X696502D01*
X695835Y533773D01*
Y532440D01*
X696502Y531773D01*
X697168D01*
X697835Y532440D01*
Y534439D01*
X748653Y437679D02*
Y440345D01*
X746654D01*
X747320Y439012D01*
Y438345D01*
X746654Y437679D01*
X745321D01*
X744654Y438345D01*
Y439678D01*
X745321Y440345D01*
X793267Y450818D02*
Y446819D01*
X795266Y448819D01*
X792600D01*
X322056Y482668D02*
Y480306D01*
Y481487D01*
X318513D01*
X322056Y479126D02*
Y477945D01*
Y478535D01*
X318513D01*
Y479126D01*
Y477945D01*
X322056Y476174D02*
X318513D01*
X319694D01*
X322056Y473812D01*
X320284Y475583D01*
X318513Y473812D01*
Y469089D02*
X322056D01*
X320875Y467909D01*
X322056Y466728D01*
X318513D01*
X322056Y463776D02*
Y464957D01*
X321465Y465547D01*
X319104D01*
X318513Y464957D01*
Y463776D01*
X319104Y463186D01*
X321465D01*
X322056Y463776D01*
Y462005D02*
X318513D01*
Y460234D01*
X319104Y459644D01*
X321465D01*
X322056Y460234D01*
Y462005D01*
Y458463D02*
X319104D01*
X318513Y457873D01*
Y456692D01*
X319104Y456102D01*
X322056D01*
Y454921D02*
X318513D01*
Y452559D01*
X322056Y449017D02*
Y451379D01*
X318513D01*
Y449017D01*
X320284Y451379D02*
Y450198D01*
X318513Y444294D02*
Y443114D01*
Y443704D01*
X322056D01*
X321465Y444294D01*
X711885Y533465D02*
X710573D01*
X711229D01*
Y536745D01*
X710573Y537401D01*
X709917D01*
X709261Y536745D01*
X713197Y533465D02*
Y537401D01*
X715821D01*
X719757Y534121D02*
X719101Y533465D01*
X717789D01*
X717133Y534121D01*
Y536745D01*
X717789Y537401D01*
X719101D01*
X719757Y536745D01*
X723693Y533465D02*
X722381D01*
X723036D01*
Y536745D01*
X722381Y537401D01*
X721725D01*
X721069Y536745D01*
X725004Y533465D02*
Y537401D01*
X727628D01*
X731564Y534121D02*
X730908Y533465D01*
X729596D01*
X728940Y534121D01*
Y536745D01*
X729596Y537401D01*
X730908D01*
X731564Y536745D01*
X735500Y533465D02*
X734188D01*
X734844D01*
Y536745D01*
X734188Y537401D01*
X733532D01*
X732876Y536745D01*
X736812Y533465D02*
Y537401D01*
X739435D01*
X743371Y534121D02*
X742715Y533465D01*
X741403D01*
X740747Y534121D01*
Y536745D01*
X741403Y537401D01*
X742715D01*
X743371Y536745D01*
X747307Y533465D02*
X745995D01*
X746651D01*
Y536745D01*
X745995Y537401D01*
X745339D01*
X744683Y536745D01*
X748619Y533465D02*
Y537401D01*
X751243D01*
X755178Y534121D02*
X754522Y533465D01*
X753210D01*
X752555Y534121D01*
Y536745D01*
X753210Y537401D01*
X754522D01*
X755178Y536745D01*
X663355Y474687D02*
Y477353D01*
X666021Y474687D01*
X666687D01*
X667354Y475353D01*
Y476686D01*
X666687Y477353D01*
X811301Y414339D02*
X812634Y415006D01*
X813967Y416339D01*
Y417671D01*
X813301Y418338D01*
X811968D01*
X811301Y417671D01*
Y417005D01*
X811968Y416339D01*
X813967D01*
X435639Y415154D02*
X439638D01*
Y417153D01*
X438972Y417820D01*
X436306D01*
X435639Y417153D01*
Y415154D01*
Y419152D02*
Y420485D01*
Y419819D01*
X439638D01*
Y419152D01*
Y420485D01*
X436306Y425151D02*
X435639Y424484D01*
Y423151D01*
X436306Y422485D01*
X436972D01*
X437639Y423151D01*
Y424484D01*
X438305Y425151D01*
X438972D01*
X439638Y424484D01*
Y423151D01*
X438972Y422485D01*
X439638Y426483D02*
X435639D01*
Y428483D01*
X436306Y429149D01*
X437639D01*
X438305Y428483D01*
Y426483D01*
X435639Y430482D02*
X439638D01*
Y433148D01*
Y434481D02*
X436972D01*
X435639Y435814D01*
X436972Y437147D01*
X439638D01*
X437639D01*
Y434481D01*
X435639Y438480D02*
X436306D01*
X437639Y439813D01*
X436306Y441145D01*
X435639D01*
X437639Y439813D02*
X439638D01*
X421484Y370070D02*
X424150D01*
X422817D01*
Y366072D01*
X429481Y370070D02*
X430814D01*
X430148D01*
Y366072D01*
X429481D01*
X430814D01*
X432813D02*
Y370070D01*
X434813D01*
X435479Y369404D01*
Y368071D01*
X434813Y367405D01*
X432813D01*
X434146D02*
X435479Y366072D01*
X439478Y366738D02*
Y369404D01*
X438811Y370070D01*
X437478D01*
X436812Y369404D01*
Y366738D01*
X437478Y366072D01*
X438811D01*
X438145Y367405D02*
X439478Y366072D01*
X438811D02*
X439478Y366738D01*
X421484Y380070D02*
X424150D01*
X422817D01*
Y376072D01*
X429481Y380070D02*
Y376072D01*
X431481D01*
X432147Y376738D01*
Y379404D01*
X431481Y380070D01*
X429481D01*
X435479D02*
X434146D01*
X433480Y379404D01*
Y376738D01*
X434146Y376072D01*
X435479D01*
X436146Y376738D01*
Y379404D01*
X435479Y380070D01*
X421484Y390070D02*
X424150D01*
X422817D01*
Y386072D01*
X429481Y390070D02*
Y386072D01*
X431481D01*
X432147Y386738D01*
Y389404D01*
X431481Y390070D01*
X429481D01*
X433480D02*
X434813D01*
X434146D01*
Y386072D01*
X433480D01*
X434813D01*
X436812D02*
Y390070D01*
X439478Y386072D01*
Y390070D01*
X421484Y400070D02*
X424150D01*
X422817D01*
Y396072D01*
X432147Y399404D02*
X431481Y400070D01*
X430148D01*
X429481Y399404D01*
Y396738D01*
X430148Y396072D01*
X431481D01*
X432147Y396738D01*
X436146Y399404D02*
X435479Y400070D01*
X434146D01*
X433480Y399404D01*
Y398737D01*
X434146Y398071D01*
X435479D01*
X436146Y397405D01*
Y396738D01*
X435479Y396072D01*
X434146D01*
X433480Y396738D01*
X421484Y410070D02*
X424150D01*
X422817D01*
Y406072D01*
X432147Y409404D02*
X431481Y410070D01*
X430148D01*
X429481Y409404D01*
Y406738D01*
X430148Y406072D01*
X431481D01*
X432147Y406738D01*
X433480Y410070D02*
Y406072D01*
X436146D01*
X437479Y410070D02*
Y406072D01*
Y407404D01*
X440144Y410070D01*
X438145Y408071D01*
X440144Y406072D01*
X424150Y419404D02*
X423483Y420070D01*
X422150D01*
X421484Y419404D01*
Y418737D01*
X422150Y418071D01*
X423483D01*
X424150Y417404D01*
Y416738D01*
X423483Y416072D01*
X422150D01*
X421484Y416738D01*
X425482Y420070D02*
Y416072D01*
X427482D01*
X428148Y416738D01*
Y419404D01*
X427482Y420070D01*
X425482D01*
X431481D02*
X430148D01*
X429481Y419404D01*
Y416738D01*
X430148Y416072D01*
X431481D01*
X432147Y416738D01*
Y419404D01*
X431481Y420070D01*
X421484Y430070D02*
Y426072D01*
X424150D01*
X428148Y430070D02*
X425483D01*
Y426072D01*
X428148D01*
X425483Y428071D02*
X426815D01*
X429481Y430070D02*
Y426072D01*
X431481D01*
X432147Y426738D01*
Y429404D01*
X431481Y430070D01*
X429481D01*
X424150Y439404D02*
X423483Y440070D01*
X422150D01*
X421484Y439404D01*
Y438737D01*
X422150Y438071D01*
X423483D01*
X424150Y437404D01*
Y436738D01*
X423483Y436071D01*
X422150D01*
X421484Y436738D01*
X428148Y439404D02*
X427482Y440070D01*
X426149D01*
X425483Y439404D01*
Y436738D01*
X426149Y436071D01*
X427482D01*
X428148Y436738D01*
X429481Y440070D02*
Y436071D01*
Y437404D01*
X432147Y440070D01*
X430148Y438071D01*
X432147Y436071D01*
X424150Y449404D02*
X423483Y450070D01*
X422150D01*
X421484Y449404D01*
Y448737D01*
X422150Y448071D01*
X423483D01*
X424150Y447404D01*
Y446738D01*
X423483Y446071D01*
X422150D01*
X421484Y446738D01*
X425483Y450070D02*
Y446071D01*
X427482D01*
X428148Y446738D01*
Y449404D01*
X427482Y450070D01*
X425483D01*
X429481D02*
X430814D01*
X430148D01*
Y446071D01*
X429481D01*
X430814D01*
X421484Y460070D02*
Y456072D01*
X423483D01*
X424150Y456738D01*
Y459404D01*
X423483Y460070D01*
X421484D01*
X428148Y459404D02*
X427482Y460070D01*
X426149D01*
X425482Y459404D01*
Y456738D01*
X426149Y456072D01*
X427482D01*
X428148Y456738D01*
X421484Y466072D02*
Y470070D01*
X423483D01*
X424150Y469404D01*
Y468071D01*
X423483Y467404D01*
X421484D01*
X422817D02*
X424150Y466072D01*
X428148Y470070D02*
X425483D01*
Y466072D01*
X428148D01*
X425483Y468071D02*
X426815D01*
X432147Y469404D02*
X431481Y470070D01*
X430148D01*
X429481Y469404D01*
Y468737D01*
X430148Y468071D01*
X431481D01*
X432147Y467404D01*
Y466738D01*
X431481Y466072D01*
X430148D01*
X429481Y466738D01*
X436146Y470070D02*
X433480D01*
Y466072D01*
X436146D01*
X433480Y468071D02*
X434813D01*
X437479Y470070D02*
X440144D01*
X438811D01*
Y466072D01*
X424150Y479404D02*
X423483Y480070D01*
X422150D01*
X421484Y479404D01*
Y476738D01*
X422150Y476072D01*
X423483D01*
X424150Y476738D01*
X428148Y479404D02*
X427482Y480070D01*
X426149D01*
X425482Y479404D01*
Y478737D01*
X426149Y478071D01*
X427482D01*
X428148Y477404D01*
Y476738D01*
X427482Y476072D01*
X426149D01*
X425482Y476738D01*
X424150Y489404D02*
X423483Y490070D01*
X422150D01*
X421484Y489404D01*
Y486738D01*
X422150Y486071D01*
X423483D01*
X424150Y486738D01*
Y488071D01*
X422817D01*
X425483Y486071D02*
Y490070D01*
X428148Y486071D01*
Y490070D01*
X429481D02*
Y486071D01*
X431481D01*
X432147Y486738D01*
Y489404D01*
X431481Y490070D01*
X429481D01*
X421484Y500070D02*
Y497404D01*
X422817Y496071D01*
X424150Y497404D01*
Y500070D01*
X428148Y499404D02*
X427482Y500070D01*
X426149D01*
X425483Y499404D01*
Y496738D01*
X426149Y496071D01*
X427482D01*
X428148Y496738D01*
X432147Y499404D02*
X431481Y500070D01*
X430148D01*
X429481Y499404D01*
Y496738D01*
X430148Y496071D01*
X431481D01*
X432147Y496738D01*
X720120Y416740D02*
X720786Y416074D01*
X722119D01*
X722786Y416740D01*
Y417406D01*
X722119Y418073D01*
X720786D01*
X720120Y418739D01*
Y419406D01*
X720786Y420072D01*
X722119D01*
X722786Y419406D01*
X718787Y416074D02*
Y420072D01*
X716788D01*
X716121Y419406D01*
Y416740D01*
X716788Y416074D01*
X718787D01*
X708124Y416740D02*
X708790Y416074D01*
X710123D01*
X710790Y416740D01*
Y417406D01*
X710123Y418073D01*
X708790D01*
X708124Y418739D01*
Y419406D01*
X708790Y420072D01*
X710123D01*
X710790Y419406D01*
X704125Y416740D02*
X704791Y416074D01*
X706124D01*
X706791Y416740D01*
Y419406D01*
X706124Y420072D01*
X704791D01*
X704125Y419406D01*
X702792Y416074D02*
Y420072D01*
Y418739D01*
X700126Y416074D01*
X702126Y418073D01*
X700126Y420072D01*
X720120Y426740D02*
X720786Y426074D01*
X722119D01*
X722786Y426740D01*
Y427406D01*
X722119Y428073D01*
X720786D01*
X720120Y428739D01*
Y429406D01*
X720786Y430072D01*
X722119D01*
X722786Y429406D01*
X718787Y426074D02*
Y430072D01*
X716788D01*
X716121Y429406D01*
Y426740D01*
X716788Y426074D01*
X718787D01*
X710790Y430072D02*
Y426074D01*
X709457Y427406D01*
X708124Y426074D01*
Y430072D01*
X706791Y426074D02*
X705458D01*
X706124D01*
Y430072D01*
X706791D01*
X705458D01*
X700793Y426740D02*
X701459Y426074D01*
X702792D01*
X703459Y426740D01*
Y427406D01*
X702792Y428073D01*
X701459D01*
X700793Y428739D01*
Y429406D01*
X701459Y430072D01*
X702792D01*
X703459Y429406D01*
X697461Y426074D02*
X698794D01*
X699460Y426740D01*
Y429406D01*
X698794Y430072D01*
X697461D01*
X696794Y429406D01*
Y426740D01*
X697461Y426074D01*
X720120Y436740D02*
X720787Y436073D01*
X722119D01*
X722786Y436740D01*
Y437406D01*
X722119Y438073D01*
X720787D01*
X720120Y438739D01*
Y439406D01*
X720787Y440072D01*
X722119D01*
X722786Y439406D01*
X718787Y436073D02*
Y440072D01*
X716788D01*
X716121Y439406D01*
Y436740D01*
X716788Y436073D01*
X718787D01*
X710790Y440072D02*
Y436073D01*
X709457Y437406D01*
X708124Y436073D01*
Y440072D01*
X704792Y436073D02*
X706124D01*
X706791Y436740D01*
Y439406D01*
X706124Y440072D01*
X704792D01*
X704125Y439406D01*
Y436740D01*
X704792Y436073D01*
X700127Y436740D02*
X700793Y436073D01*
X702126D01*
X702792Y436740D01*
Y437406D01*
X702126Y438073D01*
X700793D01*
X700127Y438739D01*
Y439406D01*
X700793Y440072D01*
X702126D01*
X702792Y439406D01*
X698794Y436073D02*
X697461D01*
X698127D01*
Y440072D01*
X698794D01*
X697461D01*
X720120Y446740D02*
X720786Y446073D01*
X722119D01*
X722786Y446740D01*
Y447406D01*
X722119Y448073D01*
X720786D01*
X720120Y448739D01*
Y449406D01*
X720786Y450072D01*
X722119D01*
X722786Y449406D01*
X718787Y446073D02*
Y450072D01*
X716788D01*
X716121Y449406D01*
Y446740D01*
X716788Y446073D01*
X718787D01*
X708124Y446740D02*
X708790Y446073D01*
X710123D01*
X710790Y446740D01*
Y449406D01*
X710123Y450072D01*
X708790D01*
X708124Y449406D01*
X704125Y446740D02*
X704792Y446073D01*
X706124D01*
X706791Y446740D01*
Y447406D01*
X706124Y448073D01*
X704792D01*
X704125Y448739D01*
Y449406D01*
X704792Y450072D01*
X706124D01*
X706791Y449406D01*
X313591Y438376D02*
X314181Y437786D01*
Y436605D01*
X313591Y436015D01*
X311230D01*
X310639Y436605D01*
Y437786D01*
X311230Y438376D01*
X313591D01*
X310639Y434834D02*
X311230D01*
Y434244D01*
X310639D01*
Y434834D01*
X314181Y429521D02*
X313591Y430702D01*
X312410Y431882D01*
X311230D01*
X310639Y431292D01*
Y430111D01*
X311230Y429521D01*
X311820D01*
X312410Y430111D01*
Y431882D01*
X314181Y444282D02*
X311820D01*
X310639Y443101D01*
X311820Y441920D01*
X314181D01*
X310639Y480306D02*
Y482668D01*
X313001Y480306D01*
X313591D01*
X314181Y480897D01*
Y482077D01*
X313591Y482668D01*
Y479126D02*
X314181Y478535D01*
Y477354D01*
X313591Y476764D01*
X311230D01*
X310639Y477354D01*
Y478535D01*
X311230Y479126D01*
X313591D01*
X310639Y473222D02*
Y475583D01*
X313001Y473222D01*
X313591D01*
X314181Y473812D01*
Y474993D01*
X313591Y475583D01*
X310639Y469680D02*
Y472041D01*
X313001Y469680D01*
X313591D01*
X314181Y470270D01*
Y471451D01*
X313591Y472041D01*
X312410Y468499D02*
Y466138D01*
X313591Y464957D02*
X314181Y464367D01*
Y463186D01*
X313591Y462596D01*
X311230D01*
X310639Y463186D01*
Y464367D01*
X311230Y464957D01*
X313591D01*
X314181Y459053D02*
X313591Y460234D01*
X312410Y461415D01*
X311230D01*
X310639Y460824D01*
Y459644D01*
X311230Y459053D01*
X311820D01*
X312410Y459644D01*
Y461415D01*
Y457873D02*
Y455511D01*
X310639Y454330D02*
Y453150D01*
Y453740D01*
X314181D01*
X313591Y454330D01*
Y451379D02*
X314181Y450788D01*
Y449608D01*
X313591Y449017D01*
X311230D01*
X310639Y449608D01*
Y450788D01*
X311230Y451379D01*
X313591D01*
X468224Y438433D02*
X464225D01*
Y436434D01*
X464891Y435768D01*
X465558D01*
X466224Y436434D01*
Y438433D01*
Y436434D01*
X466891Y435768D01*
X467557D01*
X468224Y436434D01*
Y438433D01*
X464225Y434435D02*
X466891D01*
X468224Y433102D01*
X466891Y431769D01*
X464225D01*
X466224D01*
Y434435D01*
X468224Y430436D02*
Y427770D01*
Y429103D01*
X464225D01*
X466224Y426437D02*
Y423771D01*
X467557Y425104D02*
X464891D01*
X468224Y458433D02*
X464225D01*
Y456434D01*
X464891Y455767D01*
X465558D01*
X466224Y456434D01*
Y458433D01*
Y456434D01*
X466891Y455767D01*
X467557D01*
X468224Y456434D01*
Y458433D01*
X464225Y454435D02*
X466891D01*
X468224Y453102D01*
X466891Y451769D01*
X464225D01*
X466224D01*
Y454435D01*
X468224Y450436D02*
Y447770D01*
Y449103D01*
X464225D01*
X466224Y446437D02*
Y443771D01*
X620074Y332329D02*
X620740Y332995D01*
Y334328D01*
X620074Y334994D01*
X617408D01*
X616742Y334328D01*
Y332995D01*
X617408Y332329D01*
X618741D01*
Y333661D01*
X563694Y332329D02*
X564361Y332995D01*
Y334328D01*
X563694Y334994D01*
X561028D01*
X560362Y334328D01*
Y332995D01*
X561028Y332329D01*
X598394Y360201D02*
Y358868D01*
Y359534D01*
X602393D01*
X601727Y360201D01*
X592551Y361533D02*
Y358868D01*
Y360201D01*
X588552D01*
X578709Y358868D02*
Y361533D01*
X581375Y358868D01*
X582042D01*
X582708Y359534D01*
Y360867D01*
X582042Y361533D01*
X568928Y516171D02*
X564930D01*
X566263Y517504D01*
X564930Y518837D01*
X568928D01*
X564930Y522836D02*
Y520170D01*
X568928D01*
Y522836D01*
X566929Y520170D02*
Y521503D01*
X568928Y524169D02*
X566263D01*
X564930Y525501D01*
X566263Y526834D01*
X568928D01*
X566929D01*
Y524169D01*
X565596Y530833D02*
X564930Y530167D01*
Y528834D01*
X565596Y528167D01*
X566263D01*
X566929Y528834D01*
Y530167D01*
X567596Y530833D01*
X568262D01*
X568928Y530167D01*
Y528834D01*
X568262Y528167D01*
X666641Y353969D02*
X670640D01*
Y351970D01*
X669973Y351304D01*
X668640D01*
X667974Y351970D01*
Y353969D01*
Y352636D02*
X666641Y351304D01*
X665975Y349971D02*
Y347305D01*
X666641Y345972D02*
X669307D01*
X670640Y344639D01*
X669307Y343306D01*
X666641D01*
X668640D01*
Y345972D01*
X666641Y341973D02*
X670640D01*
X669307Y340640D01*
X670640Y339307D01*
X666641D01*
Y337974D02*
X670640D01*
Y335975D01*
X669973Y335309D01*
X668640D01*
X667974Y335975D01*
Y337974D01*
X677529Y351304D02*
Y353969D01*
X673531D01*
Y351304D01*
X675530Y353969D02*
Y352636D01*
X672864Y349971D02*
Y347305D01*
X673531Y345972D02*
X676196D01*
X677529Y344639D01*
X676196Y343306D01*
X673531D01*
X675530D01*
Y345972D01*
X673531Y341973D02*
X677529D01*
X676196Y340640D01*
X677529Y339307D01*
X673531D01*
Y337974D02*
X677529D01*
Y335975D01*
X676863Y335309D01*
X675530D01*
X674864Y335975D01*
Y337974D01*
X531845Y347305D02*
X532511Y347971D01*
Y349304D01*
X531845Y349971D01*
X529179D01*
X528512Y349304D01*
Y347971D01*
X529179Y347305D01*
X530512D01*
Y348638D01*
X528512Y345972D02*
X532511D01*
X528512Y343306D01*
X532511D01*
Y341973D02*
X528512D01*
Y339974D01*
X529179Y339307D01*
X531845D01*
X532511Y339974D01*
Y341973D01*
X531845Y337975D02*
X532511Y337308D01*
Y335975D01*
X531845Y335309D01*
X531178D01*
X530512Y335975D01*
Y336642D01*
Y335975D01*
X529845Y335309D01*
X529179D01*
X528512Y335975D01*
Y337308D01*
X529179Y337975D01*
X325913Y332021D02*
X326569Y332677D01*
X327880D01*
X328536Y332021D01*
Y331365D01*
X327880Y330709D01*
X327224D01*
X327880D01*
X328536Y330053D01*
Y329397D01*
X327880Y328741D01*
X326569D01*
X325913Y329397D01*
X329848Y332677D02*
Y330053D01*
X331160Y328741D01*
X332472Y330053D01*
Y332677D01*
X333784Y332021D02*
X334440Y332677D01*
X335752D01*
X336408Y332021D01*
Y331365D01*
X335752Y330709D01*
X335096D01*
X335752D01*
X336408Y330053D01*
Y329397D01*
X335752Y328741D01*
X334440D01*
X333784Y329397D01*
X557722Y518837D02*
X557056Y518170D01*
Y516838D01*
X557722Y516171D01*
X560388D01*
X561055Y516838D01*
Y518170D01*
X560388Y518837D01*
X557056Y520170D02*
X561055D01*
X559055D01*
Y522836D01*
X557056D01*
X561055D01*
Y524169D02*
X557056D01*
Y526168D01*
X557722Y526834D01*
X559055D01*
X559722Y526168D01*
Y524169D01*
Y525501D02*
X561055Y526834D01*
X557722Y530833D02*
X557056Y530167D01*
Y528834D01*
X557722Y528167D01*
X560388D01*
X561055Y528834D01*
Y530167D01*
X560388Y530833D01*
X559055D01*
Y529500D01*
X549848Y518837D02*
X549182Y518170D01*
Y516838D01*
X549848Y516171D01*
X550515D01*
X551181Y516838D01*
Y518170D01*
X551848Y518837D01*
X552514D01*
X553181Y518170D01*
Y516838D01*
X552514Y516171D01*
X549182Y520170D02*
Y522836D01*
Y521503D01*
X553181D01*
X549182Y524169D02*
X553181D01*
Y526168D01*
X552514Y526834D01*
X551848D01*
X551181Y526168D01*
Y524169D01*
Y526168D01*
X550515Y526834D01*
X549848D01*
X549182Y526168D01*
Y524169D01*
Y528167D02*
X549848D01*
X551181Y529500D01*
X549848Y530833D01*
X549182D01*
X551181Y529500D02*
X553181D01*
X756921Y349304D02*
X752922D01*
Y347305D01*
X753588Y346638D01*
X754255D01*
X754921Y347305D01*
Y349304D01*
Y347305D01*
X755588Y346638D01*
X756254D01*
X756921Y347305D01*
Y349304D01*
Y345305D02*
Y343972D01*
Y344639D01*
X752922D01*
Y345305D01*
Y343972D01*
Y341973D02*
X755588D01*
X756921Y340640D01*
X755588Y339307D01*
X752922D01*
X754921D01*
Y341973D01*
X756254Y335309D02*
X756921Y335975D01*
Y337308D01*
X756254Y337975D01*
X755588D01*
X754921Y337308D01*
Y335975D01*
X754255Y335309D01*
X753588D01*
X752922Y335975D01*
Y337308D01*
X753588Y337975D01*
X749364Y347305D02*
X750031Y347971D01*
Y349304D01*
X749364Y349971D01*
X746699D01*
X746032Y349304D01*
Y347971D01*
X746699Y347305D01*
X748032D01*
Y348638D01*
X746032Y345972D02*
X750031D01*
X746032Y343306D01*
X750031D01*
Y341973D02*
X746032D01*
Y339974D01*
X746699Y339307D01*
X749364D01*
X750031Y339974D01*
Y341973D01*
X746032Y335309D02*
Y337975D01*
X748698Y335309D01*
X749364D01*
X750031Y335975D01*
Y337308D01*
X749364Y337975D01*
X573470Y518837D02*
X572804Y518170D01*
Y516838D01*
X573470Y516171D01*
X576136D01*
X576802Y516838D01*
Y518170D01*
X576136Y518837D01*
X574803D01*
Y517504D01*
X576802Y520170D02*
X572804D01*
X576802Y522836D01*
X572804D01*
Y524169D02*
X576802D01*
Y526168D01*
X576136Y526834D01*
X573470D01*
X572804Y526168D01*
Y524169D01*
X576802Y530167D02*
X572804D01*
X574803Y528167D01*
Y530833D01*
X326272Y432056D02*
Y436055D01*
X328272D01*
X328938Y435388D01*
Y434055D01*
X328272Y433389D01*
X326272D01*
X327605D02*
X328938Y432056D01*
X330271Y436055D02*
X332937Y432056D01*
Y436055D02*
X330271Y432056D01*
X334270Y436055D02*
Y432056D01*
X336269D01*
X336935Y432722D01*
Y435388D01*
X336269Y436055D01*
X334270D01*
X326272Y478316D02*
Y482314D01*
X328272D01*
X328938Y481648D01*
Y480315D01*
X328272Y479648D01*
X326272D01*
X327605D02*
X328938Y478316D01*
X330271Y482314D02*
X332937D01*
X331604D01*
Y478316D01*
X336935Y481648D02*
X336269Y482314D01*
X334936D01*
X334270Y481648D01*
Y480981D01*
X334936Y480315D01*
X336269D01*
X336935Y479648D01*
Y478982D01*
X336269Y478316D01*
X334936D01*
X334270Y478982D01*
X326272Y475425D02*
Y471426D01*
X328272D01*
X328938Y472092D01*
Y474758D01*
X328272Y475425D01*
X326272D01*
X330271D02*
X332937D01*
X331604D01*
Y471426D01*
X334270D02*
Y475425D01*
X336269D01*
X336935Y474758D01*
Y473425D01*
X336269Y472759D01*
X334270D01*
X335602D02*
X336935Y471426D01*
X329163Y537432D02*
Y534767D01*
X330496Y533434D01*
X331829Y534767D01*
Y537432D01*
X333162D02*
Y534100D01*
X333828Y533434D01*
X335161D01*
X335828Y534100D01*
Y537432D01*
X339826Y536766D02*
X339160Y537432D01*
X337827D01*
X337161Y536766D01*
Y536099D01*
X337827Y535433D01*
X339160D01*
X339826Y534767D01*
Y534100D01*
X339160Y533434D01*
X337827D01*
X337161Y534100D01*
X341159Y537432D02*
Y533434D01*
X343159D01*
X343825Y534100D01*
Y534767D01*
X343159Y535433D01*
X341159D01*
X343159D01*
X343825Y536099D01*
Y536766D01*
X343159Y537432D01*
X341159D01*
X506208Y361967D02*
X510207D01*
Y359967D01*
X509540Y359301D01*
X508207D01*
X507541Y359967D01*
Y361967D01*
X510207Y357968D02*
X506208D01*
X507541Y356635D01*
X506208Y355302D01*
X510207D01*
X505541Y353969D02*
Y351304D01*
X510207Y349971D02*
X506208D01*
X508207D01*
Y347305D01*
X510207D01*
X506208D01*
X510207Y343972D02*
Y345305D01*
X509540Y345972D01*
X506874D01*
X506208Y345305D01*
Y343972D01*
X506874Y343306D01*
X509540D01*
X510207Y343972D01*
Y341973D02*
X506208D01*
Y339307D01*
X510207Y337974D02*
X506208D01*
Y335975D01*
X506874Y335309D01*
X509540D01*
X510207Y335975D01*
Y337974D01*
X514082Y361967D02*
X518081D01*
Y359967D01*
X517414Y359301D01*
X516081D01*
X515415Y359967D01*
Y361967D01*
X518081Y357968D02*
X514082D01*
X515415Y356635D01*
X514082Y355302D01*
X518081D01*
X513415Y353969D02*
Y351304D01*
X518081Y349971D02*
X514748D01*
X514082Y349304D01*
Y347971D01*
X514748Y347305D01*
X518081D01*
X517414Y343306D02*
X518081Y343972D01*
Y345305D01*
X517414Y345972D01*
X516748D01*
X516081Y345305D01*
Y343972D01*
X515415Y343306D01*
X514748D01*
X514082Y343972D01*
Y345305D01*
X514748Y345972D01*
X518081Y339307D02*
Y341973D01*
X514082D01*
Y339307D01*
X516081Y341973D02*
Y340640D01*
X514082Y337974D02*
X518081D01*
Y335975D01*
X517414Y335309D01*
X516081D01*
X515415Y335975D01*
Y337974D01*
Y336642D02*
X514082Y335309D01*
X525955Y359301D02*
Y361967D01*
X521956D01*
Y359301D01*
X523955Y361967D02*
Y360634D01*
X521956Y357968D02*
X525955D01*
X521956Y355302D01*
X525955D01*
X521289Y353969D02*
Y351304D01*
X525955Y349971D02*
X521956D01*
Y347971D01*
X522622Y347305D01*
X525288D01*
X525955Y347971D01*
Y349971D01*
X525288Y343306D02*
X525955Y343972D01*
Y345305D01*
X525288Y345972D01*
X522622D01*
X521956Y345305D01*
Y343972D01*
X522622Y343306D01*
X525955Y341973D02*
X521956D01*
Y339974D01*
X522622Y339307D01*
X525288D01*
X525955Y339974D01*
Y341973D01*
X525288Y335309D02*
X525955Y335975D01*
Y337308D01*
X525288Y337974D01*
X522622D01*
X521956Y337308D01*
Y335975D01*
X522622Y335309D01*
X493459Y350637D02*
X494125Y351304D01*
Y352636D01*
X493459Y353303D01*
X490793D01*
X490127Y352636D01*
Y351304D01*
X490793Y350637D01*
X492126D01*
Y351970D01*
X490127Y349304D02*
X494125D01*
Y347305D01*
X493459Y346638D01*
X492126D01*
X491460Y347305D01*
Y349304D01*
X494125Y345305D02*
Y343972D01*
Y344639D01*
X490127D01*
Y345305D01*
Y343972D01*
X494125Y339974D02*
Y341307D01*
X493459Y341973D01*
X490793D01*
X490127Y341307D01*
Y339974D01*
X490793Y339307D01*
X493459D01*
X494125Y339974D01*
X493459Y337975D02*
X494125Y337308D01*
Y335975D01*
X493459Y335309D01*
X490793D01*
X490127Y335975D01*
Y337308D01*
X490793Y337975D01*
X493459D01*
X502333Y355302D02*
Y357968D01*
X498334D01*
Y355302D01*
X500333Y357968D02*
Y356635D01*
X498334Y353969D02*
X502333D01*
X498334Y351304D01*
X502333D01*
X497667Y349971D02*
Y347305D01*
X498334Y345972D02*
X502333D01*
X501000Y344639D01*
X502333Y343306D01*
X498334D01*
X501666Y339307D02*
X502333Y339974D01*
Y341307D01*
X501666Y341973D01*
X499000D01*
X498334Y341307D01*
Y339974D01*
X499000Y339307D01*
X502333Y337975D02*
X499000D01*
X498334Y337308D01*
Y335975D01*
X499000Y335309D01*
X502333D01*
X343267Y439584D02*
X343934Y438917D01*
X345267D01*
X345933Y439584D01*
Y442249D01*
X345267Y442916D01*
X343934D01*
X343267Y442249D01*
Y440917D01*
X344600D01*
X341934Y442916D02*
Y438917D01*
X339269Y442916D01*
Y438917D01*
X337936D02*
Y442916D01*
X335936D01*
X335270Y442249D01*
Y439584D01*
X335936Y438917D01*
X337936D01*
X333937Y442916D02*
X332604D01*
X333271D01*
Y438917D01*
X333937Y439584D01*
X355915Y436055D02*
X358581D01*
X357248D01*
Y432056D01*
X359914Y436055D02*
X362579Y432056D01*
Y436055D02*
X359914Y432056D01*
X363912Y436055D02*
Y432056D01*
X365912D01*
X366578Y432722D01*
Y435388D01*
X365912Y436055D01*
X363912D01*
X388002Y329497D02*
Y333495D01*
X390001D01*
X390667Y332829D01*
Y331496D01*
X390001Y330830D01*
X388002D01*
X392000Y333495D02*
Y329497D01*
X393333Y330830D01*
X394666Y329497D01*
Y333495D01*
X395999Y329497D02*
Y333495D01*
X397998D01*
X398665Y332829D01*
Y331496D01*
X397998Y330830D01*
X395999D01*
X397332D02*
X398665Y329497D01*
X399998Y333495D02*
Y330163D01*
X400664Y329497D01*
X401997D01*
X402664Y330163D01*
Y333495D01*
X403996Y329497D02*
Y333495D01*
X405996D01*
X406662Y332829D01*
Y331496D01*
X405996Y330830D01*
X403996D01*
X403195Y525206D02*
X402528Y525873D01*
Y527206D01*
X403195Y527872D01*
X403861D01*
X404528Y527206D01*
Y526539D01*
Y527206D01*
X405194Y527872D01*
X405861D01*
X406527Y527206D01*
Y525873D01*
X405861Y525206D01*
X402528Y529205D02*
X405194D01*
X406527Y530538D01*
X405194Y531871D01*
X402528D01*
X403195Y533204D02*
X402528Y533870D01*
Y535203D01*
X403195Y535870D01*
X403861D01*
X404528Y535203D01*
Y534537D01*
Y535203D01*
X405194Y535870D01*
X405861D01*
X406527Y535203D01*
Y533870D01*
X405861Y533204D01*
X371032Y525206D02*
X375031D01*
Y527206D01*
X374364Y527872D01*
X371699D01*
X371032Y527206D01*
Y525206D01*
Y529205D02*
Y531871D01*
Y530538D01*
X375031D01*
Y533204D02*
X371032D01*
Y535203D01*
X371699Y535870D01*
X373031D01*
X373698Y535203D01*
Y533204D01*
Y534537D02*
X375031Y535870D01*
X382905Y525206D02*
X378906D01*
Y527206D01*
X379573Y527872D01*
X380906D01*
X381572Y527206D01*
Y525206D01*
Y526539D02*
X382905Y527872D01*
X378906Y529205D02*
Y531871D01*
Y530538D01*
X382905D01*
X379573Y535870D02*
X378906Y535203D01*
Y533870D01*
X379573Y533204D01*
X380239D01*
X380906Y533870D01*
Y535203D01*
X381572Y535870D01*
X382238D01*
X382905Y535203D01*
Y533870D01*
X382238Y533204D01*
X390779Y525206D02*
X386780D01*
Y527206D01*
X387447Y527872D01*
X388779D01*
X389446Y527206D01*
Y525206D01*
Y526539D02*
X390779Y527872D01*
X386780Y529205D02*
X390779Y531871D01*
X386780D02*
X390779Y529205D01*
X386780Y533204D02*
X390779D01*
Y535203D01*
X390112Y535870D01*
X387447D01*
X386780Y535203D01*
Y533204D01*
X394654Y525206D02*
Y527872D01*
Y526539D01*
X398653D01*
X394654Y529205D02*
X398653Y531871D01*
X394654D02*
X398653Y529205D01*
X394654Y533204D02*
X398653D01*
Y535203D01*
X397986Y535870D01*
X395321D01*
X394654Y535203D01*
Y533204D01*
X488825Y523738D02*
X488158Y523072D01*
Y521739D01*
X488825Y521072D01*
X491490D01*
X492157Y521739D01*
Y523072D01*
X491490Y523738D01*
X488158Y525071D02*
X492157D01*
X490158D01*
Y527737D01*
X488158D01*
X492157D01*
Y529070D02*
X488158D01*
Y531069D01*
X488825Y531736D01*
X490158D01*
X490824Y531069D01*
Y529070D01*
Y530403D02*
X492157Y531736D01*
X488825Y535734D02*
X488158Y535068D01*
Y533735D01*
X488825Y533069D01*
X491490D01*
X492157Y533735D01*
Y535068D01*
X491490Y535734D01*
X490158D01*
Y534402D01*
X480951Y523738D02*
X480284Y523072D01*
Y521739D01*
X480951Y521072D01*
X481617D01*
X482283Y521739D01*
Y523072D01*
X482950Y523738D01*
X483616D01*
X484283Y523072D01*
Y521739D01*
X483616Y521072D01*
X480284Y525071D02*
Y527737D01*
Y526404D01*
X484283D01*
X480284Y529070D02*
X484283D01*
Y531069D01*
X483616Y531736D01*
X482950D01*
X482283Y531069D01*
Y529070D01*
Y531069D01*
X481617Y531736D01*
X480951D01*
X480284Y531069D01*
Y529070D01*
Y533069D02*
X480951D01*
X482283Y534402D01*
X480951Y535734D01*
X480284D01*
X482283Y534402D02*
X484283D01*
X696378Y329340D02*
Y333339D01*
X698378D01*
X699044Y332672D01*
Y331340D01*
X698378Y330673D01*
X696378D01*
X697711D02*
X699044Y329340D01*
X703043Y333339D02*
X700377D01*
Y329340D01*
X703043D01*
X700377Y331340D02*
X701710D01*
X707042Y332672D02*
X706375Y333339D01*
X705042D01*
X704376Y332672D01*
Y332006D01*
X705042Y331340D01*
X706375D01*
X707042Y330673D01*
Y330007D01*
X706375Y329340D01*
X705042D01*
X704376Y330007D01*
X711040Y333339D02*
X708375D01*
Y329340D01*
X711040D01*
X708375Y331340D02*
X709707D01*
X712373Y333339D02*
X715039D01*
X713706D01*
Y329340D01*
X643260Y333339D02*
Y329340D01*
X645259D01*
X645925Y330007D01*
Y330673D01*
X645259Y331340D01*
X643260D01*
X645259D01*
X645925Y332006D01*
Y332672D01*
X645259Y333339D01*
X643260D01*
X649258D02*
X647925D01*
X647258Y332672D01*
Y330007D01*
X647925Y329340D01*
X649258D01*
X649924Y330007D01*
Y332672D01*
X649258Y333339D01*
X653256D02*
X651924D01*
X651257Y332672D01*
Y330007D01*
X651924Y329340D01*
X653256D01*
X653923Y330007D01*
Y332672D01*
X653256Y333339D01*
X655256D02*
X657922D01*
X656589D01*
Y329340D01*
X653851Y504999D02*
X652518D01*
X653184D01*
Y501666D01*
X652518Y501000D01*
X651852D01*
X651185Y501666D01*
X657850Y504999D02*
X656517Y504332D01*
X655184Y502999D01*
Y501666D01*
X655850Y501000D01*
X657183D01*
X657850Y501666D01*
Y502333D01*
X657183Y502999D01*
X655184D01*
X697455Y399637D02*
Y396305D01*
X698122Y395638D01*
X699454D01*
X700121Y396305D01*
Y399637D01*
X704120D02*
X702787Y398971D01*
X701454Y397638D01*
Y396305D01*
X702120Y395638D01*
X703453D01*
X704120Y396305D01*
Y396971D01*
X703453Y397638D01*
X701454D01*
X800228Y463978D02*
X796895D01*
X796229Y463311D01*
Y461978D01*
X796895Y461312D01*
X800228D01*
X796229Y459979D02*
Y458646D01*
Y459312D01*
X800228D01*
X799561Y459979D01*
X796229Y456647D02*
Y455314D01*
Y455980D01*
X800228D01*
X799561Y456647D01*
X704500Y479700D02*
Y483699D01*
X706499D01*
X707166Y483032D01*
Y481699D01*
X706499Y481033D01*
X704500D01*
X705833D02*
X707166Y479700D01*
X710498D02*
Y483699D01*
X708499Y481699D01*
X711165D01*
X712497Y483032D02*
X713164Y483699D01*
X714497D01*
X715163Y483032D01*
Y480366D01*
X714497Y479700D01*
X713164D01*
X712497Y480366D01*
Y483032D01*
X728284Y465300D02*
Y469299D01*
X730284D01*
X730950Y468632D01*
Y467299D01*
X730284Y466633D01*
X728284D01*
X729617D02*
X730950Y465300D01*
X732283Y468632D02*
X732949Y469299D01*
X734282D01*
X734949Y468632D01*
Y467966D01*
X734282Y467299D01*
X733616D01*
X734282D01*
X734949Y466633D01*
Y465966D01*
X734282Y465300D01*
X732949D01*
X732283Y465966D01*
X736282D02*
X736948Y465300D01*
X738281D01*
X738947Y465966D01*
Y468632D01*
X738281Y469299D01*
X736948D01*
X736282Y468632D01*
Y467966D01*
X736948Y467299D01*
X738947D01*
X762098Y459010D02*
X761432Y459677D01*
X760099D01*
X759432Y459010D01*
Y456344D01*
X760099Y455678D01*
X761432D01*
X762098Y456344D01*
X765430Y455678D02*
Y459677D01*
X763431Y457677D01*
X766097D01*
X767430Y459010D02*
X768096Y459677D01*
X769429D01*
X770095Y459010D01*
Y458344D01*
X769429Y457677D01*
X768762D01*
X769429D01*
X770095Y457011D01*
Y456344D01*
X769429Y455678D01*
X768096D01*
X767430Y456344D01*
X707966Y496632D02*
X707299Y497299D01*
X705966D01*
X705300Y496632D01*
Y493966D01*
X705966Y493300D01*
X707299D01*
X707966Y493966D01*
X711298Y493300D02*
Y497299D01*
X709299Y495299D01*
X711965D01*
X715963Y493300D02*
X713297D01*
X715963Y495966D01*
Y496632D01*
X715297Y497299D01*
X713964D01*
X713297Y496632D01*
X729350Y460732D02*
X728684Y461399D01*
X727351D01*
X726684Y460732D01*
Y458066D01*
X727351Y457400D01*
X728684D01*
X729350Y458066D01*
X732682Y457400D02*
Y461399D01*
X730683Y459399D01*
X733349D01*
X734682Y457400D02*
X736015D01*
X735348D01*
Y461399D01*
X734682Y460732D01*
X486251Y411991D02*
X482253D01*
Y413991D01*
X482919Y414657D01*
X484252D01*
X484918Y413991D01*
Y411991D01*
Y413324D02*
X486251Y414657D01*
Y418656D02*
Y415990D01*
X483586Y418656D01*
X482919D01*
X482253Y417989D01*
Y416656D01*
X482919Y415990D01*
Y419989D02*
X482253Y420655D01*
Y421988D01*
X482919Y422654D01*
X485585D01*
X486251Y421988D01*
Y420655D01*
X485585Y419989D01*
X482919D01*
X735566Y435299D02*
X734233D01*
X734899D01*
Y431966D01*
X734233Y431300D01*
X733566D01*
X732900Y431966D01*
X739565Y435299D02*
X736899D01*
Y433299D01*
X738232Y433966D01*
X738898D01*
X739565Y433299D01*
Y431966D01*
X738898Y431300D01*
X737565D01*
X736899Y431966D01*
X677514Y403256D02*
X678181Y403923D01*
Y405256D01*
X677514Y405922D01*
X674848D01*
X674182Y405256D01*
Y403923D01*
X674848Y403256D01*
X674182Y399258D02*
Y401923D01*
X676848Y399258D01*
X677514D01*
X678181Y399924D01*
Y401257D01*
X677514Y401923D01*
X678181Y395259D02*
Y397925D01*
X676181D01*
X676848Y396592D01*
Y395925D01*
X676181Y395259D01*
X674848D01*
X674182Y395925D01*
Y397258D01*
X674848Y397925D01*
X466156Y530481D02*
Y534480D01*
X468155D01*
X468822Y533813D01*
Y532480D01*
X468155Y531814D01*
X466156D01*
X467489D02*
X468822Y530481D01*
X470155Y533813D02*
X470821Y534480D01*
X472154D01*
X472820Y533813D01*
Y533147D01*
X472154Y532480D01*
X472820Y531814D01*
Y531147D01*
X472154Y530481D01*
X470821D01*
X470155Y531147D01*
Y531814D01*
X470821Y532480D01*
X470155Y533147D01*
Y533813D01*
X470821Y532480D02*
X472154D01*
X415385Y517337D02*
X411386D01*
Y519336D01*
X412053Y520003D01*
X413386D01*
X414052Y519336D01*
Y517337D01*
Y518670D02*
X415385Y520003D01*
Y524002D02*
Y521336D01*
X412719Y524002D01*
X412053D01*
X411386Y523335D01*
Y522002D01*
X412053Y521336D01*
X769972Y468853D02*
X769306Y469519D01*
X767973D01*
X767306Y468853D01*
Y466187D01*
X767973Y465520D01*
X769306D01*
X769972Y466187D01*
X771305Y468853D02*
X771971Y469519D01*
X773304D01*
X773971Y468853D01*
Y468186D01*
X773304Y467520D01*
X772638D01*
X773304D01*
X773971Y466853D01*
Y466187D01*
X773304Y465520D01*
X771971D01*
X771305Y466187D01*
X775304Y468853D02*
X775970Y469519D01*
X777303D01*
X777969Y468853D01*
Y468186D01*
X777303Y467520D01*
X776637D01*
X777303D01*
X777969Y466853D01*
Y466187D01*
X777303Y465520D01*
X775970D01*
X775304Y466187D01*
X741777Y498318D02*
X741111Y497652D01*
Y496319D01*
X741777Y495653D01*
X744443D01*
X745110Y496319D01*
Y497652D01*
X744443Y498318D01*
X745110Y502317D02*
Y499651D01*
X742444Y502317D01*
X741777D01*
X741111Y501651D01*
Y500318D01*
X741777Y499651D01*
X745110Y505649D02*
X741111D01*
X743110Y503650D01*
Y506316D01*
X741777Y362492D02*
X741111Y361825D01*
Y360492D01*
X741777Y359826D01*
X744443D01*
X745110Y360492D01*
Y361825D01*
X744443Y362492D01*
X745110Y366490D02*
Y363825D01*
X742444Y366490D01*
X741777D01*
X741111Y365824D01*
Y364491D01*
X741777Y363825D01*
Y367823D02*
X741111Y368490D01*
Y369823D01*
X741777Y370489D01*
X742444D01*
X743110Y369823D01*
Y369156D01*
Y369823D01*
X743777Y370489D01*
X744443D01*
X745110Y369823D01*
Y368490D01*
X744443Y367823D01*
X588506Y509873D02*
Y506541D01*
X589172Y505875D01*
X590505D01*
X591171Y506541D01*
Y509873D01*
X592504Y505875D02*
X593837D01*
X593171D01*
Y509873D01*
X592504Y509207D01*
X595836D02*
X596503Y509873D01*
X597836D01*
X598502Y509207D01*
Y506541D01*
X597836Y505875D01*
X596503D01*
X595836Y506541D01*
Y509207D01*
X625031Y464157D02*
X621032D01*
Y466156D01*
X621699Y466822D01*
X623032D01*
X623698Y466156D01*
Y464157D01*
Y465489D02*
X625031Y466822D01*
X621699Y468155D02*
X621032Y468822D01*
Y470155D01*
X621699Y470821D01*
X622365D01*
X623032Y470155D01*
Y469488D01*
Y470155D01*
X623698Y470821D01*
X624364D01*
X625031Y470155D01*
Y468822D01*
X624364Y468155D01*
X625031Y474153D02*
X621032D01*
X623032Y472154D01*
Y474820D01*
X626015Y491716D02*
X622016D01*
Y493715D01*
X622683Y494381D01*
X624016D01*
X624682Y493715D01*
Y491716D01*
Y493048D02*
X626015Y494381D01*
X622683Y495714D02*
X622016Y496381D01*
Y497714D01*
X622683Y498380D01*
X623349D01*
X624016Y497714D01*
Y497047D01*
Y497714D01*
X624682Y498380D01*
X625349D01*
X626015Y497714D01*
Y496381D01*
X625349Y495714D01*
X622683Y499713D02*
X622016Y500380D01*
Y501712D01*
X622683Y502379D01*
X623349D01*
X624016Y501712D01*
Y501046D01*
Y501712D01*
X624682Y502379D01*
X625349D01*
X626015Y501712D01*
Y500380D01*
X625349Y499713D01*
X586204Y460599D02*
Y464598D01*
X588203D01*
X588870Y463931D01*
Y462598D01*
X588203Y461932D01*
X586204D01*
X587537D02*
X588870Y460599D01*
X590203Y463931D02*
X590869Y464598D01*
X592202D01*
X592868Y463931D01*
Y463265D01*
X592202Y462598D01*
X591535D01*
X592202D01*
X592868Y461932D01*
Y461266D01*
X592202Y460599D01*
X590869D01*
X590203Y461266D01*
X594201Y463931D02*
X594868Y464598D01*
X596201D01*
X596867Y463931D01*
Y463265D01*
X596201Y462598D01*
X596867Y461932D01*
Y461266D01*
X596201Y460599D01*
X594868D01*
X594201Y461266D01*
Y461932D01*
X594868Y462598D01*
X594201Y463265D01*
Y463931D01*
X594868Y462598D02*
X596201D01*
X583692Y512385D02*
X579694D01*
Y514384D01*
X580360Y515051D01*
X581693D01*
X582359Y514384D01*
Y512385D01*
Y513718D02*
X583692Y515051D01*
X580360Y516384D02*
X579694Y517050D01*
Y518383D01*
X580360Y519049D01*
X581027D01*
X581693Y518383D01*
Y517717D01*
Y518383D01*
X582359Y519049D01*
X583026D01*
X583692Y518383D01*
Y517050D01*
X583026Y516384D01*
X579694Y520382D02*
Y523048D01*
X580360D01*
X583026Y520382D01*
X583692D01*
X573409Y460599D02*
Y464598D01*
X575408D01*
X576074Y463931D01*
Y462598D01*
X575408Y461932D01*
X573409D01*
X574741D02*
X576074Y460599D01*
X577407Y463931D02*
X578074Y464598D01*
X579407D01*
X580073Y463931D01*
Y463265D01*
X579407Y462598D01*
X578740D01*
X579407D01*
X580073Y461932D01*
Y461266D01*
X579407Y460599D01*
X578074D01*
X577407Y461266D01*
X584072Y464598D02*
X582739Y463931D01*
X581406Y462598D01*
Y461266D01*
X582072Y460599D01*
X583405D01*
X584072Y461266D01*
Y461932D01*
X583405Y462598D01*
X581406D01*
X550377Y505678D02*
Y509677D01*
X552376D01*
X553043Y509010D01*
Y507677D01*
X552376Y507011D01*
X550377D01*
X551710D02*
X553043Y505678D01*
X554376Y509010D02*
X555042Y509677D01*
X556375D01*
X557042Y509010D01*
Y508344D01*
X556375Y507677D01*
X555709D01*
X556375D01*
X557042Y507011D01*
Y506344D01*
X556375Y505678D01*
X555042D01*
X554376Y506344D01*
X561040Y509677D02*
X558375D01*
Y507677D01*
X559707Y508344D01*
X560374D01*
X561040Y507677D01*
Y506344D01*
X560374Y505678D01*
X559041D01*
X558375Y506344D01*
X547562Y469139D02*
Y471805D01*
X546895Y472472D01*
X545563D01*
X544896Y471805D01*
Y469139D01*
X545563Y468473D01*
X546895D01*
X546229Y469806D02*
X547562Y468473D01*
X546895D02*
X547562Y469139D01*
X551561Y472472D02*
X550228Y471805D01*
X548895Y470472D01*
Y469139D01*
X549561Y468473D01*
X550894D01*
X551561Y469139D01*
Y469806D01*
X550894Y470472D01*
X548895D01*
X606586Y522669D02*
X603920D01*
Y520669D01*
X605253D01*
X603920D01*
Y518670D01*
X607919Y522669D02*
Y518670D01*
X609918D01*
X610585Y519336D01*
Y520003D01*
X609918Y520669D01*
X607919D01*
X609918D01*
X610585Y521336D01*
Y522002D01*
X609918Y522669D01*
X607919D01*
X614584Y518670D02*
X611918D01*
X614584Y521336D01*
Y522002D01*
X613917Y522669D01*
X612584D01*
X611918Y522002D01*
X562643Y480602D02*
X561977Y479936D01*
Y478603D01*
X562643Y477936D01*
X565309D01*
X565976Y478603D01*
Y479936D01*
X565309Y480602D01*
X562643Y481935D02*
X561977Y482601D01*
Y483934D01*
X562643Y484601D01*
X563310D01*
X563976Y483934D01*
Y483268D01*
Y483934D01*
X564643Y484601D01*
X565309D01*
X565976Y483934D01*
Y482601D01*
X565309Y481935D01*
X561977Y488599D02*
X562643Y487266D01*
X563976Y485933D01*
X565309D01*
X565976Y486600D01*
Y487933D01*
X565309Y488599D01*
X564643D01*
X563976Y487933D01*
Y485933D01*
X554769Y480602D02*
X554103Y479936D01*
Y478603D01*
X554769Y477936D01*
X557435D01*
X558102Y478603D01*
Y479936D01*
X557435Y480602D01*
X554769Y481935D02*
X554103Y482601D01*
Y483934D01*
X554769Y484601D01*
X555436D01*
X556102Y483934D01*
Y483268D01*
Y483934D01*
X556769Y484601D01*
X557435D01*
X558102Y483934D01*
Y482601D01*
X557435Y481935D01*
X554103Y488599D02*
Y485933D01*
X556102D01*
X555436Y487266D01*
Y487933D01*
X556102Y488599D01*
X557435D01*
X558102Y487933D01*
Y486600D01*
X557435Y485933D01*
X546895Y480602D02*
X546229Y479936D01*
Y478603D01*
X546895Y477936D01*
X549561D01*
X550228Y478603D01*
Y479936D01*
X549561Y480602D01*
X546895Y481935D02*
X546229Y482601D01*
Y483934D01*
X546895Y484601D01*
X547562D01*
X548228Y483934D01*
Y483268D01*
Y483934D01*
X548895Y484601D01*
X549561D01*
X550228Y483934D01*
Y482601D01*
X549561Y481935D01*
X550228Y487933D02*
X546229D01*
X548228Y485933D01*
Y488599D01*
X622683Y480602D02*
X622016Y479936D01*
Y478603D01*
X622683Y477936D01*
X625349D01*
X626015Y478603D01*
Y479936D01*
X625349Y480602D01*
X622683Y481935D02*
X622016Y482601D01*
Y483934D01*
X622683Y484601D01*
X623349D01*
X624016Y483934D01*
Y483268D01*
Y483934D01*
X624682Y484601D01*
X625349D01*
X626015Y483934D01*
Y482601D01*
X625349Y481935D01*
Y485933D02*
X626015Y486600D01*
Y487933D01*
X625349Y488599D01*
X622683D01*
X622016Y487933D01*
Y486600D01*
X622683Y485933D01*
X623349D01*
X624016Y486600D01*
Y488599D01*
X602649Y462947D02*
X601983Y463614D01*
X600650D01*
X599983Y462947D01*
Y460281D01*
X600650Y459615D01*
X601983D01*
X602649Y460281D01*
X605981Y459615D02*
Y463614D01*
X603982Y461614D01*
X606648D01*
X607981Y462947D02*
X608647Y463614D01*
X609980D01*
X610647Y462947D01*
Y460281D01*
X609980Y459615D01*
X608647D01*
X607981Y460281D01*
Y462947D01*
X623380Y532193D02*
X624047Y532860D01*
Y534193D01*
X623380Y534859D01*
X620714D01*
X620048Y534193D01*
Y532860D01*
X620714Y532193D01*
X623380Y530861D02*
X624047Y530194D01*
Y528861D01*
X623380Y528195D01*
X622714D01*
X622047Y528861D01*
Y529528D01*
Y528861D01*
X621381Y528195D01*
X620714D01*
X620048Y528861D01*
Y530194D01*
X620714Y530861D01*
X623380Y526862D02*
X624047Y526195D01*
Y524862D01*
X623380Y524196D01*
X622714D01*
X622047Y524862D01*
X621381Y524196D01*
X620714D01*
X620048Y524862D01*
Y526195D01*
X620714Y526862D01*
X621381D01*
X622047Y526195D01*
X622714Y526862D01*
X623380D01*
X622047Y526195D02*
Y524862D01*
X631254Y532193D02*
X631921Y532860D01*
Y534193D01*
X631254Y534859D01*
X628588D01*
X627922Y534193D01*
Y532860D01*
X628588Y532193D01*
X631254Y530861D02*
X631921Y530194D01*
Y528861D01*
X631254Y528195D01*
X630588D01*
X629921Y528861D01*
Y529528D01*
Y528861D01*
X629255Y528195D01*
X628588D01*
X627922Y528861D01*
Y530194D01*
X628588Y530861D01*
X631921Y526862D02*
Y524196D01*
X631254D01*
X628588Y526862D01*
X627922D01*
X565944Y362174D02*
Y366173D01*
X567943D01*
X568610Y365506D01*
Y364173D01*
X567943Y363507D01*
X565944D01*
X567277D02*
X568610Y362174D01*
X569942D02*
X571275D01*
X570609D01*
Y366173D01*
X569942Y365506D01*
X573275Y362174D02*
X574608D01*
X573941D01*
Y366173D01*
X573275Y365506D01*
X669668Y403256D02*
X670335Y403923D01*
Y405256D01*
X669668Y405922D01*
X667003D01*
X666336Y405256D01*
Y403923D01*
X667003Y403256D01*
X666336Y399257D02*
Y401923D01*
X669002Y399257D01*
X669668D01*
X670335Y399924D01*
Y401257D01*
X669668Y401923D01*
X670335Y395259D02*
X669668Y396592D01*
X668336Y397925D01*
X667003D01*
X666336Y397258D01*
Y395925D01*
X667003Y395259D01*
X667669D01*
X668336Y395925D01*
Y397925D01*
X682056Y406573D02*
X686055D01*
Y404574D01*
X685388Y403907D01*
X684055D01*
X683389Y404574D01*
Y406573D01*
Y405240D02*
X682056Y403907D01*
Y402574D02*
Y401242D01*
Y401908D01*
X686055D01*
X685388Y402574D01*
X686055Y399242D02*
Y396576D01*
X685388D01*
X682722Y399242D01*
X682056D01*
X735267Y493427D02*
X731268D01*
Y495426D01*
X731935Y496093D01*
X733268D01*
X733934Y495426D01*
Y493427D01*
Y494760D02*
X735267Y496093D01*
Y497426D02*
Y498758D01*
Y498092D01*
X731268D01*
X731935Y497426D01*
X731268Y503424D02*
X731935Y502091D01*
X733268Y500758D01*
X734601D01*
X735267Y501424D01*
Y502757D01*
X734601Y503424D01*
X733934D01*
X733268Y502757D01*
Y500758D01*
X778500Y414800D02*
X782499D01*
Y412801D01*
X781832Y412134D01*
X780499D01*
X779833Y412801D01*
Y414800D01*
Y413467D02*
X778500Y412134D01*
Y410801D02*
Y409468D01*
Y410135D01*
X782499D01*
X781832Y410801D01*
X782499Y404803D02*
Y407469D01*
X780499D01*
X781166Y406136D01*
Y405470D01*
X780499Y404803D01*
X779166D01*
X778500Y405470D01*
Y406803D01*
X779166Y407469D01*
X761800Y415200D02*
X765799D01*
Y413201D01*
X765132Y412534D01*
X763799D01*
X763133Y413201D01*
Y415200D01*
Y413867D02*
X761800Y412534D01*
Y411201D02*
Y409868D01*
Y410535D01*
X765799D01*
X765132Y411201D01*
X761800Y405870D02*
X765799D01*
X763799Y407869D01*
Y405203D01*
X782400Y511842D02*
X781067D01*
X781733D01*
Y508510D01*
X781067Y507843D01*
X780400D01*
X779734Y508510D01*
X783733Y511176D02*
X784399Y511842D01*
X785732D01*
X786398Y511176D01*
Y510509D01*
X785732Y509843D01*
X785066D01*
X785732D01*
X786398Y509176D01*
Y508510D01*
X785732Y507843D01*
X784399D01*
X783733Y508510D01*
X782400Y358255D02*
X781067D01*
X781733D01*
Y354923D01*
X781067Y354257D01*
X780400D01*
X779734Y354923D01*
X786398Y354257D02*
X783733D01*
X786398Y356923D01*
Y357589D01*
X785732Y358255D01*
X784399D01*
X783733Y357589D01*
X757494Y478377D02*
Y474379D01*
X759494D01*
X760160Y475045D01*
Y477711D01*
X759494Y478377D01*
X757494D01*
X764159D02*
X761493D01*
Y476378D01*
X762826Y477044D01*
X763493D01*
X764159Y476378D01*
Y475045D01*
X763493Y474379D01*
X762160D01*
X761493Y475045D01*
X729936Y478377D02*
Y474379D01*
X731935D01*
X732601Y475045D01*
Y477711D01*
X731935Y478377D01*
X729936D01*
X735933Y474379D02*
Y478377D01*
X733934Y476378D01*
X736600D01*
X748624Y397618D02*
Y393619D01*
X750624D01*
X751290Y394285D01*
Y396951D01*
X750624Y397618D01*
X748624D01*
X752623Y396951D02*
X753290Y397618D01*
X754623D01*
X755289Y396951D01*
Y396285D01*
X754623Y395618D01*
X753956D01*
X754623D01*
X755289Y394952D01*
Y394285D01*
X754623Y393619D01*
X753290D01*
X752623Y394285D01*
X738774Y397618D02*
Y393619D01*
X740773D01*
X741439Y394285D01*
Y396951D01*
X740773Y397618D01*
X738774D01*
X745438Y393619D02*
X742772D01*
X745438Y396285D01*
Y396951D01*
X744772Y397618D01*
X743439D01*
X742772Y396951D01*
X660769Y403256D02*
X661435Y403923D01*
Y405256D01*
X660769Y405922D01*
X658103D01*
X657436Y405256D01*
Y403923D01*
X658103Y403256D01*
X657436Y399257D02*
Y401923D01*
X660102Y399257D01*
X660769D01*
X661435Y399924D01*
Y401257D01*
X660769Y401923D01*
X661435Y397925D02*
Y395259D01*
X660769D01*
X658103Y397925D01*
X657436D01*
X773032Y411234D02*
X773699Y411901D01*
Y413234D01*
X773032Y413900D01*
X770366D01*
X769700Y413234D01*
Y411901D01*
X770366Y411234D01*
X769700Y407235D02*
Y409901D01*
X772366Y407235D01*
X773032D01*
X773699Y407902D01*
Y409235D01*
X773032Y409901D01*
X769700Y403237D02*
Y405903D01*
X772366Y403237D01*
X773032D01*
X773699Y403903D01*
Y405236D01*
X773032Y405903D01*
X395700Y471046D02*
X391701D01*
Y473046D01*
X392368Y473712D01*
X393701D01*
X394367Y473046D01*
Y471046D01*
Y472379D02*
X395700Y473712D01*
Y477711D02*
Y475045D01*
X393034Y477711D01*
X392368D01*
X391701Y477044D01*
Y475711D01*
X392368Y475045D01*
X395034Y479044D02*
X395700Y479710D01*
Y481043D01*
X395034Y481710D01*
X392368D01*
X391701Y481043D01*
Y479710D01*
X392368Y479044D01*
X393034D01*
X393701Y479710D01*
Y481710D01*
X386801Y496984D02*
X390800D01*
Y498984D01*
X390134Y499650D01*
X387468D01*
X386801Y498984D01*
Y496984D01*
X390800Y500983D02*
Y502316D01*
Y501649D01*
X386801D01*
X387468Y500983D01*
X390800Y504315D02*
Y505648D01*
Y504982D01*
X386801D01*
X387468Y504315D01*
X394701Y495684D02*
X398700D01*
Y497684D01*
X398034Y498350D01*
X395368D01*
X394701Y497684D01*
Y495684D01*
X398700Y499683D02*
Y501016D01*
Y500349D01*
X394701D01*
X395368Y499683D01*
Y503015D02*
X394701Y503682D01*
Y505015D01*
X395368Y505681D01*
X398034D01*
X398700Y505015D01*
Y503682D01*
X398034Y503015D01*
X395368D01*
X371001Y498984D02*
X375000D01*
Y500984D01*
X374334Y501650D01*
X371668D01*
X371001Y500984D01*
Y498984D01*
X374334Y502983D02*
X375000Y503649D01*
Y504982D01*
X374334Y505649D01*
X371668D01*
X371001Y504982D01*
Y503649D01*
X371668Y502983D01*
X372334D01*
X373001Y503649D01*
Y505649D01*
X402501Y500284D02*
X406500D01*
Y502284D01*
X405834Y502950D01*
X403168D01*
X402501Y502284D01*
Y500284D01*
X406500Y504283D02*
Y505616D01*
Y504949D01*
X402501D01*
X403168Y504283D01*
X488158Y494502D02*
X492157D01*
Y496502D01*
X491490Y497168D01*
X488825D01*
X488158Y496502D01*
Y494502D01*
Y501167D02*
X488825Y499834D01*
X490158Y498501D01*
X491490D01*
X492157Y499168D01*
Y500500D01*
X491490Y501167D01*
X490824D01*
X490158Y500500D01*
Y498501D01*
X480284Y494502D02*
X484283D01*
Y496502D01*
X483616Y497168D01*
X480951D01*
X480284Y496502D01*
Y494502D01*
Y498501D02*
Y501167D01*
X480951D01*
X483616Y498501D01*
X484283D01*
X378901Y498984D02*
X382900D01*
Y500984D01*
X382234Y501650D01*
X379568D01*
X378901Y500984D01*
Y498984D01*
X379568Y502983D02*
X378901Y503649D01*
Y504982D01*
X379568Y505649D01*
X380234D01*
X380901Y504982D01*
X381567Y505649D01*
X382234D01*
X382900Y504982D01*
Y503649D01*
X382234Y502983D01*
X381567D01*
X380901Y503649D01*
X380234Y502983D01*
X379568D01*
X380901Y503649D02*
Y504982D01*
X506921Y491716D02*
X502922D01*
Y493715D01*
X503588Y494381D01*
X504921D01*
X505588Y493715D01*
Y491716D01*
Y493048D02*
X506921Y494381D01*
Y498380D02*
Y495714D01*
X504255Y498380D01*
X503588D01*
X502922Y497714D01*
Y496381D01*
X503588Y495714D01*
X506921Y501712D02*
X502922D01*
X504921Y499713D01*
Y502379D01*
X469972Y464916D02*
X469306Y465582D01*
X467973D01*
X467306Y464916D01*
Y462250D01*
X467973Y461583D01*
X469306D01*
X469972Y462250D01*
X473971Y461583D02*
X471305D01*
X473971Y464249D01*
Y464916D01*
X473304Y465582D01*
X471971D01*
X471305Y464916D01*
X475304Y462250D02*
X475970Y461583D01*
X477303D01*
X477969Y462250D01*
Y464916D01*
X477303Y465582D01*
X475970D01*
X475304Y464916D01*
Y464249D01*
X475970Y463583D01*
X477969D01*
X356904Y450818D02*
Y447486D01*
X357570Y446819D01*
X358903D01*
X359570Y447486D01*
Y450818D01*
X360903Y447486D02*
X361569Y446819D01*
X362902D01*
X363568Y447486D01*
Y450152D01*
X362902Y450818D01*
X361569D01*
X360903Y450152D01*
Y449485D01*
X361569Y448819D01*
X363568D01*
X444851Y416943D02*
X448183D01*
X448850Y417610D01*
Y418943D01*
X448183Y419609D01*
X444851D01*
X445517Y420942D02*
X444851Y421608D01*
Y422941D01*
X445517Y423608D01*
X446184D01*
X446850Y422941D01*
X447517Y423608D01*
X448183D01*
X448850Y422941D01*
Y421608D01*
X448183Y420942D01*
X447517D01*
X446850Y421608D01*
X446184Y420942D01*
X445517D01*
X446850Y421608D02*
Y422941D01*
X521274Y536448D02*
Y533116D01*
X521941Y532449D01*
X523273D01*
X523940Y533116D01*
Y536448D01*
X525273D02*
X527939D01*
Y535782D01*
X525273Y533116D01*
Y532449D01*
X475425Y512190D02*
X472092D01*
X471426Y511524D01*
Y510191D01*
X472092Y509525D01*
X475425D01*
X471426Y506192D02*
X475425D01*
X473425Y508192D01*
Y505526D01*
X450757Y481904D02*
X454089D01*
X454755Y482570D01*
Y483903D01*
X454089Y484570D01*
X450757D01*
X451423Y485903D02*
X450757Y486569D01*
Y487902D01*
X451423Y488568D01*
X452090D01*
X452756Y487902D01*
Y487236D01*
Y487902D01*
X453422Y488568D01*
X454089D01*
X454755Y487902D01*
Y486569D01*
X454089Y485903D01*
X684660Y378968D02*
Y375636D01*
X685326Y374969D01*
X686659D01*
X687326Y375636D01*
Y378968D01*
X691324Y374969D02*
X688659D01*
X691324Y377635D01*
Y378301D01*
X690658Y378968D01*
X689325D01*
X688659Y378301D01*
X505875Y416625D02*
X509207D01*
X509873Y417292D01*
Y418625D01*
X509207Y419291D01*
X505875D01*
X509873Y420624D02*
Y421957D01*
Y421291D01*
X505875D01*
X506541Y420624D01*
X380825Y332829D02*
X380158Y333495D01*
X378825D01*
X378159Y332829D01*
Y332162D01*
X378825Y331496D01*
X380158D01*
X380825Y330830D01*
Y330163D01*
X380158Y329497D01*
X378825D01*
X378159Y330163D01*
X384157Y329497D02*
Y333495D01*
X382158Y331496D01*
X384824D01*
X562357Y344488D02*
X563023Y345155D01*
Y346487D01*
X562357Y347154D01*
X561690D01*
X561024Y346487D01*
Y345155D01*
X560357Y344488D01*
X559691D01*
X559024Y345155D01*
Y346487D01*
X559691Y347154D01*
X559024Y343155D02*
Y341822D01*
Y342489D01*
X563023D01*
X562357Y343155D01*
X636140Y332672D02*
X635473Y333339D01*
X634140D01*
X633474Y332672D01*
Y332006D01*
X634140Y331340D01*
X635473D01*
X636140Y330673D01*
Y330007D01*
X635473Y329340D01*
X634140D01*
X633474Y330007D01*
X637473Y332672D02*
X638139Y333339D01*
X639472D01*
X640138Y332672D01*
Y332006D01*
X639472Y331340D01*
X638806D01*
X639472D01*
X640138Y330673D01*
Y330007D01*
X639472Y329340D01*
X638139D01*
X637473Y330007D01*
X689294Y332672D02*
X688628Y333339D01*
X687295D01*
X686628Y332672D01*
Y332006D01*
X687295Y331340D01*
X688628D01*
X689294Y330673D01*
Y330007D01*
X688628Y329340D01*
X687295D01*
X686628Y330007D01*
X693293Y329340D02*
X690627D01*
X693293Y332006D01*
Y332672D01*
X692626Y333339D01*
X691293D01*
X690627Y332672D01*
X449393Y330678D02*
Y334677D01*
X451392D01*
X452059Y334010D01*
Y332677D01*
X451392Y332011D01*
X449393D01*
X450726D02*
X452059Y330678D01*
X453392Y334010D02*
X454058Y334677D01*
X455391D01*
X456057Y334010D01*
Y333344D01*
X455391Y332677D01*
X454724D01*
X455391D01*
X456057Y332011D01*
Y331344D01*
X455391Y330678D01*
X454058D01*
X453392Y331344D01*
X460056Y330678D02*
X457390D01*
X460056Y333344D01*
Y334010D01*
X459390Y334677D01*
X458057D01*
X457390Y334010D01*
X449626Y351347D02*
Y355346D01*
X451625D01*
X452292Y354679D01*
Y353346D01*
X451625Y352680D01*
X449626D01*
X450959D02*
X452292Y351347D01*
X453625Y354679D02*
X454291Y355346D01*
X455624D01*
X456291Y354679D01*
Y354013D01*
X455624Y353346D01*
X454958D01*
X455624D01*
X456291Y352680D01*
Y352014D01*
X455624Y351347D01*
X454291D01*
X453625Y352014D01*
X457624Y351347D02*
X458956D01*
X458290D01*
Y355346D01*
X457624Y354679D01*
X461025Y389961D02*
Y393503D01*
X462796D01*
X463387Y392913D01*
Y391732D01*
X462796Y391142D01*
X461025D01*
X462206D02*
X463387Y389961D01*
X464567Y392913D02*
X465158Y393503D01*
X466338D01*
X466929Y392913D01*
Y392323D01*
X466338Y391732D01*
X465748D01*
X466338D01*
X466929Y391142D01*
Y390552D01*
X466338Y389961D01*
X465158D01*
X464567Y390552D01*
X468110Y392913D02*
X468700Y393503D01*
X469881D01*
X470471Y392913D01*
Y390552D01*
X469881Y389961D01*
X468700D01*
X468110Y390552D01*
Y392913D01*
X402393Y471046D02*
X398394D01*
Y473046D01*
X399061Y473712D01*
X400394D01*
X401060Y473046D01*
Y471046D01*
Y472379D02*
X402393Y473712D01*
Y477711D02*
Y475045D01*
X399727Y477711D01*
X399061D01*
X398394Y477044D01*
Y475711D01*
X399061Y475045D01*
Y479044D02*
X398394Y479710D01*
Y481043D01*
X399061Y481710D01*
X399727D01*
X400394Y481043D01*
X401060Y481710D01*
X401727D01*
X402393Y481043D01*
Y479710D01*
X401727Y479044D01*
X401060D01*
X400394Y479710D01*
X399727Y479044D01*
X399061D01*
X400394Y479710D02*
Y481043D01*
X381921Y471046D02*
X377922D01*
Y473046D01*
X378588Y473712D01*
X379921D01*
X380588Y473046D01*
Y471046D01*
Y472379D02*
X381921Y473712D01*
Y477711D02*
Y475045D01*
X379255Y477711D01*
X378588D01*
X377922Y477044D01*
Y475711D01*
X378588Y475045D01*
X377922Y479044D02*
Y481710D01*
X378588D01*
X381254Y479044D01*
X381921D01*
X509986Y504297D02*
Y508296D01*
X511985D01*
X512652Y507629D01*
Y506296D01*
X511985Y505630D01*
X509986D01*
X511319D02*
X512652Y504297D01*
X513985D02*
X515318D01*
X514651D01*
Y508296D01*
X513985Y507629D01*
X517317Y504963D02*
X517983Y504297D01*
X519316D01*
X519983Y504963D01*
Y507629D01*
X519316Y508296D01*
X517983D01*
X517317Y507629D01*
Y506963D01*
X517983Y506296D01*
X519983D01*
X496032Y532557D02*
X500031D01*
Y530558D01*
X499364Y529892D01*
X498032D01*
X497365Y530558D01*
Y532557D01*
Y531224D02*
X496032Y529892D01*
Y528559D02*
Y527226D01*
Y527892D01*
X500031D01*
X499364Y528559D01*
Y525226D02*
X500031Y524560D01*
Y523227D01*
X499364Y522561D01*
X498698D01*
X498032Y523227D01*
X497365Y522561D01*
X496699D01*
X496032Y523227D01*
Y524560D01*
X496699Y525226D01*
X497365D01*
X498032Y524560D01*
X498698Y525226D01*
X499364D01*
X498032Y524560D02*
Y523227D01*
X484056Y444093D02*
X487598D01*
Y442322D01*
X487008Y441732D01*
X485827D01*
X485236Y442322D01*
Y444093D01*
Y442912D02*
X484056Y441732D01*
Y438189D02*
Y440551D01*
X486417Y438189D01*
X487008D01*
X487598Y438780D01*
Y439960D01*
X487008Y440551D01*
X487598Y434647D02*
Y437009D01*
X485827D01*
X486417Y435828D01*
Y435238D01*
X485827Y434647D01*
X484646D01*
X484056Y435238D01*
Y436418D01*
X484646Y437009D01*
X388810Y471046D02*
X384812D01*
Y473046D01*
X385478Y473712D01*
X386811D01*
X387477Y473046D01*
Y471046D01*
Y472379D02*
X388810Y473712D01*
Y477711D02*
Y475045D01*
X386145Y477711D01*
X385478D01*
X384812Y477044D01*
Y475711D01*
X385478Y475045D01*
X384812Y481710D02*
X385478Y480377D01*
X386811Y479044D01*
X388144D01*
X388810Y479710D01*
Y481043D01*
X388144Y481710D01*
X387477D01*
X386811Y481043D01*
Y479044D01*
X633781Y358237D02*
Y362236D01*
X635780D01*
X636447Y361569D01*
Y360236D01*
X635780Y359570D01*
X633781D01*
X635114D02*
X636447Y358237D01*
X637780D02*
X639113D01*
X638446D01*
Y362236D01*
X637780Y361569D01*
X641112D02*
X641779Y362236D01*
X643112D01*
X643778Y361569D01*
Y360903D01*
X643112Y360236D01*
X642445D01*
X643112D01*
X643778Y359570D01*
Y358903D01*
X643112Y358237D01*
X641779D01*
X641112Y358903D01*
X358191Y329694D02*
Y333692D01*
X360190D01*
X360856Y333026D01*
Y331693D01*
X360190Y331027D01*
X358191D01*
X359524D02*
X360856Y329694D01*
X362189D02*
X363522D01*
X362856D01*
Y333692D01*
X362189Y333026D01*
X368187Y329694D02*
X365522D01*
X368187Y332359D01*
Y333026D01*
X367521Y333692D01*
X366188D01*
X365522Y333026D01*
X618033Y362805D02*
Y366803D01*
X620033D01*
X620699Y366137D01*
Y364804D01*
X620033Y364138D01*
X618033D01*
X619366D02*
X620699Y362805D01*
X622032D02*
X623365D01*
X622698D01*
Y366803D01*
X622032Y366137D01*
X625364D02*
X626030Y366803D01*
X627363D01*
X628030Y366137D01*
Y363471D01*
X627363Y362805D01*
X626030D01*
X625364Y363471D01*
Y366137D01*
X605920Y362805D02*
Y366803D01*
X607919D01*
X608586Y366137D01*
Y364804D01*
X607919Y364138D01*
X605920D01*
X607253D02*
X608586Y362805D01*
X609918Y363471D02*
X610585Y362805D01*
X611918D01*
X612584Y363471D01*
Y366137D01*
X611918Y366803D01*
X610585D01*
X609918Y366137D01*
Y365471D01*
X610585Y364804D01*
X612584D01*
X500031Y491716D02*
X496032D01*
Y493715D01*
X496699Y494381D01*
X498032D01*
X498698Y493715D01*
Y491716D01*
Y493048D02*
X500031Y494381D01*
Y498380D02*
Y495714D01*
X497365Y498380D01*
X496699D01*
X496032Y497714D01*
Y496381D01*
X496699Y495714D01*
Y499713D02*
X496032Y500380D01*
Y501712D01*
X496699Y502379D01*
X497365D01*
X498032Y501712D01*
Y501046D01*
Y501712D01*
X498698Y502379D01*
X499364D01*
X500031Y501712D01*
Y500380D01*
X499364Y499713D01*
X473394Y485813D02*
X477393D01*
Y483813D01*
X476727Y483147D01*
X475394D01*
X474727Y483813D01*
Y485813D01*
Y484480D02*
X473394Y483147D01*
X477393Y481814D02*
Y479148D01*
X476727D01*
X474061Y481814D01*
X473394D01*
X449834Y473046D02*
X445835D01*
Y475045D01*
X446502Y475711D01*
X447835D01*
X448501Y475045D01*
Y473046D01*
Y474379D02*
X449834Y475711D01*
X445835Y479710D02*
X446502Y478377D01*
X447835Y477044D01*
X449167D01*
X449834Y477711D01*
Y479044D01*
X449167Y479710D01*
X448501D01*
X447835Y479044D01*
Y477044D01*
X727384Y375516D02*
X723385D01*
Y377515D01*
X724052Y378182D01*
X725385D01*
X726051Y377515D01*
Y375516D01*
Y376849D02*
X727384Y378182D01*
X723385Y382180D02*
Y379515D01*
X725385D01*
X724719Y380847D01*
Y381514D01*
X725385Y382180D01*
X726718D01*
X727384Y381514D01*
Y380181D01*
X726718Y379515D01*
X735235Y375615D02*
X731236D01*
Y377614D01*
X731902Y378281D01*
X733235D01*
X733902Y377614D01*
Y375615D01*
Y376948D02*
X735235Y378281D01*
Y381613D02*
X731236D01*
X733235Y379614D01*
Y382280D01*
X480284Y364553D02*
X484283D01*
Y362553D01*
X483616Y361887D01*
X482283D01*
X481617Y362553D01*
Y364553D01*
Y363220D02*
X480284Y361887D01*
X483616Y360554D02*
X484283Y359888D01*
Y358555D01*
X483616Y357888D01*
X482950D01*
X482283Y358555D01*
Y359221D01*
Y358555D01*
X481617Y357888D01*
X480951D01*
X480284Y358555D01*
Y359888D01*
X480951Y360554D01*
X482767Y403906D02*
Y407905D01*
X484767D01*
X485433Y407238D01*
Y405905D01*
X484767Y405239D01*
X482767D01*
X484100D02*
X485433Y403906D01*
X486766D02*
X488099D01*
X487432D01*
Y407905D01*
X486766Y407238D01*
X448353Y377166D02*
Y381102D01*
X450321D01*
X450977Y380446D01*
Y379134D01*
X450321Y378478D01*
X448353D01*
X449665D02*
X450977Y377166D01*
X454913D02*
X452289D01*
X454913Y379790D01*
Y380446D01*
X454257Y381102D01*
X452945D01*
X452289Y380446D01*
X458849Y377166D02*
X456225D01*
X458849Y379790D01*
Y380446D01*
X458193Y381102D01*
X456881D01*
X456225Y380446D01*
X447637Y389036D02*
X443701D01*
Y391003D01*
X444357Y391659D01*
X445669D01*
X446325Y391003D01*
Y389036D01*
Y390347D02*
X447637Y391659D01*
Y395595D02*
Y392971D01*
X445013Y395595D01*
X444357D01*
X443701Y394939D01*
Y393627D01*
X444357Y392971D01*
X447637Y396907D02*
Y398219D01*
Y397563D01*
X443701D01*
X444357Y396907D01*
X469019Y365202D02*
Y367868D01*
X468352Y368535D01*
X467019D01*
X466353Y367868D01*
Y365202D01*
X467019Y364536D01*
X468352D01*
X467686Y365869D02*
X469019Y364536D01*
X468352D02*
X469019Y365202D01*
X473017Y368535D02*
X470352D01*
Y366535D01*
X471684Y367202D01*
X472351D01*
X473017Y366535D01*
Y365202D01*
X472351Y364536D01*
X471018D01*
X470352Y365202D01*
X329265Y450919D02*
X326641D01*
X325985Y450263D01*
Y448951D01*
X326641Y448295D01*
X329265D01*
X329921Y448951D01*
Y450263D01*
X328609Y449607D02*
X329921Y450919D01*
Y450263D02*
X329265Y450919D01*
X329921Y454199D02*
X325985D01*
X327953Y452231D01*
Y454855D01*
X329265Y463911D02*
X326641D01*
X325985Y463255D01*
Y461943D01*
X326641Y461287D01*
X329265D01*
X329921Y461943D01*
Y463255D01*
X328609Y462599D02*
X329921Y463911D01*
Y463255D02*
X329265Y463911D01*
X326641Y465223D02*
X325985Y465879D01*
Y467191D01*
X326641Y467847D01*
X327297D01*
X327953Y467191D01*
Y466535D01*
Y467191D01*
X328609Y467847D01*
X329265D01*
X329921Y467191D01*
Y465879D01*
X329265Y465223D01*
X514643Y485782D02*
Y483116D01*
X515309Y482449D01*
X516642D01*
X517309Y483116D01*
Y485782D01*
X516642Y486448D01*
X515309D01*
X515976Y485115D02*
X514643Y486448D01*
X515309D02*
X514643Y485782D01*
X510644Y486448D02*
X513310D01*
X510644Y483782D01*
Y483116D01*
X511311Y482449D01*
X512643D01*
X513310Y483116D01*
X494041Y478543D02*
X496707D01*
X497373Y479210D01*
Y480543D01*
X496707Y481209D01*
X494041D01*
X493375Y480543D01*
Y479210D01*
X494708Y479876D02*
X493375Y478543D01*
Y479210D02*
X494041Y478543D01*
X493375Y477210D02*
Y475878D01*
Y476544D01*
X497373D01*
X496707Y477210D01*
X506268Y404814D02*
X510267D01*
Y407480D01*
Y408813D02*
Y410146D01*
Y409480D01*
X506268D01*
X506935Y408813D01*
X465474Y334677D02*
Y330678D01*
X467473D01*
X468140Y331344D01*
Y334010D01*
X467473Y334677D01*
X465474D01*
X469473Y330678D02*
X470806D01*
X470139D01*
Y334677D01*
X469473Y334010D01*
X472805D02*
X473471Y334677D01*
X474804D01*
X475471Y334010D01*
Y333344D01*
X474804Y332677D01*
X474138D01*
X474804D01*
X475471Y332011D01*
Y331344D01*
X474804Y330678D01*
X473471D01*
X472805Y331344D01*
X465474Y359283D02*
Y355284D01*
X467473D01*
X468140Y355951D01*
Y358616D01*
X467473Y359283D01*
X465474D01*
X469473Y355284D02*
X470806D01*
X470139D01*
Y359283D01*
X469473Y358616D01*
X475471Y355284D02*
X472805D01*
X475471Y357950D01*
Y358616D01*
X474804Y359283D01*
X473471D01*
X472805Y358616D01*
X371543Y349418D02*
X371083Y349877D01*
X370165D01*
X369706Y349418D01*
Y347581D01*
X370165Y347122D01*
X371083D01*
X371543Y347581D01*
X372461Y349418D02*
X372920Y349877D01*
X373838D01*
X374297Y349418D01*
Y348959D01*
X373838Y348500D01*
X373379D01*
X373838D01*
X374297Y348041D01*
Y347581D01*
X373838Y347122D01*
X372920D01*
X372461Y347581D01*
X377053Y347122D02*
X375216D01*
X377053Y348959D01*
Y349418D01*
X376593Y349877D01*
X375675D01*
X375216Y349418D01*
X444180Y493079D02*
X443513Y492413D01*
Y491080D01*
X444180Y490414D01*
X446846D01*
X447512Y491080D01*
Y492413D01*
X446846Y493079D01*
X444180Y494412D02*
X443513Y495079D01*
Y496412D01*
X444180Y497078D01*
X444846D01*
X445513Y496412D01*
Y495745D01*
Y496412D01*
X446179Y497078D01*
X446846D01*
X447512Y496412D01*
Y495079D01*
X446846Y494412D01*
X447512Y498411D02*
Y499744D01*
Y499078D01*
X443513D01*
X444180Y498411D01*
X388431Y455602D02*
X387764Y454936D01*
Y453603D01*
X388431Y452936D01*
X391097D01*
X391763Y453603D01*
Y454936D01*
X391097Y455602D01*
X388431Y456935D02*
X387764Y457601D01*
Y458934D01*
X388431Y459601D01*
X389097D01*
X389764Y458934D01*
Y458268D01*
Y458934D01*
X390430Y459601D01*
X391097D01*
X391763Y458934D01*
Y457601D01*
X391097Y456935D01*
X388431Y460933D02*
X387764Y461600D01*
Y462933D01*
X388431Y463599D01*
X391097D01*
X391763Y462933D01*
Y461600D01*
X391097Y460933D01*
X388431D01*
X511425Y500926D02*
X510758Y501592D01*
X509425D01*
X508759Y500926D01*
Y498260D01*
X509425Y497594D01*
X510758D01*
X511425Y498260D01*
X515424Y497594D02*
X512758D01*
X515424Y500259D01*
Y500926D01*
X514757Y501592D01*
X513424D01*
X512758Y500926D01*
X516756D02*
X517423Y501592D01*
X518756D01*
X519422Y500926D01*
Y500259D01*
X518756Y499593D01*
X519422Y498927D01*
Y498260D01*
X518756Y497594D01*
X517423D01*
X516756Y498260D01*
Y498927D01*
X517423Y499593D01*
X516756Y500259D01*
Y500926D01*
X517423Y499593D02*
X518756D01*
X649893Y362553D02*
X649227Y363220D01*
X647894D01*
X647227Y362553D01*
Y359888D01*
X647894Y359221D01*
X649227D01*
X649893Y359888D01*
X653892Y359221D02*
X651226D01*
X653892Y361887D01*
Y362553D01*
X653226Y363220D01*
X651893D01*
X651226Y362553D01*
X655225D02*
X655891Y363220D01*
X657224D01*
X657891Y362553D01*
Y359888D01*
X657224Y359221D01*
X655891D01*
X655225Y359888D01*
Y362553D01*
X370735Y331161D02*
X370079Y330505D01*
Y329193D01*
X370735Y328537D01*
X373359D01*
X374015Y329193D01*
Y330505D01*
X373359Y331161D01*
X374015Y332473D02*
Y333785D01*
Y333129D01*
X370079D01*
X370735Y332473D01*
X373359Y335753D02*
X374015Y336408D01*
Y337720D01*
X373359Y338376D01*
X370735D01*
X370079Y337720D01*
Y336408D01*
X370735Y335753D01*
X371391D01*
X372047Y336408D01*
Y338376D01*
X680002Y352040D02*
X679347Y351384D01*
Y350073D01*
X680002Y349416D01*
X682626D01*
X683282Y350073D01*
Y351384D01*
X682626Y352040D01*
X683282Y353352D02*
Y354664D01*
Y354008D01*
X679347D01*
X680002Y353352D01*
Y356632D02*
X679347Y357288D01*
Y358600D01*
X680002Y359256D01*
X680658D01*
X681315Y358600D01*
X681970Y359256D01*
X682626D01*
X683282Y358600D01*
Y357288D01*
X682626Y356632D01*
X681970D01*
X681315Y357288D01*
X680658Y356632D01*
X680002D01*
X681315Y357288D02*
Y358600D01*
X554103Y367475D02*
X553437Y368141D01*
X552104D01*
X551437Y367475D01*
Y364809D01*
X552104Y364142D01*
X553437D01*
X554103Y364809D01*
X558102Y364142D02*
X555436D01*
X558102Y366808D01*
Y367475D01*
X557435Y368141D01*
X556102D01*
X555436Y367475D01*
X559435Y364142D02*
X560768D01*
X560101D01*
Y368141D01*
X559435Y367475D01*
X452982Y534601D02*
X452316Y535267D01*
X450983D01*
X450317Y534601D01*
Y531935D01*
X450983Y531268D01*
X452316D01*
X452982Y531935D01*
X454315Y531268D02*
X455648D01*
X454982D01*
Y535267D01*
X454315Y534601D01*
X460313Y535267D02*
X458981Y534601D01*
X457648Y533268D01*
Y531935D01*
X458314Y531268D01*
X459647D01*
X460313Y531935D01*
Y532601D01*
X459647Y533268D01*
X457648D01*
X470108Y472790D02*
X469442Y473456D01*
X468109D01*
X467443Y472790D01*
Y470124D01*
X468109Y469457D01*
X469442D01*
X470108Y470124D01*
X471441Y469457D02*
X472774D01*
X472108D01*
Y473456D01*
X471441Y472790D01*
X477439Y473456D02*
X474774D01*
Y471457D01*
X476106Y472123D01*
X476773D01*
X477439Y471457D01*
Y470124D01*
X476773Y469457D01*
X475440D01*
X474774Y470124D01*
X492792Y427014D02*
X493459Y426347D01*
X494792D01*
X495458Y427014D01*
Y429679D01*
X494792Y430346D01*
X493459D01*
X492792Y429679D01*
X491460D02*
X490793Y430346D01*
X489460D01*
X488794Y429679D01*
Y427014D01*
X489460Y426347D01*
X490793D01*
X491460Y427014D01*
Y427680D01*
X490793Y428346D01*
X488794D01*
X703543Y358366D02*
X704133Y358956D01*
Y360137D01*
X703543Y360727D01*
X701182D01*
X700591Y360137D01*
Y358956D01*
X701182Y358366D01*
X700591Y357185D02*
Y356004D01*
Y356594D01*
X704133D01*
X703543Y357185D01*
X700591Y352462D02*
X704133D01*
X702362Y354233D01*
Y351871D01*
X709842Y358366D02*
X710432Y358956D01*
Y360137D01*
X709842Y360727D01*
X707481D01*
X706890Y360137D01*
Y358956D01*
X707481Y358366D01*
X706890Y357185D02*
Y356004D01*
Y356594D01*
X710432D01*
X709842Y357185D01*
Y354233D02*
X710432Y353643D01*
Y352462D01*
X709842Y351871D01*
X709252D01*
X708661Y352462D01*
Y353052D01*
Y352462D01*
X708071Y351871D01*
X707481D01*
X706890Y352462D01*
Y353643D01*
X707481Y354233D01*
X717716Y358366D02*
X718306Y358956D01*
Y360137D01*
X717716Y360727D01*
X715355D01*
X714764Y360137D01*
Y358956D01*
X715355Y358366D01*
X714764Y357185D02*
Y356004D01*
Y356594D01*
X718306D01*
X717716Y357185D01*
X714764Y351871D02*
Y354233D01*
X717126Y351871D01*
X717716D01*
X718306Y352462D01*
Y353643D01*
X717716Y354233D01*
X674931Y378952D02*
X674432Y379452D01*
X673432D01*
X672932Y378952D01*
Y376953D01*
X673432Y376453D01*
X674432D01*
X674931Y376953D01*
X675931Y376453D02*
X676931D01*
X676431D01*
Y379452D01*
X675931Y378952D01*
X678430Y376453D02*
X679430D01*
X678930D01*
Y379452D01*
X678430Y378952D01*
X660084Y366762D02*
X659418Y366095D01*
Y364763D01*
X660084Y364096D01*
X662750D01*
X663417Y364763D01*
Y366095D01*
X662750Y366762D01*
X663417Y368095D02*
Y369428D01*
Y368761D01*
X659418D01*
X660084Y368095D01*
Y371427D02*
X659418Y372094D01*
Y373426D01*
X660084Y374093D01*
X662750D01*
X663417Y373426D01*
Y372094D01*
X662750Y371427D01*
X660084D01*
X488825Y360751D02*
X488158Y360084D01*
Y358752D01*
X488825Y358085D01*
X491490D01*
X492157Y358752D01*
Y360084D01*
X491490Y360751D01*
X488825Y362084D02*
X488158Y362750D01*
Y364083D01*
X488825Y364750D01*
X489491D01*
X490158Y364083D01*
X490824Y364750D01*
X491490D01*
X492157Y364083D01*
Y362750D01*
X491490Y362084D01*
X490824D01*
X490158Y362750D01*
X489491Y362084D01*
X488825D01*
X490158Y362750D02*
Y364083D01*
X497365Y363931D02*
X496699Y364598D01*
X495366D01*
X494699Y363931D01*
Y361265D01*
X495366Y360599D01*
X496699D01*
X497365Y361265D01*
X498698Y364598D02*
X501364D01*
Y363931D01*
X498698Y361265D01*
Y360599D01*
X512447Y369412D02*
X511780Y368746D01*
Y367413D01*
X512447Y366746D01*
X515112D01*
X515779Y367413D01*
Y368746D01*
X515112Y369412D01*
X511780Y373411D02*
X512447Y372078D01*
X513779Y370745D01*
X515112D01*
X515779Y371412D01*
Y372744D01*
X515112Y373411D01*
X514446D01*
X513779Y372744D01*
Y370745D01*
X484767Y393065D02*
X484100Y393732D01*
X482767D01*
X482101Y393065D01*
Y390399D01*
X482767Y389733D01*
X484100D01*
X484767Y390399D01*
X488765Y393732D02*
X486099D01*
Y391732D01*
X487432Y392399D01*
X488099D01*
X488765Y391732D01*
Y390399D01*
X488099Y389733D01*
X486766D01*
X486099Y390399D01*
X319226Y348753D02*
X318570Y349409D01*
X317258D01*
X316602Y348753D01*
Y346129D01*
X317258Y345473D01*
X318570D01*
X319226Y346129D01*
X320538Y348753D02*
X321194Y349409D01*
X322506D01*
X323162Y348753D01*
Y348097D01*
X322506Y347441D01*
X321850D01*
X322506D01*
X323162Y346785D01*
Y346129D01*
X322506Y345473D01*
X321194D01*
X320538Y346129D01*
X309383Y340879D02*
X308728Y341535D01*
X307416D01*
X306760Y340879D01*
Y338255D01*
X307416Y337599D01*
X308728D01*
X309383Y338255D01*
X313319Y337599D02*
X310695D01*
X313319Y340223D01*
Y340879D01*
X312663Y341535D01*
X311351D01*
X310695Y340879D01*
X310310Y348753D02*
X309654Y349409D01*
X308343D01*
X307687Y348753D01*
Y346129D01*
X308343Y345473D01*
X309654D01*
X310310Y346129D01*
X311622Y345473D02*
X312934D01*
X312278D01*
Y349409D01*
X311622Y348753D01*
X319226Y340879D02*
X318570Y341535D01*
X317258D01*
X316602Y340879D01*
Y338255D01*
X317258Y337599D01*
X318570D01*
X319226Y338255D01*
X322506Y337599D02*
Y341535D01*
X320538Y339567D01*
X323162D01*
X358868Y497652D02*
X362200D01*
X362866Y498318D01*
Y499651D01*
X362200Y500318D01*
X358868D01*
Y504317D02*
Y501651D01*
X360867D01*
X360201Y502984D01*
Y503650D01*
X360867Y504317D01*
X362200D01*
X362866Y503650D01*
Y502317D01*
X362200Y501651D01*
X314930Y507874D02*
Y506541D01*
Y507208D01*
X318262D01*
X318929Y506541D01*
Y505875D01*
X318262Y505208D01*
X318929Y509207D02*
Y510540D01*
Y509873D01*
X314930D01*
X315596Y509207D01*
X357685Y515799D02*
X355019D01*
Y513799D01*
X356352D01*
X355019D01*
Y511800D01*
X359018Y515799D02*
Y511800D01*
X361017D01*
X361683Y512466D01*
Y513133D01*
X361017Y513799D01*
X359018D01*
X361017D01*
X361683Y514466D01*
Y515132D01*
X361017Y515799D01*
X359018D01*
X363016Y511800D02*
X364349D01*
X363683D01*
Y515799D01*
X363016Y515132D01*
X357685Y523932D02*
X357018Y524599D01*
X355685D01*
X355019Y523932D01*
Y521266D01*
X355685Y520600D01*
X357018D01*
X357685Y521266D01*
X359018Y520600D02*
X360350D01*
X359684D01*
Y524599D01*
X359018Y523932D01*
X362350Y524599D02*
X365016D01*
Y523932D01*
X362350Y521266D01*
Y520600D01*
D11*
X345951Y508268D02*
X345213Y508694D01*
Y507841D01*
X345951Y508268D01*
X492913Y490158D02*
X492175Y490584D01*
Y489731D01*
X492913Y490158D01*
X462795Y371457D02*
X462057Y371883D01*
Y371030D01*
X462795Y371457D01*
X491424Y409270D02*
X490685Y409696D01*
Y408844D01*
X491424Y409270D01*
X684546Y372539D02*
X683808Y372966D01*
Y372113D01*
X684546Y372539D01*
X469980Y475394D02*
X469242Y475820D01*
Y474967D01*
X469980Y475394D01*
X537106Y508563D02*
X536368Y508989D01*
Y508137D01*
X537106Y508563D01*
X371457Y451594D02*
X370719Y452021D01*
Y451168D01*
X371457Y451594D01*
X567717Y474016D02*
X566978Y474442D01*
Y473590D01*
X567717Y474016D01*
X568405Y478740D02*
X567667Y479166D01*
Y478314D01*
X568405Y478740D01*
X794035Y459882D02*
X793297Y460308D01*
Y459456D01*
X794035Y459882D01*
X707480Y380807D02*
X706742Y381233D01*
Y380381D01*
X707480Y380807D01*
X330906Y460039D02*
X330167Y460466D01*
Y459613D01*
X330906Y460039D01*
X345276Y455315D02*
X344537Y455741D01*
Y454889D01*
X345276Y455315D01*
D12*
X489468Y485433D02*
X489759Y484350D01*
X490551Y483558D01*
X491634Y483268D01*
X471004Y517717D02*
X470217D01*
X471004D01*
X448957Y400394D02*
X448169D01*
X448957D01*
X790354Y456102D02*
X790592Y455217D01*
X791240Y454568D01*
X792126Y454331D01*
X705118Y383661D02*
X704232Y383424D01*
X703584Y382776D01*
X703346Y381890D01*
X294524Y527374D02*
X300024D01*
X294524Y488374D02*
Y527374D01*
Y488374D02*
X300024D01*
X331524Y516374D02*
Y520374D01*
Y495374D02*
Y499374D01*
X312524Y527374D02*
X321024D01*
X312524Y488374D02*
X321024D01*
X479429Y471260D02*
X491634D01*
X479429D02*
Y485827D01*
X491634Y471260D02*
Y484449D01*
X490256Y485827D02*
X491634Y484449D01*
X479429Y485827D02*
X490256D01*
X489468Y485433D02*
Y485827D01*
X463583Y374803D02*
Y378740D01*
X466634D01*
X475394Y374803D02*
Y378740D01*
X472342D02*
X475394D01*
X532283Y510532D02*
Y530610D01*
X517717Y510532D02*
Y530610D01*
Y510532D02*
X532283D01*
X517717Y530610D02*
X532283D01*
X565945Y466732D02*
Y470669D01*
X562894Y466732D02*
X565945D01*
X554134D02*
Y470669D01*
Y466732D02*
X557185D01*
X478543Y422835D02*
X479724D01*
Y404724D02*
Y422835D01*
X478543Y404724D02*
X479724D01*
X471063D02*
X472244D01*
X471063D02*
Y422835D01*
X472244D01*
X471063Y413779D02*
X479724D01*
X790354Y456102D02*
Y456299D01*
X780709Y453150D02*
X792126D01*
X780709Y456299D02*
X792126D01*
X780709Y453150D02*
Y456299D01*
X792126Y453150D02*
Y456299D01*
X705118Y383661D02*
X705315D01*
X696457Y381693D02*
Y393898D01*
X705512D01*
X696457Y381693D02*
X704331D01*
X705512Y382874D01*
Y393898D01*
X340453Y467323D02*
X343504D01*
Y463386D02*
Y467323D01*
X331693D02*
X334744D01*
X331693Y463386D02*
Y467323D01*
Y448032D02*
X334744D01*
X331693D02*
Y451968D01*
X340453Y448032D02*
X343504D01*
Y451968D01*
D13*
X529528Y484252D02*
X528937Y484842D01*
X528346Y484252D01*
X528937Y483661D01*
X529528Y484252D01*
D14*
X532476Y513234D02*
X531382Y513086D01*
X530437Y512514D01*
X529799Y511613D01*
X529574Y510532D01*
D15*
X676181Y533071D02*
X675689Y533923D01*
X674705D01*
X674213Y533071D01*
X674705Y532219D01*
X675689D01*
X676181Y533071D01*
X813583Y438976D02*
X813091Y439829D01*
X812106D01*
X811614Y438976D01*
X812106Y438124D01*
X813091D01*
X813583Y438976D01*
X669291Y508465D02*
Y516339D01*
X693898Y471063D02*
Y508465D01*
X669291Y471063D02*
X676181D01*
X669291D02*
Y477953D01*
Y492717D02*
Y508465D01*
Y538976D02*
Y542913D01*
X693898D01*
Y532087D02*
Y542913D01*
X690945Y471063D02*
X693898D01*
X750591Y420276D02*
Y423228D01*
X811614Y420276D02*
X822441D01*
Y444882D01*
X818504D02*
X822441D01*
X772244D02*
X787992D01*
X750591D02*
X757480D01*
X750591Y437992D02*
Y444882D01*
Y420276D02*
X787992D01*
Y444882D02*
X795866D01*
D16*
X722638Y373504D02*
X723394D01*
X722638Y363504D02*
Y373504D01*
Y363504D02*
X723394D01*
X727394D02*
X728150D01*
Y373504D01*
X727394D02*
X728150D01*
X722638Y368504D02*
X728150D01*
X396654Y515551D02*
X397654Y514551D01*
X395654D02*
X396654Y515551D01*
X395654Y514551D02*
X397654D01*
X396654Y515551D02*
Y516551D01*
X395654Y523051D02*
Y523551D01*
X393110D02*
X395654D01*
X393110Y523051D02*
Y523551D01*
X400197Y523051D02*
Y523551D01*
X397654D02*
X400197D01*
X397654Y523051D02*
Y523551D01*
X393110Y507551D02*
X393898D01*
X393110D02*
Y523051D01*
X395654D01*
X399410Y507551D02*
X400197D01*
Y523051D01*
X397654D02*
X400197D01*
X393110Y515551D02*
X400197D01*
X388779D02*
X389779Y514551D01*
X387779D02*
X388779Y515551D01*
X387779Y514551D02*
X389779D01*
X388779Y515551D02*
Y516551D01*
X385236Y515551D02*
X392323D01*
X389779Y523051D02*
X392323D01*
Y507551D02*
Y523051D01*
X391535Y507551D02*
X392323D01*
X385236Y523051D02*
X387779D01*
X385236Y507551D02*
Y523051D01*
Y507551D02*
X386024D01*
X389779Y523051D02*
Y523551D01*
X392323D01*
Y523051D02*
Y523551D01*
X385236Y523051D02*
Y523551D01*
X387779D01*
Y523051D02*
Y523551D01*
X752969Y474543D02*
X755969D01*
X752969Y474043D02*
Y474543D01*
Y474043D02*
X755969D01*
Y474543D01*
X747968Y474043D02*
Y474543D01*
Y474043D02*
X750969D01*
Y474543D01*
X747968D02*
X750969D01*
X680512Y388287D02*
X687598D01*
X680512Y381594D02*
X681299D01*
X680512D02*
Y394980D01*
X681299D01*
X686811Y381594D02*
X687598D01*
Y394980D01*
X686811D02*
X687598D01*
X603346Y514764D02*
Y516339D01*
X616732D01*
Y514764D02*
Y516339D01*
Y509252D02*
Y510827D01*
X603346Y509252D02*
X616732D01*
X603346D02*
Y510827D01*
X610039Y509252D02*
Y516339D01*
X747539Y513484D02*
X748524D01*
X747539Y494783D02*
Y513484D01*
Y494783D02*
X748524D01*
X755413D02*
X756398D01*
Y513484D01*
X755413D02*
X756398D01*
X747539Y504134D02*
X756398D01*
X673425Y388090D02*
X678937D01*
X677756Y393602D02*
X678937D01*
Y382579D02*
Y393602D01*
X677756Y382579D02*
X678937D01*
X673425D02*
X674606D01*
X673425D02*
Y393602D01*
X674606D01*
X772047Y447244D02*
X773622D01*
X772047D02*
Y460630D01*
X773622D01*
X777559D02*
X779134D01*
Y447244D02*
Y460630D01*
X777559Y447244D02*
X779134D01*
X772047Y453937D02*
X779134D01*
X696063Y481693D02*
X701575D01*
X696063Y476693D02*
X696819D01*
X696063D02*
Y486693D01*
X696819D01*
X700819D02*
X701575D01*
Y476693D02*
Y486693D01*
X700819Y476693D02*
X701575D01*
X351772Y329528D02*
Y335039D01*
X356772Y329528D02*
Y330283D01*
X346772Y329528D02*
X356772D01*
X346772D02*
Y330283D01*
Y334283D02*
Y335039D01*
X356772D01*
Y334283D02*
Y335039D01*
X332677Y343898D02*
Y350984D01*
X339370Y349409D02*
Y350984D01*
X325984D02*
X339370D01*
X325984Y349409D02*
Y350984D01*
Y343898D02*
Y345472D01*
Y343898D02*
X339370D01*
Y345472D01*
X353346Y510236D02*
Y511811D01*
X339961Y510236D02*
X353346D01*
X339961D02*
Y511811D01*
Y515748D02*
Y517323D01*
X353346D01*
Y515748D02*
Y517323D01*
X346654Y510236D02*
Y517323D01*
X353346Y519095D02*
Y520669D01*
X339961Y519095D02*
X353346D01*
X339961D02*
Y520669D01*
Y524606D02*
Y526181D01*
X353346D01*
Y524606D02*
Y526181D01*
X346654Y519095D02*
Y526181D01*
X332677Y336024D02*
Y343110D01*
X339370Y341535D02*
Y343110D01*
X325984D02*
X339370D01*
X325984Y341535D02*
Y343110D01*
Y336024D02*
Y337598D01*
Y336024D02*
X339370D01*
Y337598D01*
X740952Y464500D02*
Y465256D01*
Y464500D02*
X750952D01*
Y465256D01*
Y469256D02*
Y470012D01*
X740952D02*
X750952D01*
X740952Y469256D02*
Y470012D01*
X745952Y464500D02*
Y470012D01*
X744574Y455838D02*
Y462925D01*
X751267Y461350D02*
Y462925D01*
X737881D02*
X751267D01*
X737881Y461350D02*
Y462925D01*
Y455838D02*
Y457413D01*
Y455838D02*
X751267D01*
Y457413D01*
X786417Y463976D02*
Y471063D01*
X779724Y463976D02*
Y465551D01*
Y463976D02*
X793110D01*
Y465551D01*
Y469488D02*
Y471063D01*
X779724D02*
X793110D01*
X779724Y469488D02*
Y471063D01*
X664764Y379921D02*
X666339D01*
X664764D02*
Y393307D01*
X666339D01*
X670276D02*
X671850D01*
Y379921D02*
Y393307D01*
X670276Y379921D02*
X671850D01*
X664764Y386614D02*
X671850D01*
X655905D02*
X662992D01*
X661417Y379921D02*
X662992D01*
Y393307D01*
X661417D02*
X662992D01*
X655905D02*
X657480D01*
X655905Y379921D02*
Y393307D01*
Y379921D02*
X657480D01*
X768898Y394783D02*
X774409D01*
X773228Y400295D02*
X774409D01*
Y389272D02*
Y400295D01*
X773228Y389272D02*
X774409D01*
X768898D02*
X770079D01*
X768898D02*
Y400295D01*
X770079D01*
X760236Y395571D02*
X767323D01*
X760236Y388878D02*
X761024D01*
X760236D02*
Y402264D01*
X761024D01*
X766535Y388878D02*
X767323D01*
Y402264D01*
X766535D02*
X767323D01*
X730462Y368603D02*
X735974D01*
X735218Y373603D02*
X735974D01*
Y363603D02*
Y373603D01*
X735218Y363603D02*
X735974D01*
X730462D02*
X731218D01*
X730462D02*
Y373603D01*
X731218D01*
X672638Y361614D02*
X674213D01*
X672638D02*
Y375000D01*
X674213D01*
X678150D02*
X679724D01*
Y361614D02*
Y375000D01*
X678150Y361614D02*
X679724D01*
X672638Y368307D02*
X679724D01*
X664764Y361614D02*
X666339D01*
X664764D02*
Y375000D01*
X666339D01*
X670276D02*
X671850D01*
Y361614D02*
Y375000D01*
X670276Y361614D02*
X671850D01*
X664764Y368307D02*
X671850D01*
X697244Y361614D02*
X698819D01*
X697244D02*
Y375000D01*
X698819D01*
X702756D02*
X704331D01*
Y361614D02*
Y375000D01*
X702756Y361614D02*
X704331D01*
X697244Y368307D02*
X704331D01*
X705118Y361614D02*
X706693D01*
X705118D02*
Y375000D01*
X706693D01*
X710630D02*
X712205D01*
Y361614D02*
Y375000D01*
X710630Y361614D02*
X712205D01*
X705118Y368307D02*
X712205D01*
X712992Y361614D02*
X714567D01*
X712992D02*
Y375000D01*
X714567D01*
X718504D02*
X720079D01*
Y361614D02*
Y375000D01*
X718504Y361614D02*
X720079D01*
X712992Y368307D02*
X720079D01*
X695276Y495276D02*
X702362D01*
X700787Y488583D02*
X702362D01*
Y501968D01*
X700787D02*
X702362D01*
X695276D02*
X696850D01*
X695276Y488583D02*
Y501968D01*
Y488583D02*
X696850D01*
X730512Y491614D02*
X731268D01*
X730512Y481614D02*
Y491614D01*
Y481614D02*
X731268D01*
X735268D02*
X736024D01*
Y491614D01*
X735268D02*
X736024D01*
X730512Y486614D02*
X736024D01*
X782512Y390177D02*
X783268D01*
Y400177D01*
X782512D02*
X783268D01*
X777756D02*
X778512D01*
X777756Y390177D02*
Y400177D01*
Y390177D02*
X778512D01*
X777756Y395177D02*
X783268D01*
X467913Y523622D02*
Y529134D01*
X462913Y528378D02*
Y529134D01*
X472913D01*
Y528378D02*
Y529134D01*
Y523622D02*
Y524378D01*
X462913Y523622D02*
X472913D01*
X462913D02*
Y524378D01*
X400984Y515551D02*
X408071D01*
X405528Y523051D02*
X408071D01*
Y507551D02*
Y523051D01*
X407283Y507551D02*
X408071D01*
X400984Y523051D02*
X403528D01*
X400984Y507551D02*
Y523051D01*
Y507551D02*
X401772D01*
X405528Y523051D02*
Y523551D01*
X408071D01*
Y523051D02*
Y523551D01*
X400984Y523051D02*
Y523551D01*
X403528D01*
Y523051D02*
Y523551D01*
X404528Y515551D02*
Y516551D01*
X403528Y514551D02*
X405528D01*
X403528D02*
X404528Y515551D01*
X405528Y514551D01*
X377362Y515551D02*
X384449D01*
X381906Y523051D02*
X384449D01*
Y507551D02*
Y523051D01*
X383661Y507551D02*
X384449D01*
X377362Y523051D02*
X379906D01*
X377362Y507551D02*
Y523051D01*
Y507551D02*
X378150D01*
X381906Y523051D02*
Y523551D01*
X384449D01*
Y523051D02*
Y523551D01*
X377362Y523051D02*
Y523551D01*
X379906D01*
Y523051D02*
Y523551D01*
X380906Y515551D02*
Y516551D01*
X379906Y514551D02*
X381906D01*
X379906D02*
X380906Y515551D01*
X381906Y514551D01*
X372031Y523051D02*
Y523551D01*
X369488D02*
X372031D01*
X369488Y523051D02*
Y523551D01*
X376575Y523051D02*
Y523551D01*
X374031D02*
X376575D01*
X374031Y523051D02*
Y523551D01*
X369488Y507551D02*
X370276D01*
X369488D02*
Y523051D01*
X372031D01*
X375787Y507551D02*
X376575D01*
Y523051D01*
X374031D02*
X376575D01*
X369488Y515551D02*
X376575D01*
X373031D02*
Y516551D01*
X372031Y514551D02*
X374031D01*
X372031D02*
X373031Y515551D01*
X374031Y514551D01*
X651772Y350787D02*
Y357874D01*
X645079Y350787D02*
Y352362D01*
Y350787D02*
X658465D01*
Y352362D01*
Y356299D02*
Y357874D01*
X645079D02*
X658465D01*
X645079Y356299D02*
Y357874D01*
X691142Y350787D02*
Y357874D01*
X684449Y350787D02*
Y352362D01*
Y350787D02*
X697835D01*
Y352362D01*
Y356299D02*
Y357874D01*
X684449D02*
X697835D01*
X684449Y356299D02*
Y357874D01*
X747539Y362008D02*
X756398D01*
X747539Y352658D02*
X748524D01*
X747539D02*
Y371358D01*
X748524D01*
X755413D02*
X756398D01*
Y352658D02*
Y371358D01*
X755413Y352658D02*
X756398D01*
X544488Y497047D02*
X551575D01*
X544488Y503740D02*
X546063D01*
X544488Y490354D02*
Y503740D01*
Y490354D02*
X546063D01*
X550000D02*
X551575D01*
Y503740D01*
X550000D02*
X551575D01*
X552362Y497047D02*
X559449D01*
X552362Y503740D02*
X553937D01*
X552362Y490354D02*
Y503740D01*
Y490354D02*
X553937D01*
X557874D02*
X559449D01*
Y503740D01*
X557874D02*
X559449D01*
X560236Y497047D02*
X567323D01*
X560236Y503740D02*
X561811D01*
X560236Y490354D02*
Y503740D01*
Y490354D02*
X561811D01*
X565748D02*
X567323D01*
Y503740D01*
X565748D02*
X567323D01*
X618504Y515945D02*
X625591D01*
X624016Y509252D02*
X625591D01*
Y522638D01*
X624016D02*
X625591D01*
X618504D02*
X620079D01*
X618504Y509252D02*
Y522638D01*
Y509252D02*
X620079D01*
X626378Y515945D02*
X633464D01*
X631890Y509252D02*
X633464D01*
Y522638D01*
X631890D02*
X633464D01*
X626378D02*
X627953D01*
X626378Y509252D02*
Y522638D01*
Y509252D02*
X627953D01*
X584331Y510071D02*
Y510827D01*
X574331D02*
X584331D01*
X574331Y510071D02*
Y510827D01*
Y505315D02*
Y506071D01*
Y505315D02*
X584331D01*
Y506071D01*
X579331Y505315D02*
Y510827D01*
X572913Y509874D02*
Y510630D01*
X562913D02*
X572913D01*
X562913Y509874D02*
Y510630D01*
Y505118D02*
Y505874D01*
Y505118D02*
X572913D01*
Y505874D01*
X567913Y505118D02*
Y510630D01*
X613386Y501457D02*
X614142D01*
X613386Y491457D02*
Y501457D01*
Y491457D02*
X614142D01*
X618142D02*
X618898D01*
Y501457D01*
X618142D02*
X618898D01*
X613386Y496457D02*
X618898D01*
X612598Y483071D02*
X619685D01*
X612598Y489764D02*
X614173D01*
X612598Y476378D02*
Y489764D01*
Y476378D02*
X614173D01*
X618110D02*
X619685D01*
Y489764D01*
X618110D02*
X619685D01*
X618142Y464882D02*
X618898D01*
Y474882D01*
X618142D02*
X618898D01*
X613386D02*
X614142D01*
X613386Y464882D02*
Y474882D01*
Y464882D02*
X614142D01*
X613386Y469882D02*
X618898D01*
X585709Y471488D02*
Y472244D01*
X575709D02*
X585709D01*
X575709Y471488D02*
Y472244D01*
Y466732D02*
Y467488D01*
Y466732D02*
X585709D01*
Y467488D01*
X580709Y466732D02*
Y472244D01*
X597520Y471488D02*
Y472244D01*
X587520D02*
X597520D01*
X587520Y471488D02*
Y472244D01*
Y466732D02*
Y467488D01*
Y466732D02*
X597520D01*
Y467488D01*
X592520Y466732D02*
Y472244D01*
X605512Y464961D02*
Y472047D01*
X598819Y464961D02*
Y466535D01*
Y464961D02*
X612205D01*
Y466535D01*
Y470472D02*
Y472047D01*
X598819D02*
X612205D01*
X598819Y470472D02*
Y472047D01*
X638779Y351575D02*
Y357087D01*
X643780Y351575D02*
Y352331D01*
X633779Y351575D02*
X643780D01*
X633779D02*
Y352331D01*
Y356331D02*
Y357087D01*
X643780D01*
Y356331D02*
Y357087D01*
X472638Y498701D02*
X473394D01*
X472638Y488701D02*
Y498701D01*
Y488701D02*
X473394D01*
X477394D02*
X478150D01*
Y498701D01*
X477394D02*
X478150D01*
X472638Y493701D02*
X478150D01*
X458858Y467913D02*
Y475000D01*
X452165Y467913D02*
Y469488D01*
Y467913D02*
X465551D01*
Y469488D01*
Y473425D02*
Y475000D01*
X452165D02*
X465551D01*
X452165Y473425D02*
Y475000D01*
X458858Y460039D02*
Y467126D01*
X452165Y460039D02*
Y461614D01*
Y460039D02*
X465551D01*
Y461614D01*
Y465551D02*
Y467126D01*
X452165D02*
X465551D01*
X452165Y465551D02*
Y467126D01*
X487827Y445984D02*
X488583D01*
Y455984D01*
X487827D02*
X488583D01*
X483071D02*
X483827D01*
X483071Y445984D02*
Y455984D01*
Y445984D02*
X483827D01*
X483071Y450984D02*
X488583D01*
X478740Y366535D02*
X479528D01*
X478740D02*
Y379921D01*
X479528D01*
X485039Y366535D02*
X485827D01*
Y379921D01*
X485039D02*
X485827D01*
X478740Y373228D02*
X485827D01*
X479748Y345409D02*
Y348410D01*
X480248D01*
Y345409D02*
Y348410D01*
X479748Y345409D02*
X480248D01*
X479748Y353410D02*
X480248D01*
Y350410D02*
Y353410D01*
X479748Y350410D02*
X480248D01*
X479748D02*
Y353410D01*
X461748Y341551D02*
Y344551D01*
X461248Y341551D02*
X461748D01*
X461248D02*
Y344551D01*
X461748D01*
X461248Y336551D02*
X461748D01*
X461248D02*
Y339551D01*
X461748D01*
Y336551D02*
Y339551D01*
X465945Y382677D02*
Y388189D01*
X460945Y387433D02*
Y388189D01*
X470945D01*
Y387433D02*
Y388189D01*
Y382677D02*
Y383433D01*
X460945Y382677D02*
X470945D01*
X460945D02*
Y383433D01*
X485433Y381102D02*
Y388189D01*
X492126Y386614D02*
Y388189D01*
X478740D02*
X492126D01*
X478740Y386614D02*
Y388189D01*
Y381102D02*
Y382677D01*
Y381102D02*
X492126D01*
Y382677D01*
X458937Y393732D02*
Y394488D01*
X448937D02*
X458937D01*
X448937Y393732D02*
Y394488D01*
Y388976D02*
Y389732D01*
Y388976D02*
X458937D01*
Y389732D01*
X453937Y388976D02*
Y394488D01*
X458937Y387433D02*
Y388189D01*
X448937D02*
X458937D01*
X448937Y387433D02*
Y388189D01*
Y382677D02*
Y383433D01*
Y382677D02*
X458937D01*
Y383433D01*
X453937Y382677D02*
Y388189D01*
X478740Y401575D02*
Y402362D01*
X492126D01*
Y401575D02*
Y402362D01*
X478740Y395276D02*
Y396063D01*
Y395276D02*
X492126D01*
Y396063D01*
X485433Y395276D02*
Y402362D01*
X522362Y503543D02*
Y504299D01*
Y503543D02*
X532362D01*
Y504299D01*
Y508299D02*
Y509055D01*
X522362D02*
X532362D01*
X522362Y508299D02*
Y509055D01*
X527362Y503543D02*
Y509055D01*
X521358Y496850D02*
Y498032D01*
Y496850D02*
X532382D01*
Y498032D01*
Y501181D02*
Y502362D01*
X521358D02*
X532382D01*
X521358Y501181D02*
Y502362D01*
X526870Y496850D02*
Y502362D01*
X495276Y514252D02*
X496032D01*
X495276Y504252D02*
Y514252D01*
Y504252D02*
X496032D01*
X500032D02*
X500787D01*
Y514252D01*
X500032D02*
X500787D01*
X495276Y509252D02*
X500787D01*
X502165Y531968D02*
X502921D01*
X502165Y521969D02*
Y531968D01*
Y521969D02*
X502921D01*
X506921D02*
X507677D01*
Y531968D01*
X506921D02*
X507677D01*
X502165Y526968D02*
X507677D01*
X501968Y514252D02*
X502724D01*
X501968Y504252D02*
Y514252D01*
Y504252D02*
X502724D01*
X506724D02*
X507480D01*
Y514252D01*
X506724D02*
X507480D01*
X501968Y509252D02*
X507480D01*
X489157Y512417D02*
X490158Y511417D01*
X491157Y512417D01*
X489157D02*
X491157D01*
X490158Y510417D02*
Y511417D01*
X491157Y503417D02*
Y503917D01*
Y503417D02*
X493701D01*
Y503917D01*
X486614Y503417D02*
Y503917D01*
Y503417D02*
X489157D01*
Y503917D01*
X492913Y519417D02*
X493701D01*
Y503917D02*
Y519417D01*
X491157Y503917D02*
X493701D01*
X486614Y519417D02*
X487402D01*
X486614Y503917D02*
Y519417D01*
Y503917D02*
X489157D01*
X486614Y511417D02*
X493701D01*
X455118Y522835D02*
Y529921D01*
X448425Y522835D02*
Y524409D01*
Y522835D02*
X461811D01*
Y524409D01*
Y528346D02*
Y529921D01*
X448425D02*
X461811D01*
X448425Y528346D02*
Y529921D01*
X439961Y501575D02*
X441535D01*
Y488189D02*
Y501575D01*
X439961Y488189D02*
X441535D01*
X434449D02*
X436024D01*
X434449D02*
Y501575D01*
X436024D01*
X434449Y494882D02*
X441535D01*
X410630Y515433D02*
X411386D01*
X410630Y505433D02*
Y515433D01*
Y505433D02*
X411386D01*
X415386D02*
X416142D01*
Y515433D01*
X415386D02*
X416142D01*
X410630Y510433D02*
X416142D01*
X480315Y424803D02*
Y431890D01*
X487008Y430315D02*
Y431890D01*
X473622D02*
X487008D01*
X473622Y430315D02*
Y431890D01*
Y424803D02*
Y426378D01*
Y424803D02*
X487008D01*
Y426378D01*
X556102Y355709D02*
Y362795D01*
X562795Y361221D02*
Y362795D01*
X549409D02*
X562795D01*
X549409Y361221D02*
Y362795D01*
Y355709D02*
Y357283D01*
Y355709D02*
X562795D01*
Y357283D01*
X574882Y360268D02*
Y361024D01*
X564882D02*
X574882D01*
X564882Y360268D02*
Y361024D01*
Y355512D02*
Y356268D01*
Y355512D02*
X574882D01*
Y356268D01*
X569882Y355512D02*
Y361024D01*
X605827Y355512D02*
Y356268D01*
Y355512D02*
X615827D01*
Y356268D01*
Y360268D02*
Y361024D01*
X605827D02*
X615827D01*
X605827Y360268D02*
Y361024D01*
X610827Y355512D02*
Y361024D01*
X617047Y355512D02*
Y356268D01*
Y355512D02*
X627047D01*
Y356268D01*
Y360268D02*
Y361024D01*
X617047D02*
X627047D01*
X617047Y360268D02*
Y361024D01*
X622047Y355512D02*
Y361024D01*
X445079Y470945D02*
X445835D01*
X445079Y460945D02*
Y470945D01*
Y460945D02*
X445835D01*
X449835D02*
X450591D01*
Y470945D01*
X449835D02*
X450591D01*
X445079Y465945D02*
X450591D01*
X743126Y492543D02*
X746126D01*
X743126D02*
Y493043D01*
X746126D01*
Y492543D02*
Y493043D01*
X738126Y492543D02*
Y493043D01*
X741126D01*
Y492543D02*
Y493043D01*
X738126Y492543D02*
X741126D01*
X752969Y391165D02*
X755969D01*
X752969D02*
Y391665D01*
X755969D01*
Y391165D02*
Y391665D01*
X747968Y391165D02*
Y391665D01*
X750969D01*
Y391165D02*
Y391665D01*
X747968Y391165D02*
X750969D01*
X738126Y373165D02*
X741126D01*
Y372665D02*
Y373165D01*
X738126Y372665D02*
X741126D01*
X738126D02*
Y373165D01*
X746126Y372665D02*
Y373165D01*
X743126Y372665D02*
X746126D01*
X743126D02*
Y373165D01*
X746126D01*
X450276Y336811D02*
Y337567D01*
Y336811D02*
X460276D01*
Y337567D01*
Y341567D02*
Y342323D01*
X450276D02*
X460276D01*
X450276Y341567D02*
Y342323D01*
X455276Y336811D02*
Y342323D01*
X450276Y343701D02*
Y344457D01*
Y343701D02*
X460276D01*
Y344457D01*
Y348457D02*
Y349213D01*
X450276D02*
X460276D01*
X450276Y348457D02*
Y349213D01*
X455276Y343701D02*
Y349213D01*
X500000Y379921D02*
X501575D01*
Y366535D02*
Y379921D01*
X500000Y366535D02*
X501575D01*
X494488D02*
X496063D01*
X494488D02*
Y379921D01*
X496063D01*
X494488Y373228D02*
X501575D01*
X492126Y379921D02*
X493701D01*
Y366535D02*
Y379921D01*
X492126Y366535D02*
X493701D01*
X486614D02*
X488189D01*
X486614D02*
Y379921D01*
X488189D01*
X486614Y373228D02*
X493701D01*
X507874Y379921D02*
X509449D01*
Y366535D02*
Y379921D01*
X507874Y366535D02*
X509449D01*
X502362D02*
X503937D01*
X502362D02*
Y379921D01*
X503937D01*
X502362Y373228D02*
X509449D01*
X347441Y336024D02*
Y343110D01*
X340748Y336024D02*
Y337598D01*
Y336024D02*
X354134D01*
Y337598D01*
Y341535D02*
Y343110D01*
X340748D02*
X354134D01*
X340748Y341535D02*
Y343110D01*
X347441Y343898D02*
Y350984D01*
X340748Y343898D02*
Y345472D01*
Y343898D02*
X354134D01*
Y345472D01*
Y349409D02*
Y350984D01*
X340748D02*
X354134D01*
X340748Y349409D02*
Y350984D01*
X368898Y343898D02*
Y345472D01*
X355512Y343898D02*
X368898D01*
X355512D02*
Y345472D01*
Y349409D02*
Y350984D01*
X368898D01*
Y349409D02*
Y350984D01*
X362205Y343898D02*
Y350984D01*
X368898Y336024D02*
Y337598D01*
X355512Y336024D02*
X368898D01*
X355512D02*
Y337598D01*
Y341535D02*
Y343110D01*
X368898D01*
Y341535D02*
Y343110D01*
X362205Y336024D02*
Y343110D01*
X378346Y458465D02*
X385433D01*
X378346Y465158D02*
X379921D01*
X378346Y451772D02*
Y465158D01*
Y451772D02*
X379921D01*
X383858D02*
X385433D01*
Y465158D01*
X383858D02*
X385433D01*
X397835Y493583D02*
X398590D01*
X397835Y483583D02*
Y493583D01*
Y483583D02*
X398590D01*
X402591D02*
X403346D01*
Y493583D01*
X402591D02*
X403346D01*
X397835Y488583D02*
X403346D01*
X390945Y493583D02*
X391701D01*
X390945Y483583D02*
Y493583D01*
Y483583D02*
X391701D01*
X395701D02*
X396457D01*
Y493583D01*
X395701D02*
X396457D01*
X390945Y488583D02*
X396457D01*
X377165Y493583D02*
X377921D01*
X377165Y483583D02*
Y493583D01*
Y483583D02*
X377921D01*
X381921D02*
X382677D01*
Y493583D01*
X381921D02*
X382677D01*
X377165Y488583D02*
X382677D01*
X384055Y493583D02*
X384811D01*
X384055Y483583D02*
Y493583D01*
Y483583D02*
X384811D01*
X388811D02*
X389567D01*
Y493583D01*
X388811D02*
X389567D01*
X384055Y488583D02*
X389567D01*
X481284Y512417D02*
X482283Y511417D01*
X483284Y512417D01*
X481284D02*
X483284D01*
X482283Y510417D02*
Y511417D01*
X478740D02*
X485827D01*
X478740Y503917D02*
X481284D01*
X478740D02*
Y519417D01*
X479528D01*
X483284Y503917D02*
X485827D01*
Y519417D01*
X485039D02*
X485827D01*
X481284Y503417D02*
Y503917D01*
X478740Y503417D02*
X481284D01*
X478740D02*
Y503917D01*
X485827Y503417D02*
Y503917D01*
X483284Y503417D02*
X485827D01*
X483284D02*
Y503917D01*
D17*
X727933Y448170D02*
D03*
X736633D02*
D03*
X409036Y498170D02*
D03*
X417736Y498170D02*
D03*
D18*
X732183Y452420D02*
D03*
X413286Y502420D02*
D03*
D19*
X732183Y443820D02*
D03*
X413286Y493820D02*
D03*
D20*
X816280Y356299D02*
D03*
X816279Y509842D02*
D03*
D21*
X767979Y356299D02*
D03*
X759580D02*
D03*
X759579Y509842D02*
D03*
X767979D02*
D03*
D22*
X763779Y360499D02*
D03*
Y352099D02*
D03*
X763779Y505643D02*
D03*
Y514043D02*
D03*
D23*
X448374Y451202D02*
D03*
X461074D02*
D03*
D24*
X454624Y443602D02*
D03*
D25*
X454524Y457452D02*
D03*
D26*
X295895Y507874D02*
D03*
D27*
X681595Y541683D02*
D03*
D28*
X821210Y432579D02*
D03*
M02*
