G04*
G04 #@! TF.GenerationSoftware,Altium Limited,Altium Designer,21.1.1 (26)*
G04*
G04 Layer_Color=8388736*
%FSLAX25Y25*%
%MOIN*%
G70*
G04*
G04 #@! TF.SameCoordinates,699B9FA1-69CE-4F8E-812B-AA759A78C5B1*
G04*
G04*
G04 #@! TF.FilePolarity,Positive*
G04*
G01*
G75*
%ADD10C,0.00600*%
D10*
X299213Y334646D02*
X299280Y333618D01*
X299481Y332608D01*
X299812Y331632D01*
X300268Y330709D01*
X300840Y329852D01*
X301519Y329078D01*
X302293Y328399D01*
X303150Y327827D01*
X304073Y327371D01*
X305049Y327040D01*
X306059Y326839D01*
X307087Y326772D01*
X307087Y539370D02*
X306059Y539303D01*
X305049Y539102D01*
X304073Y538771D01*
X303150Y538315D01*
X302293Y537743D01*
X301519Y537064D01*
X300840Y536289D01*
X300268Y535433D01*
X299812Y534509D01*
X299481Y533534D01*
X299280Y532524D01*
X299213Y531496D01*
X811024Y326772D02*
X812051Y326839D01*
X813062Y327040D01*
X814037Y327371D01*
X814961Y327827D01*
X815817Y328399D01*
X816591Y329078D01*
X817270Y329852D01*
X817843Y330709D01*
X818298Y331632D01*
X818629Y332608D01*
X818830Y333618D01*
X818898Y334646D01*
X818898Y531496D02*
X818830Y532524D01*
X818629Y533534D01*
X818298Y534509D01*
X817843Y535433D01*
X817270Y536290D01*
X816591Y537064D01*
X815817Y537743D01*
X814961Y538315D01*
X814037Y538771D01*
X813062Y539102D01*
X812051Y539303D01*
X811024Y539370D01*
X307087Y326772D02*
X570866Y326772D01*
X307087Y539370D02*
X811024Y539370D01*
X610236Y326772D02*
X811024D01*
X570866D02*
X570866D01*
X570866D02*
X606299D01*
X610236D01*
X299213Y531496D02*
X299213Y334646D01*
X818898Y531496D02*
X818898Y334646D01*
M02*
